<svg width="946" height="122" viewBox="0 0 946 122" fill="none" xmlns="http://www.w3.org/2000/svg">
<path d="M31.0121 0.914237V43.5787H27.7397V0.914237H31.0121ZM7.14889 0.914237V43.5787H3.87651V0.914237H7.14889ZM28.1928 21.576V23.4045H6.64544V21.576H28.1928ZM4.02754 39.1294V43.5787H0V42.9692C0 42.9692 0.100689 42.9692 0.302066 42.9692C0.537006 42.9692 0.654476 42.9692 0.654476 42.9692C1.52711 42.9692 2.26549 42.6035 2.86962 41.8721C3.50732 41.1001 3.84295 40.1858 3.87651 39.1294H4.02754ZM4.02754 5.36353H3.87651C3.84295 4.30708 3.50732 3.41316 2.86962 2.68177C2.26549 1.90974 1.52711 1.52373 0.654476 1.52373C0.654476 1.52373 0.537006 1.52373 0.302066 1.52373C0.100689 1.52373 0 1.52373 0 1.52373V0.914237H4.02754V5.36353ZM6.99786 39.1294H7.14889C7.18245 40.1858 7.5013 41.1001 8.10543 41.8721C8.74312 42.6035 9.49829 42.9692 10.3709 42.9692C10.3709 42.9692 10.4716 42.9692 10.673 42.9692C10.8744 42.9692 10.9918 42.9692 11.0254 42.9692V43.5787H6.99786V39.1294ZM6.99786 5.36353V0.914237H11.0254V1.52373C10.9918 1.52373 10.8744 1.52373 10.673 1.52373C10.4716 1.52373 10.3709 1.52373 10.3709 1.52373C9.49829 1.52373 8.74312 1.90974 8.10543 2.68177C7.5013 3.41316 7.18245 4.30708 7.14889 5.36353H6.99786ZM27.8907 39.1294V43.5787H23.8632V42.9692C23.8968 42.9692 24.0142 42.9692 24.2156 42.9692C24.417 42.9692 24.5177 42.9692 24.5177 42.9692C25.3903 42.9692 26.1455 42.6035 26.7832 41.8721C27.4208 41.1001 27.7397 40.1858 27.7397 39.1294H27.8907ZM27.8907 5.36353H27.7397C27.7397 4.30708 27.4208 3.41316 26.7832 2.68177C26.1455 1.90974 25.3903 1.52373 24.5177 1.52373C24.5177 1.52373 24.417 1.52373 24.2156 1.52373C24.0142 1.52373 23.8968 1.52373 23.8632 1.52373V0.914237H27.8907V5.36353ZM30.861 39.1294H31.0121C31.0456 40.1858 31.3645 41.1001 31.9686 41.8721C32.6063 42.6035 33.3615 42.9692 34.2341 42.9692C34.2341 42.9692 34.3348 42.9692 34.5362 42.9692C34.7711 42.9692 34.8886 42.9692 34.8886 42.9692V43.5787H30.861V39.1294ZM30.861 5.36353V0.914237H34.8886V1.52373C34.8886 1.52373 34.7711 1.52373 34.5362 1.52373C34.3348 1.52373 34.2341 1.52373 34.2341 1.52373C33.3615 1.52373 32.6063 1.90974 31.9686 2.68177C31.3645 3.41316 31.0456 4.30708 31.0121 5.36353H30.861Z" fill="black"/>
<path d="M54.8489 6.15587L68.6936 43.213H64.7164L53.9931 11.5803L54.8489 6.15587ZM45.1325 39.1294C44.7633 40.3484 44.8136 41.3032 45.2835 41.994C45.7534 42.6441 46.2904 42.9692 46.8945 42.9692H47.2973V43.5787H37.6815V42.9692C37.6815 42.9692 37.7486 42.9692 37.8829 42.9692C38.0171 42.9692 38.0843 42.9692 38.0843 42.9692C38.7891 42.9692 39.5107 42.6848 40.2491 42.1159C40.9875 41.5064 41.6251 40.5109 42.1622 39.1294H45.1325ZM54.8489 6.15587L55.2013 10.3614L43.6725 43.3958H40.5008L52.4324 12.4336C52.4324 12.4336 52.5163 12.1898 52.6841 11.7023C52.8855 11.2147 53.1036 10.6255 53.3386 9.93472C53.6071 9.20333 53.842 8.49226 54.0434 7.8015C54.2448 7.11074 54.3623 6.5622 54.3958 6.15587H54.8489ZM60.7895 29.3775V31.206H47.4483V29.3775H60.7895ZM63.3571 39.1294H67.1833C67.6867 40.5109 68.3076 41.5064 69.046 42.1159C69.7844 42.6848 70.4892 42.9692 71.1605 42.9692C71.1605 42.9692 71.2276 42.9692 71.3618 42.9692C71.4961 42.9692 71.5632 42.9692 71.5632 42.9692V43.5787H61.2426V42.9692H61.6454C62.216 42.9692 62.7362 42.6441 63.2061 41.994C63.6759 41.3032 63.7263 40.3484 63.3571 39.1294Z" fill="black"/>
<path d="M81.3847 7.00916V43.5787H78.213V7.00916H81.3847ZM78.364 39.6779V43.5787H74.0847V42.9692C74.0847 42.9692 74.2022 42.9692 74.4372 42.9692C74.6721 42.9692 74.7896 42.9692 74.7896 42.9692C75.7293 42.9692 76.5181 42.6441 77.1558 41.994C77.827 41.3439 78.1794 40.5719 78.213 39.6779H78.364ZM81.2336 39.6779H81.3847C81.4182 40.5719 81.7539 41.3439 82.3916 41.994C83.0628 42.6441 83.8683 42.9692 84.8081 42.9692C84.8081 42.9692 84.9088 42.9692 85.1101 42.9692C85.3451 42.9692 85.4626 42.9692 85.4626 42.9692L85.5129 43.5787H81.2336V39.6779ZM81.2336 10.9099V7.00916H85.5129L85.4626 7.61865C85.4626 7.61865 85.3451 7.61865 85.1101 7.61865C84.9088 7.61865 84.8081 7.61865 84.8081 7.61865C83.8683 7.61865 83.0628 7.94371 82.3916 8.59384C81.7539 9.20333 81.4182 9.97536 81.3847 10.9099H81.2336ZM78.364 10.9099H78.213C78.1794 9.97536 77.827 9.20333 77.1558 8.59384C76.5181 7.94371 75.7293 7.61865 74.7896 7.61865C74.756 7.61865 74.6218 7.61865 74.3868 7.61865C74.1854 7.61865 74.0847 7.61865 74.0847 7.61865V7.00916H78.364V10.9099Z" fill="black"/>
<path d="M107.812 7.00916C111.135 7.00916 114.005 7.74055 116.421 9.20333C118.838 10.6661 120.7 12.779 122.009 15.542C123.318 18.2644 123.973 21.5151 123.973 25.2939C123.973 29.0728 123.318 32.3234 122.009 35.0458C120.7 37.7682 118.838 39.8811 116.421 41.3845C114.005 42.8473 111.135 43.5787 107.812 43.5787H97.0889L96.9883 41.7502C99.3377 41.7502 101.301 41.7502 102.879 41.7502C104.49 41.7502 105.715 41.7502 106.554 41.7502C107.393 41.7502 107.812 41.7502 107.812 41.7502C111.706 41.7502 114.76 40.2874 116.975 37.3619C119.224 34.3957 120.348 30.373 120.348 25.2939C120.348 20.2148 119.224 16.2125 116.975 13.2869C114.76 10.3207 111.706 8.83763 107.812 8.83763C107.812 8.83763 107.376 8.83763 106.503 8.83763C105.631 8.83763 104.355 8.83763 102.677 8.83763C100.999 8.83763 98.9349 8.83763 96.4848 8.83763V7.00916H107.812ZM97.7938 7.00916V43.5787H94.5214V7.00916H97.7938ZM94.6221 39.617V43.5787H90.9973V42.9692C90.9973 42.9692 91.098 42.9692 91.2993 42.9692C91.5343 42.9692 91.6518 42.9692 91.6518 42.9692C92.4573 42.9692 93.1285 42.6441 93.6655 41.994C94.2025 41.3032 94.4878 40.5109 94.5214 39.617H94.6221ZM94.6221 10.9709H94.5214C94.4878 9.99567 94.1858 9.20333 93.6152 8.59384C93.0782 7.94371 92.4069 7.61865 91.6014 7.61865C91.6014 7.61865 91.5007 7.61865 91.2993 7.61865C91.098 7.61865 90.9973 7.61865 90.9973 7.61865V7.00916H94.6221V10.9709Z" fill="black"/>
<path d="M142.656 6.15587L156.501 43.213H152.524L141.801 11.5803L142.656 6.15587ZM132.94 39.1294C132.571 40.3484 132.621 41.3032 133.091 41.994C133.561 42.6441 134.098 42.9692 134.702 42.9692H135.105V43.5787H125.489V42.9692C125.489 42.9692 125.556 42.9692 125.69 42.9692C125.825 42.9692 125.892 42.9692 125.892 42.9692C126.597 42.9692 127.318 42.6848 128.057 42.1159C128.795 41.5064 129.433 40.5109 129.97 39.1294H132.94ZM142.656 6.15587L143.009 10.3614L131.48 43.3958H128.308L140.24 12.4336C140.24 12.4336 140.324 12.1898 140.492 11.7023C140.693 11.2147 140.911 10.6255 141.146 9.93472C141.415 9.20333 141.65 8.49226 141.851 7.8015C142.052 7.11074 142.17 6.5622 142.203 6.15587H142.656ZM148.597 29.3775V31.206H135.256V29.3775H148.597ZM151.165 39.1294H154.991C155.494 40.5109 156.115 41.5064 156.853 42.1159C157.592 42.6848 158.297 42.9692 158.968 42.9692C158.968 42.9692 159.035 42.9692 159.169 42.9692C159.304 42.9692 159.371 42.9692 159.371 42.9692V43.5787H149.05V42.9692H149.453C150.023 42.9692 150.544 42.6441 151.014 41.994C151.483 41.3032 151.534 40.3484 151.165 39.1294Z" fill="black"/>
<path d="M173.27 23.1607L186.41 40.4703C186.98 41.2829 187.585 41.8924 188.222 42.2988C188.86 42.7051 189.716 42.9286 190.79 42.9692V43.5787H188.927C188.524 43.5787 188.021 43.5584 187.417 43.5177C186.846 43.4365 186.209 43.2943 185.504 43.0911C184.832 42.8473 184.144 42.5019 183.44 42.055C182.768 41.5674 182.131 40.9172 181.527 40.1046C181.527 40.1046 181.258 39.7592 180.721 39.0684C180.218 38.3371 179.546 37.4228 178.707 36.3257C177.868 35.188 176.962 34.0097 175.989 32.7907C175.049 31.5311 174.159 30.3527 173.32 29.2556C172.481 28.1179 171.793 27.2037 171.256 26.5129C170.719 25.7815 170.451 25.4158 170.451 25.4158L173.27 23.1607ZM186.712 7.4358L172.817 25.4158H170.451L183.087 7.4358H186.712ZM189.984 7.00916V7.61865H189.783C188.743 7.61865 187.769 7.82181 186.863 8.22814C185.99 8.63447 185.269 9.24396 184.698 10.0566L181.275 9.99567C181.644 9.42681 181.694 8.89859 181.426 8.41099C181.191 7.88276 180.771 7.61865 180.167 7.61865H179.714V7.00916H189.984ZM168.689 7.00916V43.5787H165.467V7.00916H168.689ZM165.567 39.6779V43.5787H161.892V42.9692C161.892 42.9692 161.993 42.9692 162.194 42.9692C162.396 42.9692 162.496 42.9692 162.496 42.9692C163.302 42.9692 163.99 42.6441 164.56 41.994C165.131 41.3439 165.433 40.5719 165.467 39.6779H165.567ZM168.538 39.6779H168.689C168.689 40.5719 168.974 41.3439 169.545 41.994C170.115 42.6441 170.82 42.9692 171.659 42.9692C171.659 42.9692 171.743 42.9692 171.911 42.9692C172.112 42.9692 172.213 42.9692 172.213 42.9692V43.5787H168.538V39.6779ZM168.538 10.9099V7.00916H172.213V7.61865C172.213 7.61865 172.112 7.61865 171.911 7.61865C171.743 7.61865 171.642 7.61865 171.609 7.61865C170.803 7.61865 170.115 7.94371 169.545 8.59384C168.974 9.20333 168.689 9.97536 168.689 10.9099H168.538ZM165.567 10.9099H165.467C165.433 9.97536 165.131 9.20333 164.56 8.59384C163.99 7.94371 163.302 7.61865 162.496 7.61865C162.496 7.61865 162.396 7.61865 162.194 7.61865C161.993 7.61865 161.892 7.61865 161.892 7.61865V7.00916H165.567V10.9099Z" fill="black"/>
<path d="M221.853 7.00916V43.5787H218.631V7.00916H221.853ZM200.054 7.00916V43.5787H196.832V7.00916H200.054ZM219.135 24.6235V26.452H199.501V24.6235H219.135ZM196.983 39.6779V43.5787H193.308V42.9692C193.308 42.9692 193.409 42.9692 193.61 42.9692C193.812 42.9692 193.912 42.9692 193.912 42.9692C194.718 42.9692 195.389 42.6441 195.926 41.994C196.497 41.3439 196.799 40.5719 196.832 39.6779H196.983ZM199.903 39.6779H200.054C200.054 40.5719 200.34 41.3439 200.91 41.994C201.481 42.6441 202.169 42.9692 202.974 42.9692C202.974 42.9692 203.075 42.9692 203.276 42.9692C203.478 42.9692 203.578 42.9692 203.578 42.9692V43.5787H199.903V39.6779ZM199.903 10.9099V7.00916H203.578V7.61865C203.578 7.61865 203.478 7.61865 203.276 7.61865C203.075 7.61865 202.974 7.61865 202.974 7.61865C202.169 7.61865 201.481 7.94371 200.91 8.59384C200.34 9.20333 200.054 9.97536 200.054 10.9099H199.903ZM196.983 10.9099H196.832C196.799 9.97536 196.497 9.20333 195.926 8.59384C195.389 7.94371 194.718 7.61865 193.912 7.61865C193.912 7.61865 193.812 7.61865 193.61 7.61865C193.409 7.61865 193.308 7.61865 193.308 7.61865V7.00916H196.983V10.9099ZM218.782 39.6779V43.5787H215.107V42.9692C215.107 42.9692 215.208 42.9692 215.409 42.9692C215.611 42.9692 215.711 42.9692 215.711 42.9692C216.517 42.9692 217.188 42.6441 217.725 41.994C218.296 41.3439 218.598 40.5719 218.631 39.6779H218.782ZM221.702 39.6779H221.853C221.887 40.5719 222.172 41.3439 222.709 41.994C223.28 42.6441 223.968 42.9692 224.773 42.9692C224.773 42.9692 224.874 42.9692 225.075 42.9692C225.277 42.9692 225.378 42.9692 225.378 42.9692V43.5787H221.702V39.6779ZM221.702 10.9099V7.00916H225.378V7.61865C225.378 7.61865 225.277 7.61865 225.075 7.61865C224.874 7.61865 224.773 7.61865 224.773 7.61865C223.968 7.61865 223.28 7.94371 222.709 8.59384C222.172 9.20333 221.887 9.97536 221.853 10.9099H221.702ZM218.782 10.9099H218.631C218.598 9.97536 218.296 9.20333 217.725 8.59384C217.188 7.94371 216.517 7.61865 215.711 7.61865C215.711 7.61865 215.611 7.61865 215.409 7.61865C215.208 7.61865 215.107 7.61865 215.107 7.61865V7.00916H218.782V10.9099Z" fill="black"/>
<path d="M245.017 6.15587L258.861 43.213H254.884L244.161 11.5803L245.017 6.15587ZM235.3 39.1294C234.931 40.3484 234.981 41.3032 235.451 41.994C235.921 42.6441 236.458 42.9692 237.062 42.9692H237.465V43.5787H227.849V42.9692C227.849 42.9692 227.916 42.9692 228.051 42.9692C228.185 42.9692 228.252 42.9692 228.252 42.9692C228.957 42.9692 229.678 42.6848 230.417 42.1159C231.155 41.5064 231.793 40.5109 232.33 39.1294H235.3ZM245.017 6.15587L245.369 10.3614L233.84 43.3958H230.668L242.6 12.4336C242.6 12.4336 242.684 12.1898 242.852 11.7023C243.053 11.2147 243.271 10.6255 243.506 9.93472C243.775 9.20333 244.01 8.49226 244.211 7.8015C244.412 7.11074 244.53 6.5622 244.563 6.15587H245.017ZM250.957 29.3775V31.206H237.616V29.3775H250.957ZM253.525 39.1294H257.351C257.854 40.5109 258.475 41.5064 259.214 42.1159C259.952 42.6848 260.657 42.9692 261.328 42.9692C261.328 42.9692 261.395 42.9692 261.529 42.9692C261.664 42.9692 261.731 42.9692 261.731 42.9692V43.5787H251.41V42.9692H251.813C252.384 42.9692 252.904 42.6441 253.374 41.994C253.844 41.3032 253.894 40.3484 253.525 39.1294Z" fill="black"/>
<path d="M266.921 6.09492L294.811 37.9104L295.315 44.432L267.424 12.4336L266.921 6.09492ZM267.021 39.7998V43.5787H263.246V42.9692C263.246 42.9692 263.38 42.9692 263.648 42.9692C263.95 42.9692 264.101 42.9692 264.101 42.9692C264.873 42.9692 265.528 42.6644 266.065 42.055C266.602 41.4455 266.87 40.6938 266.87 39.7998H267.021ZM269.136 39.7998C269.136 40.6938 269.404 41.4455 269.941 42.055C270.512 42.6644 271.166 42.9692 271.905 42.9692C271.905 42.9692 272.039 42.9692 272.307 42.9692C272.61 42.9692 272.761 42.9692 272.761 42.9692V43.5787H268.985V39.7998H269.136ZM266.921 6.09492L269.085 9.50808L269.136 43.5787H266.87V13.7136C266.87 11.6413 266.786 9.85346 266.619 8.35004C266.484 6.84663 266.417 6.09492 266.417 6.09492H266.921ZM295.315 7.00916V36.6305C295.315 37.9307 295.348 39.1903 295.415 40.4093C295.483 41.5877 295.55 42.5629 295.617 43.3349C295.718 44.0663 295.768 44.432 295.768 44.432H295.315L293.1 41.2017V7.00916H295.315ZM295.164 10.788V7.00916H298.94V7.61865C298.94 7.61865 298.789 7.61865 298.486 7.61865C298.218 7.61865 298.084 7.61865 298.084 7.61865C297.345 7.61865 296.691 7.9234 296.12 8.53289C295.583 9.14238 295.315 9.89409 295.315 10.788H295.164ZM293.1 10.788C293.066 9.89409 292.781 9.14238 292.244 8.53289C291.707 7.9234 291.052 7.61865 290.28 7.61865C290.28 7.61865 290.129 7.61865 289.827 7.61865C289.559 7.61865 289.425 7.61865 289.425 7.61865V7.00916H293.2V10.788H293.1Z" fill="black"/>
<path d="M320.301 7.00916C323.623 7.00916 326.493 7.74055 328.909 9.20333C331.326 10.6661 333.189 12.779 334.498 15.542C335.807 18.2644 336.461 21.5151 336.461 25.2939C336.461 29.0728 335.807 32.3234 334.498 35.0458C333.189 37.7682 331.326 39.8811 328.909 41.3845C326.493 42.8473 323.623 43.5787 320.301 43.5787H309.577L309.476 41.7502C311.826 41.7502 313.789 41.7502 315.367 41.7502C316.978 41.7502 318.203 41.7502 319.042 41.7502C319.881 41.7502 320.301 41.7502 320.301 41.7502C324.194 41.7502 327.248 40.2874 329.463 37.3619C331.712 34.3957 332.836 30.373 332.836 25.2939C332.836 20.2148 331.712 16.2125 329.463 13.2869C327.248 10.3207 324.194 8.83763 320.301 8.83763C320.301 8.83763 319.864 8.83763 318.992 8.83763C318.119 8.83763 316.844 8.83763 315.165 8.83763C313.487 8.83763 311.423 8.83763 308.973 8.83763V7.00916H320.301ZM310.282 7.00916V43.5787H307.01V7.00916H310.282ZM307.11 39.617V43.5787H303.486V42.9692C303.486 42.9692 303.586 42.9692 303.788 42.9692C304.023 42.9692 304.14 42.9692 304.14 42.9692C304.946 42.9692 305.617 42.6441 306.154 41.994C306.691 41.3032 306.976 40.5109 307.01 39.617H307.11ZM307.11 10.9709H307.01C306.976 9.99567 306.674 9.20333 306.103 8.59384C305.566 7.94371 304.895 7.61865 304.09 7.61865C304.09 7.61865 303.989 7.61865 303.788 7.61865C303.586 7.61865 303.486 7.61865 303.486 7.61865V7.00916H307.11V10.9709Z" fill="black"/>
<path d="M348.153 0.914237V43.5787H344.88V0.914237H348.153ZM345.031 39.1294V43.5787H341.004V42.9692C341.004 42.9692 341.104 42.9692 341.306 42.9692C341.541 42.9692 341.658 42.9692 341.658 42.9692C342.531 42.9692 343.269 42.6035 343.873 41.8721C344.511 41.1001 344.847 40.1858 344.88 39.1294H345.031ZM345.031 5.36353H344.88C344.847 4.30708 344.511 3.41316 343.873 2.68177C343.269 1.90974 342.531 1.52373 341.658 1.52373C341.658 1.52373 341.541 1.52373 341.306 1.52373C341.104 1.52373 341.004 1.52373 341.004 1.52373V0.914237H345.031V5.36353ZM348.002 39.1294H348.153C348.186 40.1858 348.505 41.1001 349.109 41.8721C349.747 42.6035 350.502 42.9692 351.375 42.9692C351.375 42.9692 351.475 42.9692 351.677 42.9692C351.878 42.9692 351.996 42.9692 352.029 42.9692V43.5787H348.002V39.1294ZM348.002 5.36353V0.914237H352.029V1.52373C351.996 1.52373 351.878 1.52373 351.677 1.52373C351.475 1.52373 351.375 1.52373 351.375 1.52373C350.502 1.52373 349.747 1.90974 349.109 2.68177C348.505 3.41316 348.186 4.30708 348.153 5.36353H348.002Z" fill="black"/>
<path d="M403.325 25.7815L402.72 35.3505C401.848 37.0978 400.74 38.6621 399.398 40.0436C398.089 41.3845 396.528 42.4613 394.716 43.2739C392.937 44.046 390.889 44.432 388.574 44.432C385.083 44.3913 381.979 43.4568 379.26 41.6283C376.541 39.7998 374.41 37.24 372.866 33.9487C371.356 30.6168 370.601 26.6958 370.601 22.1855C370.601 17.7565 371.356 13.8964 372.866 10.6052C374.377 7.27327 376.491 4.69309 379.21 2.86461C381.962 0.995503 385.184 0.0609484 388.876 0.0609484C391.359 0.0609484 393.591 0.467277 395.572 1.27994C397.585 2.05196 399.331 3.02715 400.807 4.2055L401.814 12.7993H401.361C400.623 9.22365 399.112 6.52156 396.83 4.69309C394.548 2.82398 391.896 1.88943 388.876 1.88943C385.922 1.88943 383.355 2.74272 381.173 4.44929C379.025 6.11524 377.347 8.47194 376.139 11.5194C374.964 14.5262 374.377 18.0613 374.377 22.1246C374.377 26.1878 374.964 29.7432 376.139 32.7907C377.347 35.8381 379.008 38.2152 381.123 39.9217C383.271 41.6283 385.754 42.5222 388.574 42.6035C390.957 42.6035 393.155 42.0753 395.169 41.0188C397.216 39.9217 398.928 38.1542 400.304 35.7162C401.68 33.2376 402.553 29.9261 402.922 25.7815H403.325Z" fill="black"/>
<path d="M425.313 6.15587C427.663 6.15587 429.861 6.62315 431.908 7.5577C433.989 8.45162 435.802 9.75188 437.345 11.4585C438.923 13.165 440.148 15.1967 441.021 17.5534C441.893 19.8694 442.33 22.4496 442.33 25.2939C442.33 28.1382 441.893 30.7387 441.021 33.0954C440.148 35.4115 438.923 37.4228 437.345 39.1294C435.802 40.836 433.989 42.1565 431.908 43.0911C429.861 43.985 427.663 44.432 425.313 44.432C422.964 44.432 420.765 43.985 418.718 43.0911C416.671 42.1565 414.858 40.836 413.281 39.1294C411.737 37.4228 410.529 35.4115 409.656 33.0954C408.783 30.7387 408.347 28.1382 408.347 25.2939C408.347 22.4496 408.783 19.8694 409.656 17.5534C410.529 15.1967 411.737 13.165 413.281 11.4585C414.858 9.75188 416.671 8.45162 418.718 7.5577C420.765 6.62315 422.964 6.15587 425.313 6.15587ZM425.313 42.6035C427.797 42.6035 430.046 41.8721 432.059 40.4093C434.073 38.9465 435.667 36.9149 436.842 34.3144C438.017 31.7139 438.604 28.7071 438.604 25.2939C438.604 21.8401 438.017 18.8333 436.842 16.2734C435.667 13.6729 434.073 11.6413 432.059 10.1785C430.046 8.71574 427.797 7.98435 425.313 7.98435C422.863 7.98435 420.631 8.71574 418.617 10.1785C416.604 11.6413 415.009 13.6729 413.835 16.2734C412.66 18.8333 412.073 21.8401 412.073 25.2939C412.073 28.7071 412.66 31.7139 413.835 34.3144C415.009 36.9149 416.604 38.9465 418.617 40.4093C420.631 41.8721 422.863 42.6035 425.313 42.6035Z" fill="black"/>
<path d="M479.466 6.15587L479.919 10.1176L468.138 38.2152C468.138 38.2152 468.004 38.5605 467.736 39.2513C467.501 39.9421 467.249 40.775 466.981 41.7502C466.712 42.6848 466.511 43.5787 466.376 44.432H465.873L465.168 40.5922L479.466 6.15587ZM449.964 39.4951V43.5787H444.728V42.9692C444.728 42.9692 444.846 42.9692 445.081 42.9692C445.349 42.9692 445.484 42.9692 445.484 42.9692C446.356 42.9692 447.111 42.6644 447.749 42.055C448.42 41.4455 448.806 40.5922 448.907 39.4951H449.964ZM451.474 40.4093C451.441 41.0188 451.558 41.608 451.827 42.1769C452.095 42.7051 452.599 42.9895 453.337 43.0301H454.042V43.5787H451.172V40.4093H451.474ZM452.834 6.15587H453.337L454.344 9.75187L451.223 43.5787H448.454L452.834 6.15587ZM453.337 6.15587L467.031 38.0323L465.873 44.432L452.381 12.8603L453.337 6.15587ZM479.919 6.15587L484.45 43.5787H480.624L477.351 12.9212L479.466 6.15587H479.919ZM482.94 39.4951H483.947C484.081 40.5922 484.484 41.4455 485.155 42.055C485.826 42.6644 486.581 42.9692 487.42 42.9692C487.42 42.9692 487.538 42.9692 487.773 42.9692C488.041 42.9692 488.175 42.9692 488.175 42.9692V43.5787H482.94V39.4951ZM480.271 40.4093H480.624V43.5787H477.704V43.0301H478.459C479.231 42.9895 479.734 42.6848 479.969 42.1159C480.238 41.547 480.339 40.9782 480.271 40.4093Z" fill="black"/>
<path d="M523.665 6.15587L524.118 10.1176L512.337 38.2152C512.337 38.2152 512.203 38.5605 511.934 39.2513C511.699 39.9421 511.448 40.775 511.179 41.7502C510.911 42.6848 510.709 43.5787 510.575 44.432H510.072L509.367 40.5922L523.665 6.15587ZM494.163 39.4951V43.5787H488.927V42.9692C488.927 42.9692 489.045 42.9692 489.279 42.9692C489.548 42.9692 489.682 42.9692 489.682 42.9692C490.555 42.9692 491.31 42.6644 491.948 42.055C492.619 41.4455 493.005 40.5922 493.106 39.4951H494.163ZM495.673 40.4093C495.64 41.0188 495.757 41.608 496.026 42.1769C496.294 42.7051 496.798 42.9895 497.536 43.0301H498.241V43.5787H495.371V40.4093H495.673ZM497.033 6.15587H497.536L498.543 9.75187L495.422 43.5787H492.653L497.033 6.15587ZM497.536 6.15587L511.23 38.0323L510.072 44.432L496.579 12.8603L497.536 6.15587ZM524.118 6.15587L528.649 43.5787H524.823L521.55 12.9212L523.665 6.15587H524.118ZM527.138 39.4951H528.145C528.28 40.5922 528.682 41.4455 529.354 42.055C530.025 42.6644 530.78 42.9692 531.619 42.9692C531.619 42.9692 531.737 42.9692 531.971 42.9692C532.24 42.9692 532.374 42.9692 532.374 42.9692V43.5787H527.138V39.4951ZM524.47 40.4093H524.823V43.5787H521.903V43.0301H522.658C523.43 42.9895 523.933 42.6848 524.168 42.1159C524.437 41.547 524.537 40.9782 524.47 40.4093Z" fill="black"/>
<path d="M540.885 7.00916V30.048C540.885 33.9893 541.707 37.0978 543.352 39.3732C545.03 41.6486 547.312 42.7863 550.198 42.7863C553.387 42.7863 555.887 41.7096 557.7 39.556C559.546 37.4025 560.469 34.4566 560.469 30.7184V7.00916H562.785V30.7184C562.785 34.9442 561.66 38.2964 559.411 40.775C557.196 43.213 554.142 44.432 550.249 44.432C546.389 44.432 543.318 43.213 541.036 40.775C538.787 38.3371 537.663 35.0052 537.663 30.7794V7.00916H540.885ZM537.763 7.00916V10.2395H537.663C537.629 9.50808 537.377 8.89859 536.908 8.41099C536.471 7.88276 535.917 7.61865 535.246 7.61865C535.246 7.61865 535.112 7.61865 534.843 7.61865C534.608 7.61865 534.491 7.61865 534.491 7.61865V7.00916H537.763ZM544.056 7.00916V7.61865C544.056 7.61865 543.922 7.61865 543.654 7.61865C543.419 7.61865 543.301 7.61865 543.301 7.61865C542.664 7.61865 542.093 7.88276 541.59 8.41099C541.12 8.89859 540.885 9.50808 540.885 10.2395H540.784V7.00916H544.056ZM560.569 7.00916V10.2395H560.469C560.469 9.50808 560.234 8.89859 559.764 8.41099C559.294 7.88276 558.723 7.61865 558.052 7.61865C558.052 7.61865 557.918 7.61865 557.649 7.61865C557.414 7.61865 557.297 7.61865 557.297 7.61865V7.00916H560.569ZM565.956 7.00916V7.61865C565.956 7.61865 565.822 7.61865 565.553 7.61865C565.319 7.61865 565.201 7.61865 565.201 7.61865C564.563 7.61865 564.01 7.88276 563.54 8.41099C563.07 8.89859 562.818 9.50808 562.785 10.2395H562.684V7.00916H565.956Z" fill="black"/>
<path d="M573.165 6.09492L601.056 37.9104L601.559 44.432L573.669 12.4336L573.165 6.09492ZM573.266 39.7998V43.5787H569.49V42.9692C569.49 42.9692 569.624 42.9692 569.893 42.9692C570.195 42.9692 570.346 42.9692 570.346 42.9692C571.118 42.9692 571.772 42.6644 572.309 42.055C572.846 41.4455 573.115 40.6938 573.115 39.7998H573.266ZM575.38 39.7998C575.38 40.6938 575.649 41.4455 576.186 42.055C576.756 42.6644 577.411 42.9692 578.149 42.9692C578.149 42.9692 578.284 42.9692 578.552 42.9692C578.854 42.9692 579.005 42.9692 579.005 42.9692V43.5787H575.229V39.7998H575.38ZM573.165 6.09492L575.33 9.50808L575.38 43.5787H573.115V13.7136C573.115 11.6413 573.031 9.85346 572.863 8.35004C572.729 6.84663 572.662 6.09492 572.662 6.09492H573.165ZM601.559 7.00916V36.6305C601.559 37.9307 601.593 39.1903 601.66 40.4093C601.727 41.5877 601.794 42.5629 601.862 43.3349C601.962 44.0663 602.013 44.432 602.013 44.432H601.559L599.344 41.2017V7.00916H601.559ZM601.408 10.788V7.00916H605.184V7.61865C605.184 7.61865 605.033 7.61865 604.731 7.61865C604.463 7.61865 604.328 7.61865 604.328 7.61865C603.59 7.61865 602.936 7.9234 602.365 8.53289C601.828 9.14238 601.559 9.89409 601.559 10.788H601.408ZM599.344 10.788C599.311 9.89409 599.025 9.14238 598.488 8.53289C597.951 7.9234 597.297 7.61865 596.525 7.61865C596.525 7.61865 596.374 7.61865 596.072 7.61865C595.803 7.61865 595.669 7.61865 595.669 7.61865V7.00916H599.445V10.788H599.344Z" fill="black"/>
<path d="M617.03 7.00916V43.5787H613.858V7.00916H617.03ZM614.009 39.6779V43.5787H609.73V42.9692C609.73 42.9692 609.848 42.9692 610.083 42.9692C610.317 42.9692 610.435 42.9692 610.435 42.9692C611.375 42.9692 612.163 42.6441 612.801 41.994C613.472 41.3439 613.825 40.5719 613.858 39.6779H614.009ZM616.879 39.6779H617.03C617.064 40.5719 617.399 41.3439 618.037 41.994C618.708 42.6441 619.514 42.9692 620.453 42.9692C620.453 42.9692 620.554 42.9692 620.756 42.9692C620.991 42.9692 621.108 42.9692 621.108 42.9692L621.158 43.5787H616.879V39.6779ZM616.879 10.9099V7.00916H621.158L621.108 7.61865C621.108 7.61865 620.991 7.61865 620.756 7.61865C620.554 7.61865 620.453 7.61865 620.453 7.61865C619.514 7.61865 618.708 7.94371 618.037 8.59384C617.399 9.20333 617.064 9.97536 617.03 10.9099H616.879ZM614.009 10.9099H613.858C613.825 9.97536 613.472 9.20333 612.801 8.59384C612.163 7.94371 611.375 7.61865 610.435 7.61865C610.401 7.61865 610.267 7.61865 610.032 7.61865C609.831 7.61865 609.73 7.61865 609.73 7.61865V7.00916H614.009V10.9099Z" fill="black"/>
<path d="M640.085 7.19201V43.5787H636.812V7.19201H640.085ZM652.268 6.94821V8.77669H624.629V6.94821H652.268ZM652.268 8.65479V12.8603H651.714V11.8851C651.714 11.0318 651.479 10.3207 651.009 9.75187C650.573 9.14238 649.969 8.81732 649.197 8.77669V8.65479H652.268ZM652.268 5.97302V7.5577L646.629 6.94821C647.301 6.94821 648.005 6.90758 648.744 6.82631C649.516 6.70441 650.221 6.5622 650.858 6.39967C651.496 6.23714 651.966 6.09492 652.268 5.97302ZM636.913 39.6779V43.5787H633.238V42.9692C633.271 42.9692 633.372 42.9692 633.54 42.9692C633.741 42.9692 633.842 42.9692 633.842 42.9692C634.647 42.9692 635.335 42.6441 635.906 41.994C636.477 41.3439 636.779 40.5719 636.812 39.6779H636.913ZM639.934 39.6779H640.085C640.118 40.5719 640.42 41.3439 640.991 41.994C641.561 42.6441 642.249 42.9692 643.055 42.9692C643.055 42.9692 643.139 42.9692 643.307 42.9692C643.508 42.9692 643.609 42.9692 643.609 42.9692V43.5787H639.934V39.6779ZM627.7 8.65479V8.77669C626.928 8.81732 626.307 9.14238 625.837 9.75187C625.401 10.3207 625.183 11.0318 625.183 11.8851V12.8603H624.629V8.65479H627.7ZM624.629 5.97302C624.931 6.09492 625.384 6.23714 625.988 6.39967C626.626 6.5622 627.331 6.70441 628.103 6.82631C628.875 6.90758 629.596 6.94821 630.267 6.94821L624.629 7.5577V5.97302Z" fill="black"/>
<path d="M660.531 0.975186L670.398 23.2216L668.233 25.3549L656.201 0.975186H660.531ZM671.103 23.953V43.5787H667.831V23.953H671.103ZM680.064 0.975186H683.135L670.751 25.233L668.938 24.5625L680.064 0.975186ZM678 5.30258C678.302 4.73372 678.386 4.16486 678.252 3.596C678.118 2.98651 677.866 2.49892 677.497 2.13322C677.127 1.72689 676.708 1.52373 676.238 1.52373C676.238 1.52373 676.137 1.52373 675.936 1.52373C675.735 1.52373 675.634 1.52373 675.634 1.52373V0.914237H686.81V1.52373H686.106C685.065 1.52373 684.092 1.88942 683.186 2.62081C682.279 3.35221 681.558 4.18518 681.021 5.11973L678 5.30258ZM662.444 5.30258L658.215 5.11973C657.745 4.18518 657.057 3.35221 656.151 2.62081C655.245 1.88942 654.254 1.52373 653.18 1.52373H652.476V0.914237H664.86V1.52373C664.86 1.52373 664.743 1.52373 664.508 1.52373C664.307 1.52373 664.206 1.52373 664.206 1.52373C663.467 1.52373 662.897 1.95037 662.494 2.80366C662.125 3.61632 662.108 4.44929 662.444 5.30258ZM667.931 39.1294V43.5787H663.954V42.9692C663.954 42.9692 664.055 42.9692 664.256 42.9692C664.458 42.9692 664.575 42.9692 664.609 42.9692C665.481 42.9692 666.22 42.6035 666.824 41.8721C667.461 41.1001 667.797 40.1858 667.831 39.1294H667.931ZM670.952 39.1294H671.103C671.103 40.1858 671.422 41.1001 672.06 41.8721C672.697 42.6035 673.452 42.9692 674.325 42.9692C674.325 42.9692 674.426 42.9692 674.627 42.9692C674.828 42.9692 674.929 42.9692 674.929 42.9692V43.5787H670.952V39.1294Z" fill="black"/>
<path d="M705.193 0L734.443 37.7885L734.896 44.432L705.646 6.70441L705.193 0ZM705.293 39.2513V43.5787H701.115V42.9692C701.115 42.9692 701.266 42.9692 701.568 42.9692C701.87 42.9692 702.038 42.9692 702.071 42.9692C702.91 42.9692 703.632 42.6035 704.236 41.8721C704.84 41.1407 705.142 40.2671 705.142 39.2513H705.293ZM707.458 39.2513C707.458 40.2671 707.76 41.1407 708.364 41.8721C708.969 42.6035 709.69 42.9692 710.529 42.9692C710.563 42.9692 710.731 42.9692 711.033 42.9692C711.335 42.9692 711.486 42.9692 711.486 42.9692V43.5787H707.307V39.2513H707.458ZM705.193 0L707.408 3.41316L707.458 43.5787H705.142V7.61865C705.142 5.54638 705.058 3.75853 704.891 2.25512C704.756 0.751707 704.689 0 704.689 0H705.193ZM734.896 0.914237V36.6305C734.896 37.9307 734.929 39.1903 734.997 40.4093C735.064 41.5877 735.131 42.5629 735.198 43.3349C735.299 44.0663 735.349 44.432 735.349 44.432H734.896L732.63 41.2017V0.914237H734.896ZM738.923 0.914237V1.52373C738.923 1.52373 738.772 1.52373 738.47 1.52373C738.168 1.52373 738.017 1.52373 738.017 1.52373C737.178 1.52373 736.457 1.88942 735.852 2.62081C735.248 3.31157 734.929 4.18518 734.896 5.24163H734.745V0.914237H738.923ZM728.552 0.914237H732.731V5.24163H732.63C732.597 4.18518 732.278 3.31157 731.674 2.62081C731.103 1.88942 730.382 1.52373 729.509 1.52373C729.509 1.52373 729.358 1.52373 729.056 1.52373C728.754 1.52373 728.586 1.52373 728.552 1.52373V0.914237Z" fill="black"/>
<path d="M750.304 7.00916V43.5787H747.082V7.00916H750.304ZM763.847 41.6893L763.746 43.5787H750.203V41.6893H763.847ZM761.48 24.3797V26.2082H750.203V24.3797H761.48ZM763.796 7.00916V8.89859H750.203V7.00916H763.796ZM766.666 34.8629L763.897 43.5787H756.245L757.956 41.6893C759.634 41.6893 760.977 41.4048 761.984 40.836C763.024 40.2265 763.863 39.4138 764.501 38.398C765.139 37.3416 765.693 36.1632 766.162 34.8629H766.666ZM761.48 26.0863V29.5604H760.927V28.768C760.927 28.0773 760.759 27.4881 760.423 27.0005C760.088 26.4723 759.567 26.2082 758.862 26.2082V26.0863H761.48ZM761.48 21.0275V24.5016H758.862V24.3797C759.567 24.3797 760.088 24.1359 760.423 23.6483C760.759 23.1201 760.927 22.5106 760.927 21.8198V21.0275H761.48ZM763.796 8.71574V12.9212H763.242V12.007C763.242 11.1537 763.007 10.4223 762.538 9.81282C762.101 9.20333 761.497 8.89859 760.725 8.89859V8.71574H763.796ZM763.796 6.03397V7.61865L758.057 7.00916C759.097 7.00916 760.205 6.90758 761.38 6.70441C762.554 6.46062 763.36 6.23714 763.796 6.03397ZM747.183 39.6779L747.837 43.5787H743.457V42.9692C743.457 42.9692 743.575 42.9692 743.81 42.9692C744.044 42.9692 744.162 42.9692 744.162 42.9692C745.001 42.9692 745.689 42.6441 746.226 41.994C746.763 41.3439 747.048 40.5719 747.082 39.6779H747.183ZM747.183 10.849H747.082C747.048 9.91441 746.763 9.14238 746.226 8.53289C745.689 7.9234 745.001 7.61865 744.162 7.61865C744.162 7.61865 744.044 7.61865 743.81 7.61865C743.575 7.61865 743.457 7.61865 743.457 7.61865V7.00916H747.837L747.183 10.849Z" fill="black"/>
<path d="M784.382 7.19201V43.5787H781.11V7.19201H784.382ZM796.565 6.94821V8.77669H768.926V6.94821H796.565ZM796.565 8.65479V12.8603H796.011V11.8851C796.011 11.0318 795.776 10.3207 795.307 9.75187C794.87 9.14238 794.266 8.81732 793.494 8.77669V8.65479H796.565ZM796.565 5.97302V7.5577L790.927 6.94821C791.598 6.94821 792.303 6.90758 793.041 6.82631C793.813 6.70441 794.518 6.5622 795.156 6.39967C795.793 6.23714 796.263 6.09492 796.565 5.97302ZM781.21 39.6779V43.5787H777.535V42.9692C777.569 42.9692 777.669 42.9692 777.837 42.9692C778.039 42.9692 778.139 42.9692 778.139 42.9692C778.945 42.9692 779.633 42.6441 780.203 41.994C780.774 41.3439 781.076 40.5719 781.11 39.6779H781.21ZM784.231 39.6779H784.382C784.416 40.5719 784.718 41.3439 785.288 41.994C785.859 42.6441 786.547 42.9692 787.352 42.9692C787.352 42.9692 787.436 42.9692 787.604 42.9692C787.805 42.9692 787.906 42.9692 787.906 42.9692V43.5787H784.231V39.6779ZM771.997 8.65479V8.77669C771.225 8.81732 770.604 9.14238 770.134 9.75187C769.698 10.3207 769.48 11.0318 769.48 11.8851V12.8603H768.926V8.65479H771.997ZM768.926 5.97302C769.228 6.09492 769.681 6.23714 770.286 6.39967C770.923 6.5622 771.628 6.70441 772.4 6.82631C773.172 6.90758 773.894 6.94821 774.565 6.94821L768.926 7.5577V5.97302Z" fill="black"/>
<path d="M800.638 7.37485H804.665L812.821 37.4228L812.368 44.3101L800.638 7.37485ZM821.329 6.03397L821.732 10.9709L813.928 37.5447C813.928 37.5447 813.845 37.9104 813.677 38.6418C813.509 39.3326 813.324 40.2062 813.123 41.2626C812.955 42.2784 812.855 43.2943 812.821 44.3101H812.368L811.411 38.8856L820.826 6.03397H821.329ZM821.329 6.09492L830.995 35.8991L829.837 44.3101L819.617 12.6774L821.329 6.09492ZM839.856 7.37485L831.499 37.5447C831.499 37.5447 831.398 37.9104 831.197 38.6418C831.029 39.3732 830.844 40.2671 830.643 41.3236C830.475 42.3394 830.374 43.3349 830.341 44.3101H829.837L829.233 38.2761L836.986 7.37485H839.856ZM835.979 11.2756C836.348 9.97535 836.315 9.0408 835.879 8.47194C835.476 7.90308 835.006 7.61865 834.469 7.61865H834.066V7.00916H843.279V7.61865C843.279 7.61865 843.212 7.61865 843.078 7.61865C842.977 7.61865 842.927 7.61865 842.927 7.61865C841.886 7.61865 841.014 7.96403 840.309 8.65479C839.604 9.34555 839.101 10.2192 838.799 11.2756H835.979ZM805.722 11.2147L801.896 11.2756C801.561 10.2192 801.057 9.34555 800.386 8.65479C799.715 7.96403 798.842 7.61865 797.768 7.61865C797.768 7.61865 797.701 7.61865 797.567 7.61865C797.432 7.61865 797.365 7.61865 797.365 7.61865V7.00916H807.736V7.61865H807.333C806.796 7.61865 806.31 7.90308 805.873 8.47194C805.437 9.00017 805.387 9.91441 805.722 11.2147Z" fill="black"/>
<path d="M862.04 6.15587C864.389 6.15587 866.588 6.62315 868.635 7.5577C870.716 8.45162 872.528 9.75188 874.072 11.4585C875.65 13.165 876.875 15.1967 877.747 17.5534C878.62 19.8694 879.056 22.4496 879.056 25.2939C879.056 28.1382 878.62 30.7387 877.747 33.0954C876.875 35.4115 875.65 37.4228 874.072 39.1294C872.528 40.836 870.716 42.1565 868.635 43.0911C866.588 43.985 864.389 44.432 862.04 44.432C859.691 44.432 857.492 43.985 855.445 43.0911C853.398 42.1565 851.585 40.836 850.008 39.1294C848.464 37.4228 847.256 35.4115 846.383 33.0954C845.51 30.7387 845.074 28.1382 845.074 25.2939C845.074 22.4496 845.51 19.8694 846.383 17.5534C847.256 15.1967 848.464 13.165 850.008 11.4585C851.585 9.75188 853.398 8.45162 855.445 7.5577C857.492 6.62315 859.691 6.15587 862.04 6.15587ZM862.04 42.6035C864.524 42.6035 866.772 41.8721 868.786 40.4093C870.8 38.9465 872.394 36.9149 873.569 34.3144C874.743 31.7139 875.331 28.7071 875.331 25.2939C875.331 21.8401 874.743 18.8333 873.569 16.2734C872.394 13.6729 870.8 11.6413 868.786 10.1785C866.772 8.71574 864.524 7.98435 862.04 7.98435C859.59 7.98435 857.358 8.71574 855.344 10.1785C853.33 11.6413 851.736 13.6729 850.561 16.2734C849.387 18.8333 848.799 21.8401 848.799 25.2939C848.799 28.7071 849.387 31.7139 850.561 34.3144C851.736 36.9149 853.33 38.9465 855.344 40.4093C857.358 41.8721 859.59 42.6035 862.04 42.6035Z" fill="black"/>
<path d="M889.718 7.00916H896.212C897.789 7.00916 899.199 7.23264 900.441 7.6796C901.716 8.12656 902.79 8.77669 903.663 9.62997C904.569 10.4833 905.257 11.5194 905.727 12.7384C906.197 13.9574 906.432 15.3389 906.432 16.8829C906.432 18.5895 906.096 20.1742 905.425 21.637C904.754 23.0998 903.814 24.2984 902.606 25.233C901.431 26.1675 900.088 26.7364 898.578 26.9396C899.149 27.224 899.803 27.8538 900.542 28.829C901.313 29.8042 901.968 30.759 902.505 31.6936C902.505 31.6936 902.723 32.0593 903.159 32.7907C903.596 33.4814 904.15 34.355 904.821 35.4115C905.526 36.4273 906.214 37.4025 906.885 38.3371C907.59 39.2716 908.227 40.0843 908.798 40.775C909.402 41.4658 910.04 42.0143 910.711 42.4207C911.416 42.7863 912.221 42.9692 913.128 42.9692V43.5787H911.567C909.721 43.5787 908.194 43.2943 906.986 42.7254C905.811 42.1565 904.854 41.4658 904.116 40.6531C903.378 39.7998 902.74 38.9872 902.203 38.2152C902.069 38.012 901.75 37.5041 901.246 36.6914C900.776 35.8381 900.256 34.9239 899.686 33.9487C899.115 32.9735 898.595 32.0999 898.125 31.3279C897.655 30.5152 897.37 30.0276 897.269 29.8651C896.598 28.8087 895.826 27.8741 894.953 27.0614C894.081 26.2082 893.158 25.7815 892.184 25.7815V25.172C892.184 25.172 892.453 25.1923 892.99 25.233C893.527 25.233 894.215 25.2127 895.054 25.172C895.994 25.1314 896.933 25.0501 897.873 24.9282C898.813 24.7657 899.686 24.3187 900.491 23.5873C901.33 22.856 901.985 21.637 902.455 19.9304C902.589 19.4834 902.69 18.9552 902.757 18.3457C902.824 17.7362 902.841 17.1064 902.807 16.4563C902.773 15.3186 902.589 14.3027 902.253 13.4088C901.951 12.5149 901.498 11.7429 900.894 11.0928C900.323 10.4426 899.635 9.93472 898.83 9.56903C898.024 9.20333 897.118 9.00017 896.111 8.95953C894.534 8.87827 893.158 8.85795 891.983 8.89859C890.808 8.93922 890.221 8.93922 890.221 8.89859C890.221 8.85795 890.171 8.69542 890.07 8.41099C890.003 8.08593 889.919 7.78118 889.818 7.49675C889.751 7.17169 889.718 7.00916 889.718 7.00916ZM890.322 7.00916V43.5787H887.1V7.00916H890.322ZM887.251 39.6779L887.855 43.5787H883.575V42.9692C883.575 42.9692 883.693 42.9692 883.928 42.9692C884.163 42.9692 884.28 42.9692 884.28 42.9692C885.086 42.9692 885.757 42.6441 886.294 41.994C886.831 41.3439 887.116 40.5719 887.15 39.6779H887.251ZM887.251 10.849H887.15C887.116 9.91441 886.831 9.14238 886.294 8.53289C885.757 7.9234 885.086 7.61865 884.28 7.61865C884.28 7.61865 884.163 7.61865 883.928 7.61865C883.693 7.61865 883.575 7.61865 883.575 7.61865V7.00916H887.855L887.251 10.849ZM890.171 39.6779H890.322C890.355 40.5719 890.64 41.3439 891.177 41.994C891.714 42.6441 892.386 42.9692 893.191 42.9692C893.191 42.9692 893.292 42.9692 893.493 42.9692C893.728 42.9692 893.846 42.9692 893.846 42.9692L893.896 43.5787H889.566L890.171 39.6779Z" fill="black"/>
<path d="M926.92 20.1132L941.217 40.4703C941.922 41.2829 942.627 41.8924 943.332 42.2988C944.07 42.7051 944.96 42.9286 946 42.9692V43.5787H943.835C943.5 43.5787 943.013 43.5584 942.375 43.5177C941.771 43.4365 941.1 43.2943 940.361 43.0911C939.657 42.8473 938.935 42.5019 938.197 42.055C937.492 41.5674 936.854 40.9172 936.284 40.1046C936.284 40.1046 935.981 39.6779 935.377 38.8246C934.807 37.9714 934.052 36.8743 933.112 35.5334C932.206 34.1925 931.232 32.7704 930.192 31.2669C929.185 29.7229 928.212 28.2804 927.272 26.9396C926.366 25.5987 925.611 24.5016 925.006 23.6483C924.436 22.795 924.151 22.3684 924.151 22.3684L926.92 20.1132ZM941.469 1.34088L926.416 22.3684H924.151L937.995 1.34088H941.469ZM944.943 0.914237V1.46278H944.741C943.634 1.46278 942.593 1.72689 941.62 2.25512C940.68 2.78335 939.875 3.51474 939.204 4.44929L936.032 4.32739C936.468 3.63664 936.535 2.98651 936.233 2.37702C935.965 1.76753 935.495 1.46278 934.824 1.46278H934.32V0.914237H944.943ZM922.54 0.914237V43.5787H919.267V0.914237H922.54ZM919.418 39.1294V43.5787H915.391V42.9692C915.391 42.9692 915.491 42.9692 915.693 42.9692C915.928 42.9692 916.045 42.9692 916.045 42.9692C916.918 42.9692 917.656 42.6035 918.26 41.8721C918.898 41.1001 919.234 40.1858 919.267 39.1294H919.418ZM919.418 5.36353H919.267C919.234 4.30708 918.898 3.41316 918.26 2.68177C917.656 1.90974 916.918 1.52373 916.045 1.52373C916.045 1.52373 915.928 1.52373 915.693 1.52373C915.491 1.52373 915.391 1.52373 915.391 1.52373V0.914237H919.418V5.36353ZM922.389 39.1294H922.54C922.573 40.1858 922.892 41.1001 923.496 41.8721C924.134 42.6035 924.889 42.9692 925.762 42.9692C925.762 42.9692 925.862 42.9692 926.064 42.9692C926.265 42.9692 926.383 42.9692 926.416 42.9692V43.5787H922.389V39.1294ZM922.389 5.36353V0.914237H926.416V1.52373C926.383 1.52373 926.265 1.52373 926.064 1.52373C925.862 1.52373 925.762 1.52373 925.762 1.52373C924.889 1.52373 924.134 1.90974 923.496 2.68177C922.892 3.41316 922.573 4.30708 922.54 5.36353H922.389Z" fill="black"/>
<path d="M8.79346 86.2431V114.686H6.61189V86.2431H8.79346ZM16.4122 100.058V101.277H8.69278V100.058H16.4122ZM17.8554 86.2431V87.5027H8.69278V86.2431H17.8554ZM16.4122 101.196V103.878H16.0766V103.268C16.0766 102.727 15.92 102.266 15.6067 101.887C15.2935 101.48 14.9131 101.277 14.4656 101.277V101.196H16.4122ZM16.4122 97.4578V100.14H14.4656V100.058C14.9131 100.031 15.2935 99.828 15.6067 99.4488C15.92 99.0425 16.0766 98.5684 16.0766 98.0266V97.4578H16.4122ZM17.8554 87.3808V90.1033H17.5198V89.4938C17.5198 88.952 17.352 88.4915 17.0164 88.1122C16.7031 87.7059 16.3227 87.5027 15.8752 87.5027V87.3808H17.8554ZM17.8554 85.5117V86.6901L13.7608 86.2431C14.253 86.2431 14.7677 86.2025 15.3047 86.1212C15.864 86.04 16.3787 85.9452 16.8486 85.8368C17.3184 85.7284 17.6541 85.6201 17.8554 85.5117ZM6.71257 111.72V114.686H4.02754V114.28C4.02754 114.28 4.09466 114.28 4.22891 114.28C4.38554 114.28 4.46387 114.28 4.46387 114.28C5.04562 114.28 5.53787 114.036 5.94063 113.548C6.36576 113.034 6.58951 112.424 6.61189 111.72H6.71257ZM6.71257 89.2093H6.61189C6.61189 88.505 6.39931 87.9091 5.97418 87.4215C5.54905 86.9068 5.04562 86.6495 4.46387 86.6495C4.46387 86.6495 4.39674 86.6495 4.26248 86.6495C4.12823 86.6495 4.0611 86.6495 4.0611 86.6495L4.02754 86.2431H6.71257V89.2093ZM8.69278 111.72H8.79346C8.81584 112.424 9.02841 113.034 9.43117 113.548C9.8563 114.036 10.3597 114.28 10.9415 114.28C10.9415 114.28 11.0086 114.28 11.1429 114.28C11.2771 114.28 11.3554 114.28 11.3778 114.28V114.686H8.69278V111.72Z" fill="black"/>
<path d="M26.9515 86.2431V114.686H24.7699V86.2431H26.9515ZM24.8706 111.72V114.686H22.1856V114.28C22.1856 114.28 22.2527 114.28 22.3869 114.28C22.5436 114.28 22.6219 114.28 22.6219 114.28C23.2036 114.28 23.6959 114.036 24.0987 113.548C24.5238 113.034 24.7475 112.424 24.7699 111.72H24.8706ZM24.8706 89.2093H24.7699C24.7475 88.505 24.5238 87.9091 24.0987 87.4215C23.6959 86.9068 23.2036 86.6495 22.6219 86.6495C22.6219 86.6495 22.5436 86.6495 22.3869 86.6495C22.2527 86.6495 22.1856 86.6495 22.1856 86.6495V86.2431H24.8706V89.2093ZM26.8508 111.72H26.9515C26.9739 112.424 27.1864 113.034 27.5892 113.548C28.0143 114.036 28.5178 114.28 29.0995 114.28C29.0995 114.28 29.1666 114.28 29.3009 114.28C29.4351 114.28 29.5135 114.28 29.5358 114.28V114.686H26.8508V111.72ZM26.8508 89.2093V86.2431H29.5358V86.6495C29.5135 86.6495 29.4351 86.6495 29.3009 86.6495C29.1666 86.6495 29.0995 86.6495 29.0995 86.6495C28.5178 86.6495 28.0143 86.9068 27.5892 87.4215C27.1864 87.9091 26.9739 88.505 26.9515 89.2093H26.8508Z" fill="black"/>
<path d="M35.7413 85.6336L55.2413 110.826L55.5434 115.255L36.0434 90.1033L35.7413 85.6336ZM35.8084 111.801V114.686H33.0227V114.28C33.0227 114.28 33.1234 114.28 33.3248 114.28C33.5261 114.28 33.638 114.28 33.6604 114.28C34.2198 114.28 34.7008 114.036 35.1036 113.548C35.5063 113.061 35.7077 112.478 35.7077 111.801H35.8084ZM37.2516 111.801C37.2516 112.478 37.453 113.061 37.8558 113.548C38.2585 114.036 38.7396 114.28 39.2989 114.28C39.3213 114.28 39.4332 114.28 39.6346 114.28C39.8359 114.28 39.9366 114.28 39.9366 114.28V114.686H37.1509V111.801H37.2516ZM35.7413 85.6336L37.2181 87.9091L37.2516 114.686H35.7077V90.7127C35.7077 89.3312 35.6518 88.1393 35.5399 87.1371C35.4504 86.1348 35.4057 85.6336 35.4057 85.6336H35.7413ZM55.5434 86.2431V110.054C55.5434 110.921 55.5657 111.761 55.6105 112.573C55.6552 113.359 55.7 114.009 55.7447 114.524C55.8119 115.011 55.8454 115.255 55.8454 115.255H55.5434L54.033 113.101V86.2431H55.5434ZM58.2284 86.2431V86.6495C58.2284 86.6495 58.1277 86.6495 57.9263 86.6495C57.725 86.6495 57.6243 86.6495 57.6243 86.6495C57.0649 86.6495 56.5838 86.8933 56.1811 87.3808C55.7783 87.8414 55.5658 88.4238 55.5434 89.1281H55.4427V86.2431H58.2284ZM51.3145 86.2431H54.1002V89.1281H54.033C54.0107 88.4238 53.7981 87.8414 53.3954 87.3808C53.015 86.8933 52.5339 86.6495 51.9522 86.6495C51.9522 86.6495 51.8515 86.6495 51.6501 86.6495C51.4487 86.6495 51.3368 86.6495 51.3145 86.6495V86.2431Z" fill="black"/>
<path d="M72.7965 86.2431C75.1907 86.2431 77.2827 86.8391 79.0728 88.031C80.8852 89.1958 82.2948 90.8482 83.3017 92.9882C84.3309 95.1282 84.8456 97.6203 84.8456 100.465C84.8456 103.309 84.3309 105.801 83.3017 107.941C82.2948 110.054 80.8852 111.706 79.0728 112.898C77.2827 114.09 75.1907 114.686 72.7965 114.686H65.6141L65.5805 113.467C65.5805 113.467 65.8154 113.467 66.2853 113.467C66.7776 113.467 67.3817 113.467 68.0977 113.467C68.8361 113.467 69.5633 113.467 70.2793 113.467C70.9953 113.467 71.5883 113.467 72.0581 113.467C72.5504 113.467 72.7965 113.467 72.7965 113.467C74.7208 113.467 76.3877 112.925 77.7974 111.842C79.2294 110.758 80.337 109.241 81.1201 107.291C81.9256 105.341 82.3284 103.065 82.3284 100.465C82.3284 97.8641 81.9256 95.5887 81.1201 93.6383C80.337 91.6879 79.2294 90.171 77.7974 89.0874C76.3654 88.0039 74.6984 87.4621 72.7965 87.4621C72.7965 87.4621 72.5392 87.4621 72.0246 87.4621C71.5323 87.4621 70.9058 87.4621 70.1451 87.4621C69.4067 87.4621 68.6571 87.4621 67.8963 87.4621C67.1579 87.4621 66.5314 87.4621 66.0168 87.4621C65.5022 87.4621 65.2449 87.4621 65.2449 87.4621V86.2431H72.7965ZM66.1846 86.2431V114.686H64.003V86.2431H66.1846ZM64.1037 111.72V114.686H61.4187V114.28C61.4187 114.28 61.4858 114.28 61.6201 114.28C61.7767 114.28 61.855 114.28 61.855 114.28C62.4368 114.28 62.929 114.036 63.3318 113.548C63.7569 113.034 63.9807 112.424 64.003 111.72H64.1037ZM64.1037 89.2093H64.003C64.003 88.505 63.7905 87.9091 63.3653 87.4215C62.9402 86.9068 62.4368 86.6495 61.855 86.6495C61.855 86.6495 61.7879 86.6495 61.6536 86.6495C61.5194 86.6495 61.4523 86.6495 61.4523 86.6495L61.4187 86.2431H64.1037V89.2093Z" fill="black"/>
<path d="M98.5528 86.2431H100.063V122H98.5528V86.2431Z" fill="black"/>
<path d="M118.594 86.2431V114.686H116.412V86.2431H118.594ZM127.656 113.426V114.686H118.493V113.426H127.656ZM126.213 100.058V101.277H118.493V100.058H126.213ZM127.656 86.2431V87.5027H118.493V86.2431H127.656ZM129.703 108.104L127.756 114.686H122.185L123.393 113.426C124.579 113.426 125.541 113.21 126.28 112.776C127.04 112.316 127.656 111.679 128.126 110.867C128.596 110.054 129.009 109.133 129.367 108.104H129.703ZM126.213 101.196V103.878H125.877V103.268C125.877 102.727 125.72 102.266 125.407 101.887C125.094 101.48 124.713 101.277 124.266 101.277V101.196H126.213ZM126.213 97.4578V100.14H124.266V100.058C124.713 100.031 125.094 99.828 125.407 99.4488C125.72 99.0425 125.877 98.5684 125.877 98.0266V97.4578H126.213ZM127.656 87.3808V90.6315H127.32V89.9001C127.32 89.25 127.13 88.6946 126.75 88.2341C126.369 87.7465 125.899 87.4892 125.34 87.4621V87.3808H127.656ZM127.656 85.5117V86.6901L123.561 86.2431C124.053 86.2431 124.568 86.2025 125.105 86.1212C125.664 86.04 126.179 85.9452 126.649 85.8368C127.119 85.7284 127.454 85.6201 127.656 85.5117ZM116.513 111.72V114.686H113.828V114.28C113.828 114.28 113.895 114.28 114.029 114.28C114.186 114.28 114.264 114.28 114.264 114.28C114.846 114.28 115.338 114.036 115.741 113.548C116.166 113.034 116.39 112.424 116.412 111.72H116.513ZM116.513 89.2093H116.412C116.412 88.505 116.2 87.9091 115.775 87.4215C115.349 86.9068 114.846 86.6495 114.264 86.6495C114.264 86.6495 114.197 86.6495 114.063 86.6495C113.929 86.6495 113.861 86.6495 113.861 86.6495L113.828 86.2431H116.513V89.2093Z" fill="black"/>
<path d="M136.421 86.2431L151.356 114.645H148.671L133.803 86.2431H136.421ZM136.857 111.761C136.656 112.14 136.6 112.533 136.689 112.939C136.779 113.318 136.946 113.643 137.193 113.914C137.461 114.158 137.741 114.28 138.032 114.28C138.032 114.28 138.099 114.28 138.233 114.28C138.39 114.28 138.468 114.28 138.468 114.28V114.686H130.849V114.28H131.319C132.035 114.28 132.695 114.036 133.299 113.548C133.903 113.061 134.385 112.505 134.743 111.882L136.857 111.761ZM141.556 99.5707L142.328 101.318L135.347 114.645H133.199L141.556 99.5707ZM147.161 111.761L149.913 111.923C150.271 112.546 150.752 113.101 151.356 113.589C151.96 114.05 152.609 114.28 153.303 114.28H153.773V114.686H145.583V114.28C145.583 114.28 145.65 114.28 145.785 114.28C145.919 114.28 145.986 114.28 145.986 114.28C146.456 114.28 146.836 114.009 147.127 113.467C147.44 112.925 147.452 112.356 147.161 111.761ZM139.542 86.2431V86.6495C139.542 86.6495 139.475 86.6495 139.341 86.6495C139.206 86.6495 139.139 86.6495 139.139 86.6495C138.848 86.6495 138.569 86.7849 138.3 87.0558C138.054 87.2996 137.886 87.6246 137.797 88.031C137.73 88.4102 137.786 88.7895 137.965 89.1687L135.28 89.0468C134.922 88.4238 134.44 87.8684 133.836 87.3808C133.255 86.8933 132.606 86.6495 131.89 86.6495H131.42V86.2431H139.542ZM150.853 86.2431L142.965 100.302L141.824 99.3269L148.671 86.2431H150.853ZM153.135 86.2431V86.6495H152.665C151.971 86.6495 151.323 86.8933 150.718 87.3808C150.137 87.8684 149.656 88.4238 149.275 89.0468L147.127 89.1687C147.329 88.7895 147.385 88.4102 147.295 88.031C147.228 87.6246 147.071 87.2996 146.825 87.0558C146.579 86.7849 146.299 86.6495 145.986 86.6495C145.986 86.6495 145.919 86.6495 145.785 86.6495C145.65 86.6495 145.583 86.6495 145.583 86.6495V86.2431H153.135Z" fill="black"/>
<path d="M159.751 86.2431H164.181C165.613 86.2431 166.843 86.5546 167.873 87.1777C168.902 87.8007 169.696 88.7082 170.256 89.9001C170.815 91.0649 171.095 92.46 171.095 94.0853C171.095 95.3313 170.893 96.4555 170.491 97.4578C170.088 98.433 169.551 99.2592 168.88 99.9364C168.208 100.614 167.448 101.128 166.597 101.48C165.747 101.805 164.863 101.927 163.946 101.846C163.051 101.765 162.178 101.453 161.328 100.912V100.505C161.328 100.505 161.518 100.546 161.899 100.627C162.279 100.681 162.76 100.695 163.342 100.668C163.946 100.614 164.572 100.465 165.221 100.221C165.893 99.9499 166.508 99.4894 167.067 98.8393C167.649 98.1892 168.085 97.2817 168.376 96.1169C168.443 95.8189 168.499 95.4532 168.544 95.0198C168.589 94.5593 168.6 94.1124 168.578 93.6789C168.555 91.8098 168.152 90.3064 167.369 89.1687C166.586 88.031 165.479 87.4621 164.047 87.4621H160.086C160.086 87.4621 160.053 87.3673 159.985 87.1777C159.941 86.961 159.885 86.7578 159.818 86.5682C159.773 86.3515 159.751 86.2431 159.751 86.2431ZM160.187 86.2431V114.686H158.005V86.2431H160.187ZM158.106 111.72V114.686H155.421V114.28C155.421 114.28 155.488 114.28 155.622 114.28C155.779 114.28 155.857 114.28 155.857 114.28C156.439 114.28 156.931 114.036 157.334 113.548C157.759 113.034 157.983 112.424 158.005 111.72H158.106ZM158.106 89.2093H158.005C158.005 88.505 157.793 87.9091 157.368 87.4215C156.942 86.9068 156.439 86.6495 155.857 86.6495C155.857 86.6495 155.79 86.6495 155.656 86.6495C155.522 86.6495 155.454 86.6495 155.454 86.6495L155.421 86.2431H158.106V89.2093ZM160.086 111.72H160.187C160.209 112.424 160.422 113.034 160.825 113.548C161.25 114.036 161.753 114.28 162.335 114.28C162.335 114.28 162.402 114.28 162.536 114.28C162.693 114.28 162.771 114.28 162.771 114.28V114.686H160.086V111.72Z" fill="black"/>
<path d="M179.394 86.2431V114.686H177.212V86.2431H179.394ZM188.456 113.426V114.686H179.293V113.426H188.456ZM190.503 108.104L188.556 114.686H182.985L184.193 113.426C185.379 113.426 186.341 113.21 187.08 112.776C187.84 112.316 188.456 111.679 188.926 110.867C189.395 110.054 189.809 109.133 190.167 108.104H190.503ZM177.313 111.72V114.686H174.628V114.28C174.628 114.28 174.695 114.28 174.829 114.28C174.986 114.28 175.064 114.28 175.064 114.28C175.646 114.28 176.138 114.036 176.541 113.548C176.966 113.034 177.19 112.424 177.212 111.72H177.313ZM177.313 89.2093H177.212C177.19 88.505 176.966 87.9091 176.541 87.4215C176.138 86.9068 175.646 86.6495 175.064 86.6495C175.064 86.6495 174.986 86.6495 174.829 86.6495C174.695 86.6495 174.628 86.6495 174.628 86.6495V86.2431H177.313V89.2093ZM179.293 89.2093V86.2431H181.978V86.6495C181.956 86.6495 181.877 86.6495 181.743 86.6495C181.609 86.6495 181.542 86.6495 181.542 86.6495C180.96 86.6495 180.457 86.9068 180.031 87.4215C179.629 87.9091 179.416 88.505 179.394 89.2093H179.293Z" fill="black"/>
<path d="M205.203 85.6743C207.597 85.6743 209.701 86.2973 211.513 87.5434C213.325 88.7624 214.735 90.4825 215.742 92.7037C216.771 94.925 217.286 97.512 217.286 100.465C217.286 103.417 216.771 106.004 215.742 108.225C214.735 110.447 213.325 112.18 211.513 113.426C209.701 114.645 207.597 115.255 205.203 115.255C202.831 115.255 200.739 114.645 198.927 113.426C197.115 112.18 195.694 110.447 194.665 108.225C193.658 106.004 193.154 103.417 193.154 100.465C193.154 97.512 193.658 94.925 194.665 92.7037C195.694 90.4825 197.115 88.7624 198.927 87.5434C200.739 86.2973 202.831 85.6743 205.203 85.6743ZM205.203 114.036C207.105 114.036 208.761 113.467 210.171 112.329C211.603 111.192 212.71 109.607 213.493 107.575C214.299 105.544 214.702 103.173 214.702 100.465C214.702 97.7558 214.299 95.3855 213.493 93.3539C212.71 91.3222 211.603 89.7376 210.171 88.5998C208.761 87.4621 207.105 86.8933 205.203 86.8933C203.324 86.8933 201.668 87.4621 200.236 88.5998C198.826 89.7376 197.719 91.3222 196.913 93.3539C196.13 95.3855 195.739 97.7558 195.739 100.465C195.739 103.173 196.13 105.544 196.913 107.575C197.719 109.607 198.826 111.192 200.236 112.329C201.668 113.467 203.324 114.036 205.203 114.036Z" fill="black"/>
<path d="M224.615 86.2431H229.347C230.354 86.2431 231.26 86.4192 232.066 86.7714C232.893 87.1235 233.587 87.6382 234.147 88.3154C234.706 88.9655 235.131 89.7646 235.422 90.7127C235.735 91.6338 235.892 92.6902 235.892 93.8821C235.892 95.1823 235.634 96.4284 235.12 97.6203C234.628 98.8122 233.945 99.7874 233.073 100.546C232.222 101.277 231.26 101.643 230.186 101.643C230.566 101.833 230.98 102.225 231.428 102.821C231.875 103.39 232.267 103.945 232.603 104.487C232.603 104.487 232.748 104.758 233.039 105.3C233.352 105.815 233.733 106.451 234.18 107.21C234.65 107.968 235.12 108.713 235.59 109.444C236.06 110.176 236.462 110.758 236.798 111.192C237.245 111.788 237.693 112.316 238.14 112.776C238.588 113.237 239.069 113.603 239.584 113.873C240.121 114.144 240.714 114.28 241.363 114.28V114.686H239.517C238.487 114.686 237.592 114.496 236.832 114.117C236.093 113.738 235.467 113.277 234.952 112.736C234.437 112.167 234.001 111.625 233.643 111.11C233.576 111.002 233.386 110.691 233.073 110.176C232.782 109.661 232.424 109.052 231.998 108.347C231.596 107.616 231.193 106.898 230.79 106.194C230.387 105.49 230.041 104.894 229.75 104.406C229.459 103.891 229.291 103.593 229.246 103.512C228.821 102.835 228.351 102.212 227.837 101.643C227.322 101.074 226.763 100.79 226.159 100.79V100.383C226.159 100.383 226.326 100.397 226.662 100.424C227.02 100.424 227.445 100.41 227.937 100.383C228.519 100.356 229.157 100.248 229.85 100.058C230.544 99.8687 231.193 99.4759 231.797 98.8799C232.401 98.284 232.86 97.3765 233.173 96.1575C233.24 95.8596 233.296 95.4939 233.341 95.0605C233.386 94.5999 233.397 94.153 233.375 93.7196C233.352 91.8775 232.961 90.4148 232.2 89.3312C231.461 88.2206 230.466 87.6246 229.213 87.5434C228.586 87.4892 227.937 87.4757 227.266 87.5027C226.617 87.5027 226.069 87.5027 225.622 87.5027C225.174 87.5027 224.95 87.5027 224.95 87.5027C224.95 87.4757 224.917 87.3673 224.85 87.1777C224.805 86.961 224.749 86.7578 224.682 86.5682C224.637 86.3515 224.615 86.2431 224.615 86.2431ZM225.051 86.2431V114.686H222.869V86.2431H225.051ZM222.97 111.72V114.686H220.285V114.28C220.285 114.28 220.352 114.28 220.486 114.28C220.643 114.28 220.721 114.28 220.721 114.28C221.303 114.28 221.795 114.036 222.198 113.548C222.623 113.034 222.847 112.424 222.869 111.72H222.97ZM222.97 89.2093H222.869C222.847 88.505 222.623 87.9091 222.198 87.4215C221.795 86.9068 221.303 86.6495 220.721 86.6495C220.721 86.6495 220.643 86.6495 220.486 86.6495C220.352 86.6495 220.285 86.6495 220.285 86.6495V86.2431H222.97V89.2093ZM224.95 111.72H225.051C225.051 112.424 225.264 113.034 225.689 113.548C226.114 114.036 226.617 114.28 227.199 114.28C227.199 114.28 227.266 114.28 227.4 114.28C227.535 114.28 227.602 114.28 227.602 114.28V114.686H224.95V111.72Z" fill="black"/>
<path d="M246.749 86.2431V114.686H244.567V86.2431H246.749ZM255.811 113.426V114.686H246.648V113.426H255.811ZM254.368 100.058V101.277H246.648V100.058H254.368ZM255.811 86.2431V87.5027H246.648V86.2431H255.811ZM257.858 108.104L255.912 114.686H250.34L251.548 113.426C252.734 113.426 253.696 113.21 254.435 112.776C255.195 112.316 255.811 111.679 256.281 110.867C256.751 110.054 257.165 109.133 257.523 108.104H257.858ZM254.368 101.196V103.878H254.032V103.268C254.032 102.727 253.875 102.266 253.562 101.887C253.249 101.48 252.868 101.277 252.421 101.277V101.196H254.368ZM254.368 97.4578V100.14H252.421V100.058C252.868 100.031 253.249 99.828 253.562 99.4488C253.875 99.0425 254.032 98.5684 254.032 98.0266V97.4578H254.368ZM255.811 87.3808V90.6315H255.475V89.9001C255.475 89.25 255.285 88.6946 254.905 88.2341C254.524 87.7465 254.054 87.4892 253.495 87.4621V87.3808H255.811ZM255.811 85.5117V86.6901L251.716 86.2431C252.208 86.2431 252.723 86.2025 253.26 86.1212C253.819 86.04 254.334 85.9452 254.804 85.8368C255.274 85.7284 255.609 85.6201 255.811 85.5117ZM244.668 111.72V114.686H241.983V114.28C241.983 114.28 242.05 114.28 242.184 114.28C242.341 114.28 242.419 114.28 242.419 114.28C243.001 114.28 243.493 114.036 243.896 113.548C244.321 113.034 244.545 112.424 244.567 111.72H244.668ZM244.668 89.2093H244.567C244.567 88.505 244.355 87.9091 243.93 87.4215C243.504 86.9068 243.001 86.6495 242.419 86.6495C242.419 86.6495 242.352 86.6495 242.218 86.6495C242.084 86.6495 242.016 86.6495 242.016 86.6495L241.983 86.2431H244.668V89.2093Z" fill="black"/>
<path d="M271.087 86.2431H272.597V122H271.087V86.2431Z" fill="black"/>
<path d="M290.524 86.2431V104.122C290.524 106.072 290.815 107.792 291.396 109.282C292 110.772 292.84 111.937 293.914 112.776C294.988 113.589 296.229 113.995 297.639 113.995C299.138 113.995 300.447 113.603 301.566 112.817C302.685 112.031 303.557 110.948 304.184 109.566C304.81 108.158 305.124 106.519 305.124 104.65V86.2431H306.701V104.65C306.701 106.763 306.321 108.618 305.56 110.216C304.821 111.788 303.77 113.02 302.405 113.914C301.04 114.808 299.451 115.255 297.639 115.255C295.782 115.255 294.149 114.822 292.739 113.955C291.352 113.061 290.266 111.828 289.483 110.257C288.723 108.659 288.342 106.803 288.342 104.69V86.2431H290.524ZM288.443 86.2431V88.6811H288.342C288.342 88.0852 288.163 87.5976 287.805 87.2183C287.47 86.8391 287.056 86.6495 286.563 86.6495C286.563 86.6495 286.474 86.6495 286.295 86.6495C286.116 86.6495 286.026 86.6495 286.026 86.6495V86.2431H288.443ZM292.84 86.2431V86.6495C292.84 86.6495 292.75 86.6495 292.571 86.6495C292.392 86.6495 292.303 86.6495 292.303 86.6495C291.81 86.6495 291.385 86.8391 291.027 87.2183C290.692 87.5976 290.524 88.0852 290.524 88.6811H290.457V86.2431H292.84ZM305.224 86.2431V88.6811H305.124C305.124 88.0852 304.945 87.5976 304.587 87.2183C304.251 86.8391 303.837 86.6495 303.345 86.6495C303.345 86.6495 303.255 86.6495 303.076 86.6495C302.897 86.6495 302.808 86.6495 302.808 86.6495V86.2431H305.224ZM309.017 86.2431V86.6495C309.017 86.6495 308.927 86.6495 308.748 86.6495C308.569 86.6495 308.48 86.6495 308.48 86.6495C307.988 86.6495 307.562 86.8391 307.204 87.2183C306.869 87.5976 306.701 88.0852 306.701 88.6811H306.634V86.2431H309.017Z" fill="black"/>
<path d="M314.503 85.6336L334.003 110.826L334.305 115.255L314.805 90.1033L314.503 85.6336ZM314.57 111.801V114.686H311.784V114.28C311.784 114.28 311.885 114.28 312.087 114.28C312.288 114.28 312.4 114.28 312.422 114.28C312.982 114.28 313.463 114.036 313.865 113.548C314.268 113.061 314.47 112.478 314.47 111.801H314.57ZM316.013 111.801C316.013 112.478 316.215 113.061 316.618 113.548C317.02 114.036 317.501 114.28 318.061 114.28C318.083 114.28 318.195 114.28 318.396 114.28C318.598 114.28 318.698 114.28 318.698 114.28V114.686H315.913V111.801H316.013ZM314.503 85.6336L315.98 87.9091L316.013 114.686H314.47V90.7127C314.47 89.3312 314.414 88.1393 314.302 87.1371C314.212 86.1348 314.167 85.6336 314.167 85.6336H314.503ZM334.305 86.2431V110.054C334.305 110.921 334.328 111.761 334.372 112.573C334.417 113.359 334.462 114.009 334.507 114.524C334.574 115.011 334.607 115.255 334.607 115.255H334.305L332.795 113.101V86.2431H334.305ZM336.99 86.2431V86.6495C336.99 86.6495 336.889 86.6495 336.688 86.6495C336.487 86.6495 336.386 86.6495 336.386 86.6495C335.827 86.6495 335.346 86.8933 334.943 87.3808C334.54 87.8414 334.327 88.4238 334.305 89.1281H334.204V86.2431H336.99ZM330.076 86.2431H332.862V89.1281H332.795C332.772 88.4238 332.56 87.8414 332.157 87.3808C331.777 86.8933 331.296 86.6495 330.714 86.6495C330.714 86.6495 330.613 86.6495 330.412 86.6495C330.21 86.6495 330.099 86.6495 330.076 86.6495V86.2431Z" fill="black"/>
<path d="M344.946 86.2431V114.686H342.765V86.2431H344.946ZM342.865 111.72V114.686H340.18V114.28C340.18 114.28 340.248 114.28 340.382 114.28C340.538 114.28 340.617 114.28 340.617 114.28C341.199 114.28 341.691 114.036 342.094 113.548C342.519 113.034 342.742 112.424 342.765 111.72H342.865ZM342.865 89.2093H342.765C342.742 88.505 342.519 87.9091 342.094 87.4215C341.691 86.9068 341.199 86.6495 340.617 86.6495C340.617 86.6495 340.538 86.6495 340.382 86.6495C340.248 86.6495 340.18 86.6495 340.18 86.6495V86.2431H342.865V89.2093ZM344.846 111.72H344.946C344.969 112.424 345.181 113.034 345.584 113.548C346.009 114.036 346.513 114.28 347.094 114.28C347.094 114.28 347.162 114.28 347.296 114.28C347.43 114.28 347.508 114.28 347.531 114.28V114.686H344.846V111.72ZM344.846 89.2093V86.2431H347.531V86.6495C347.508 86.6495 347.43 86.6495 347.296 86.6495C347.162 86.6495 347.094 86.6495 347.094 86.6495C346.513 86.6495 346.009 86.9068 345.584 87.4215C345.181 87.9091 344.969 88.505 344.946 89.2093H344.846Z" fill="black"/>
<path d="M360.986 86.365V114.686H358.804V86.365H360.986ZM369.611 86.2025V87.4215H350.179V86.2025H369.611ZM369.611 87.2996V90.5908L369.276 90.5502V89.8594C369.276 89.1822 369.074 88.6134 368.672 88.1529C368.291 87.6924 367.833 87.4486 367.296 87.4215V87.2996H369.611ZM369.611 85.4711V86.6495L365.517 86.2025C366.009 86.2025 366.524 86.1619 367.061 86.0806C367.62 85.9993 368.135 85.9045 368.605 85.7962C369.074 85.6878 369.41 85.5795 369.611 85.4711ZM358.905 111.72V114.686H356.22V114.28C356.22 114.28 356.287 114.28 356.421 114.28C356.578 114.28 356.656 114.28 356.656 114.28C357.238 114.28 357.73 114.036 358.133 113.548C358.558 113.034 358.782 112.424 358.804 111.72H358.905ZM360.885 111.72H360.986C361.008 112.424 361.221 113.034 361.623 113.548C362.049 114.036 362.552 114.28 363.134 114.28C363.134 114.28 363.201 114.28 363.335 114.28C363.492 114.28 363.57 114.28 363.57 114.28V114.686H360.885V111.72ZM352.494 87.2996V87.4215C351.935 87.4486 351.465 87.6924 351.085 88.1529C350.704 88.6134 350.514 89.1822 350.514 89.8594V90.5502L350.179 90.5908V87.2996H352.494ZM350.179 85.4711C350.402 85.5795 350.738 85.6878 351.185 85.7962C351.655 85.9045 352.17 85.9993 352.729 86.0806C353.289 86.1619 353.803 86.2025 354.273 86.2025L350.179 86.6495V85.4711Z" fill="black"/>
<path d="M377.034 86.2431V114.686H374.853V86.2431H377.034ZM386.096 113.426V114.686H376.934V113.426H386.096ZM384.653 100.058V101.277H376.934V100.058H384.653ZM386.096 86.2431V87.5027H376.934V86.2431H386.096ZM388.144 108.104L386.197 114.686H380.626L381.834 113.426C383.02 113.426 383.982 113.21 384.72 112.776C385.481 112.316 386.096 111.679 386.566 110.867C387.036 110.054 387.45 109.133 387.808 108.104H388.144ZM384.653 101.196V103.878H384.317V103.268C384.317 102.727 384.161 102.266 383.848 101.887C383.534 101.48 383.154 101.277 382.706 101.277V101.196H384.653ZM384.653 97.4578V100.14H382.706V100.058C383.154 100.031 383.534 99.828 383.848 99.4488C384.161 99.0425 384.317 98.5684 384.317 98.0266V97.4578H384.653ZM386.096 87.3808V90.6315H385.761V89.9001C385.761 89.25 385.57 88.6946 385.19 88.2341C384.81 87.7465 384.34 87.4892 383.78 87.4621V87.3808H386.096ZM386.096 85.5117V86.6901L382.002 86.2431C382.494 86.2431 383.008 86.2025 383.546 86.1212C384.105 86.04 384.62 85.9452 385.089 85.8368C385.559 85.7284 385.895 85.6201 386.096 85.5117ZM374.953 111.72V114.686H372.268V114.28C372.268 114.28 372.335 114.28 372.47 114.28C372.626 114.28 372.705 114.28 372.705 114.28C373.286 114.28 373.779 114.036 374.181 113.548C374.607 113.034 374.83 112.424 374.853 111.72H374.953ZM374.953 89.2093H374.853C374.853 88.505 374.64 87.9091 374.215 87.4215C373.79 86.9068 373.286 86.6495 372.705 86.6495C372.705 86.6495 372.638 86.6495 372.503 86.6495C372.369 86.6495 372.302 86.6495 372.302 86.6495L372.268 86.2431H374.953V89.2093Z" fill="black"/>
<path d="M401.372 86.2431H402.883V122H401.372V86.2431Z" fill="black"/>
<path d="M438.463 102.821L438.061 109.201C437.479 110.365 436.74 111.408 435.845 112.329C434.973 113.223 433.932 113.941 432.724 114.483C431.538 114.998 430.173 115.255 428.629 115.255C426.302 115.228 424.233 114.605 422.42 113.386C420.608 112.167 419.187 110.46 418.158 108.266C417.151 106.045 416.647 103.431 416.647 100.424C416.647 97.4713 417.151 94.8979 418.158 92.7037C419.165 90.4825 420.574 88.7624 422.387 87.5434C424.221 86.2973 426.369 85.6743 428.831 85.6743C430.486 85.6743 431.974 85.9452 433.295 86.4869C434.637 87.0016 435.801 87.6517 436.785 88.4373L437.456 94.1665H437.154C436.662 91.7827 435.655 89.9814 434.134 88.7624C432.612 87.5163 430.844 86.8933 428.831 86.8933C426.862 86.8933 425.15 87.4621 423.696 88.5998C422.264 89.7105 421.145 91.2816 420.339 93.3132C419.556 95.3178 419.165 97.6745 419.165 100.383C419.165 103.092 419.556 105.462 420.339 107.494C421.145 109.526 422.252 111.11 423.662 112.248C425.094 113.386 426.75 113.982 428.629 114.036C430.218 114.036 431.684 113.684 433.026 112.98C434.391 112.248 435.532 111.07 436.449 109.444C437.367 107.792 437.949 105.584 438.195 102.821H438.463Z" fill="black"/>
<path d="M454.532 85.6743C456.926 85.6743 459.029 86.2973 460.842 87.5434C462.654 88.7624 464.064 90.4825 465.071 92.7037C466.1 94.925 466.615 97.512 466.615 100.465C466.615 103.417 466.1 106.004 465.071 108.225C464.064 110.447 462.654 112.18 460.842 113.426C459.029 114.645 456.926 115.255 454.532 115.255C452.16 115.255 450.068 114.645 448.256 113.426C446.443 112.18 445.023 110.447 443.993 108.225C442.986 106.004 442.483 103.417 442.483 100.465C442.483 97.512 442.986 94.925 443.993 92.7037C445.023 90.4825 446.443 88.7624 448.256 87.5434C450.068 86.2973 452.16 85.6743 454.532 85.6743ZM454.532 114.036C456.434 114.036 458.09 113.467 459.499 112.329C460.931 111.192 462.039 109.607 462.822 107.575C463.628 105.544 464.03 103.173 464.03 100.465C464.03 97.7558 463.628 95.3855 462.822 93.3539C462.039 91.3222 460.931 89.7376 459.499 88.5998C458.09 87.4621 456.434 86.8933 454.532 86.8933C452.652 86.8933 450.997 87.4621 449.565 88.5998C448.155 89.7376 447.047 91.3222 446.242 93.3539C445.459 95.3855 445.067 97.7558 445.067 100.465C445.067 103.173 445.459 105.544 446.242 107.575C447.047 109.607 448.155 111.192 449.565 112.329C450.997 113.467 452.652 114.036 454.532 114.036Z" fill="black"/>
<path d="M471.829 85.6336L491.329 110.826L491.631 115.255L472.131 90.1033L471.829 85.6336ZM471.896 111.801V114.686H469.11V114.28C469.11 114.28 469.211 114.28 469.412 114.28C469.614 114.28 469.726 114.28 469.748 114.28C470.307 114.28 470.788 114.036 471.191 113.548C471.594 113.061 471.795 112.478 471.795 111.801H471.896ZM473.339 111.801C473.339 112.478 473.541 113.061 473.943 113.548C474.346 114.036 474.827 114.28 475.387 114.28C475.409 114.28 475.521 114.28 475.722 114.28C475.924 114.28 476.024 114.28 476.024 114.28V114.686H473.239V111.801H473.339ZM471.829 85.6336L473.306 87.9091L473.339 114.686H471.795V90.7127C471.795 89.3312 471.739 88.1393 471.628 87.1371C471.538 86.1348 471.493 85.6336 471.493 85.6336H471.829ZM491.631 86.2431V110.054C491.631 110.921 491.653 111.761 491.698 112.573C491.743 113.359 491.788 114.009 491.832 114.524C491.9 115.011 491.933 115.255 491.933 115.255H491.631L490.121 113.101V86.2431H491.631ZM494.316 86.2431V86.6495C494.316 86.6495 494.215 86.6495 494.014 86.6495C493.813 86.6495 493.712 86.6495 493.712 86.6495C493.153 86.6495 492.671 86.8933 492.269 87.3808C491.866 87.8414 491.653 88.4238 491.631 89.1281H491.53V86.2431H494.316ZM487.402 86.2431H490.188V89.1281H490.121C490.098 88.4238 489.886 87.8414 489.483 87.3808C489.103 86.8933 488.622 86.6495 488.04 86.6495C488.04 86.6495 487.939 86.6495 487.738 86.6495C487.536 86.6495 487.424 86.6495 487.402 86.6495V86.2431Z" fill="black"/>
<path d="M499.721 85.6336L519.221 110.826L519.524 115.255L500.024 90.1033L499.721 85.6336ZM499.789 111.801V114.686H497.003V114.28C497.003 114.28 497.104 114.28 497.305 114.28C497.506 114.28 497.618 114.28 497.641 114.28C498.2 114.28 498.681 114.036 499.084 113.548C499.487 113.061 499.688 112.478 499.688 111.801H499.789ZM501.232 111.801C501.232 112.478 501.433 113.061 501.836 113.548C502.239 114.036 502.72 114.28 503.279 114.28C503.302 114.28 503.413 114.28 503.615 114.28C503.816 114.28 503.917 114.28 503.917 114.28V114.686H501.131V111.801H501.232ZM499.721 85.6336L501.198 87.9091L501.232 114.686H499.688V90.7127C499.688 89.3312 499.632 88.1393 499.52 87.1371C499.431 86.1348 499.386 85.6336 499.386 85.6336H499.721ZM519.524 86.2431V110.054C519.524 110.921 519.546 111.761 519.591 112.573C519.635 113.359 519.68 114.009 519.725 114.524C519.792 115.011 519.826 115.255 519.826 115.255H519.524L518.013 113.101V86.2431H519.524ZM522.209 86.2431V86.6495C522.209 86.6495 522.108 86.6495 521.907 86.6495C521.705 86.6495 521.604 86.6495 521.604 86.6495C521.045 86.6495 520.564 86.8933 520.161 87.3808C519.758 87.8414 519.546 88.4238 519.524 89.1281H519.423V86.2431H522.209ZM515.295 86.2431H518.08V89.1281H518.013C517.991 88.4238 517.778 87.8414 517.376 87.3808C516.995 86.8933 516.514 86.6495 515.932 86.6495C515.932 86.6495 515.832 86.6495 515.63 86.6495C515.429 86.6495 515.317 86.6495 515.295 86.6495V86.2431Z" fill="black"/>
<path d="M530.165 86.2431V114.686H527.983V86.2431H530.165ZM539.227 113.426V114.686H530.064V113.426H539.227ZM537.784 100.058V101.277H530.064V100.058H537.784ZM539.227 86.2431V87.5027H530.064V86.2431H539.227ZM541.274 108.104L539.328 114.686H533.756L534.964 113.426C536.15 113.426 537.112 113.21 537.851 112.776C538.611 112.316 539.227 111.679 539.697 110.867C540.167 110.054 540.581 109.133 540.939 108.104H541.274ZM537.784 101.196V103.878H537.448V103.268C537.448 102.727 537.291 102.266 536.978 101.887C536.665 101.48 536.284 101.277 535.837 101.277V101.196H537.784ZM537.784 97.4578V100.14H535.837V100.058C536.284 100.031 536.665 99.828 536.978 99.4488C537.291 99.0425 537.448 98.5684 537.448 98.0266V97.4578H537.784ZM539.227 87.3808V90.6315H538.891V89.9001C538.891 89.25 538.701 88.6946 538.321 88.2341C537.94 87.7465 537.47 87.4892 536.911 87.4621V87.3808H539.227ZM539.227 85.5117V86.6901L535.132 86.2431C535.624 86.2431 536.139 86.2025 536.676 86.1212C537.235 86.04 537.75 85.9452 538.22 85.8368C538.69 85.7284 539.025 85.6201 539.227 85.5117ZM528.084 111.72V114.686H525.399V114.28C525.399 114.28 525.466 114.28 525.6 114.28C525.757 114.28 525.835 114.28 525.835 114.28C526.417 114.28 526.909 114.036 527.312 113.548C527.737 113.034 527.961 112.424 527.983 111.72H528.084ZM528.084 89.2093H527.983C527.983 88.505 527.771 87.9091 527.346 87.4215C526.92 86.9068 526.417 86.6495 525.835 86.6495C525.835 86.6495 525.768 86.6495 525.634 86.6495C525.5 86.6495 525.432 86.6495 525.432 86.6495L525.399 86.2431H528.084V89.2093Z" fill="black"/>
<path d="M565.93 102.821L565.527 109.201C564.945 110.365 564.207 111.408 563.312 112.329C562.439 113.223 561.399 113.941 560.191 114.483C559.005 114.998 557.64 115.255 556.096 115.255C553.769 115.228 551.699 114.605 549.887 113.386C548.075 112.167 546.654 110.46 545.624 108.266C544.618 106.045 544.114 103.431 544.114 100.424C544.114 97.4713 544.618 94.8979 545.624 92.7037C546.631 90.4825 548.041 88.7624 549.853 87.5434C551.688 86.2973 553.836 85.6743 556.297 85.6743C557.953 85.6743 559.441 85.9452 560.761 86.4869C562.104 87.0016 563.267 87.6517 564.252 88.4373L564.923 94.1665H564.621C564.129 91.7827 563.122 89.9814 561.6 88.7624C560.079 87.5163 558.311 86.8933 556.297 86.8933C554.328 86.8933 552.617 87.4621 551.162 88.5998C549.73 89.7105 548.612 91.2816 547.806 93.3132C547.023 95.3178 546.631 97.6745 546.631 100.383C546.631 103.092 547.023 105.462 547.806 107.494C548.612 109.526 549.719 111.11 551.129 112.248C552.561 113.386 554.217 113.982 556.096 114.036C557.685 114.036 559.15 113.684 560.493 112.98C561.858 112.248 562.999 111.07 563.916 109.444C564.834 107.792 565.415 105.584 565.661 102.821H565.93Z" fill="black"/>
<path d="M579.079 86.365V114.686H576.897V86.365H579.079ZM587.704 86.2025V87.4215H568.272V86.2025H587.704ZM587.704 87.2996V90.5908L587.369 90.5502V89.8594C587.369 89.1822 587.167 88.6134 586.765 88.1529C586.384 87.6924 585.926 87.4486 585.389 87.4215V87.2996H587.704ZM587.704 85.4711V86.6495L583.61 86.2025C584.102 86.2025 584.617 86.1619 585.154 86.0806C585.713 85.9993 586.228 85.9045 586.697 85.7962C587.167 85.6878 587.503 85.5795 587.704 85.4711ZM576.998 111.72V114.686H574.313V114.28C574.313 114.28 574.38 114.28 574.514 114.28C574.671 114.28 574.749 114.28 574.749 114.28C575.331 114.28 575.823 114.036 576.226 113.548C576.651 113.034 576.875 112.424 576.897 111.72H576.998ZM578.978 111.72H579.079C579.101 112.424 579.314 113.034 579.716 113.548C580.142 114.036 580.645 114.28 581.227 114.28C581.227 114.28 581.294 114.28 581.428 114.28C581.585 114.28 581.663 114.28 581.663 114.28V114.686H578.978V111.72ZM570.587 87.2996V87.4215C570.028 87.4486 569.558 87.6924 569.178 88.1529C568.797 88.6134 568.607 89.1822 568.607 89.8594V90.5502L568.272 90.5908V87.2996H570.587ZM568.272 85.4711C568.495 85.5795 568.831 85.6878 569.278 85.7962C569.748 85.9045 570.263 85.9993 570.822 86.0806C571.382 86.1619 571.896 86.2025 572.366 86.2025L568.272 86.6495V85.4711Z" fill="black"/>
</svg>
