<svg width="334" height="46" viewBox="0 0 334 46" xmlns="http://www.w3.org/2000/svg">
<path d="M23.6836 0.473633V40H13.4053V23.3984H10.3291V40H0.0507812V0.473633H10.3291V14.6094H13.4053V0.473633H23.6836Z" fill="#AB0302"/>
<path d="M36.3545 20.1514H27.1016V17.9785C27.1016 15.472 27.3864 13.5433 27.9561 12.1924C28.542 10.8252 29.7057 9.62077 31.4473 8.5791C33.1888 7.53743 35.4512 7.0166 38.2344 7.0166C41.571 7.0166 44.0856 7.61068 45.7783 8.79883C47.471 9.9707 48.4883 11.4193 48.8301 13.1445C49.1719 14.8535 49.3428 18.3854 49.3428 23.7402V40H39.748V37.1191C39.1458 38.2747 38.3646 39.1455 37.4043 39.7314C36.4603 40.3011 35.3291 40.5859 34.0107 40.5859C32.2855 40.5859 30.6986 40.1058 29.25 39.1455C27.8177 38.1689 27.1016 36.0449 27.1016 32.7734V30.1123C27.1016 27.6872 27.484 26.0352 28.249 25.1562C29.014 24.2773 30.9102 23.252 33.9375 22.0801C37.1764 20.8105 38.9098 19.9561 39.1377 19.5166C39.3656 19.0771 39.4795 18.182 39.4795 16.8311C39.4795 15.1383 39.3493 14.0397 39.0889 13.5352C38.8447 13.0143 38.4297 12.7539 37.8438 12.7539C37.1764 12.7539 36.7614 12.9736 36.5986 13.4131C36.4359 13.8363 36.3545 14.9512 36.3545 16.7578V20.1514ZM39.4795 24.5947C37.9007 25.7503 36.9811 26.7188 36.7207 27.5C36.4766 28.2812 36.3545 29.4043 36.3545 30.8691C36.3545 32.5456 36.4603 33.6279 36.6719 34.1162C36.8997 34.6045 37.3392 34.8486 37.9902 34.8486C38.6087 34.8486 39.0075 34.6615 39.1865 34.2871C39.3818 33.8965 39.4795 32.8874 39.4795 31.2598V24.5947Z" fill="#AB0302"/>
<path d="M62.8926 0.473633V5.625H52.7363V0.473633H62.8926ZM62.8926 7.60254V40H52.7363V7.60254H62.8926Z" fill="#AB0302"/>
<path d="M88.8936 0.473633V40H79.0303V37.6562C78.0863 38.6328 77.0934 39.3652 76.0518 39.8535C75.0101 40.3418 73.9196 40.5859 72.7803 40.5859C71.2503 40.5859 69.9238 40.1872 68.8008 39.3896C67.6777 38.5758 66.9535 37.64 66.6279 36.582C66.3187 35.5241 66.1641 33.7988 66.1641 31.4062V16.2451C66.1641 13.7549 66.3187 11.9889 66.6279 10.9473C66.9535 9.9056 67.6859 8.99414 68.8252 8.21289C69.9645 7.41536 71.3236 7.0166 72.9023 7.0166C74.123 7.0166 75.238 7.23633 76.2471 7.67578C77.2725 8.11523 78.2002 8.77441 79.0303 9.65332V0.473633H88.8936ZM79.0303 15.7568C79.0303 14.5687 78.9245 13.7712 78.7129 13.3643C78.5176 12.9574 78.1188 12.7539 77.5166 12.7539C76.9307 12.7539 76.5319 12.9411 76.3203 13.3154C76.125 13.6735 76.0273 14.4873 76.0273 15.7568V31.626C76.0273 32.9443 76.125 33.8151 76.3203 34.2383C76.5156 34.6452 76.89 34.8486 77.4434 34.8486C78.0781 34.8486 78.5013 34.6208 78.7129 34.165C78.9245 33.693 79.0303 32.5537 79.0303 30.7471V15.7568Z" fill="#AB0302"/>
<path d="M101.247 20.1514H91.9941V17.9785C91.9941 15.472 92.279 13.5433 92.8486 12.1924C93.4346 10.8252 94.5983 9.62077 96.3398 8.5791C98.0814 7.53743 100.344 7.0166 103.127 7.0166C106.464 7.0166 108.978 7.61068 110.671 8.79883C112.364 9.9707 113.381 11.4193 113.723 13.1445C114.064 14.8535 114.235 18.3854 114.235 23.7402V40H104.641V37.1191C104.038 38.2747 103.257 39.1455 102.297 39.7314C101.353 40.3011 100.222 40.5859 98.9033 40.5859C97.1781 40.5859 95.5911 40.1058 94.1426 39.1455C92.7103 38.1689 91.9941 36.0449 91.9941 32.7734V30.1123C91.9941 27.6872 92.3766 26.0352 93.1416 25.1562C93.9066 24.2773 95.8027 23.252 98.8301 22.0801C102.069 20.8105 103.802 19.9561 104.03 19.5166C104.258 19.0771 104.372 18.182 104.372 16.8311C104.372 15.1383 104.242 14.0397 103.981 13.5352C103.737 13.0143 103.322 12.7539 102.736 12.7539C102.069 12.7539 101.654 12.9736 101.491 13.4131C101.328 13.8363 101.247 14.9512 101.247 16.7578V20.1514ZM104.372 24.5947C102.793 25.7503 101.874 26.7188 101.613 27.5C101.369 28.2812 101.247 29.4043 101.247 30.8691C101.247 32.5456 101.353 33.6279 101.564 34.1162C101.792 34.6045 102.232 34.8486 102.883 34.8486C103.501 34.8486 103.9 34.6615 104.079 34.2871C104.274 33.8965 104.372 32.8874 104.372 31.2598V24.5947Z" fill="#AB0302"/>
<path d="M138.869 7.60254L134.865 20.5176L140.065 40H130.568L127.492 25.8887V40H117.629V0.473633H127.492V17.0752L130.568 7.60254H138.869Z" fill="#AB0302"/>
<path d="M151.418 0.473633V9.36035C152.264 8.5791 153.176 7.99316 154.152 7.60254C155.145 7.21191 156.203 7.0166 157.326 7.0166C159.051 7.0166 160.516 7.45605 161.721 8.33496C162.941 9.21387 163.682 10.2311 163.942 11.3867C164.219 12.526 164.357 14.6175 164.357 17.6611V40H154.494V17.1973C154.494 15.3092 154.396 14.0967 154.201 13.5596C154.022 13.0225 153.607 12.7539 152.956 12.7539C152.354 12.7539 151.947 13.0306 151.735 13.584C151.524 14.1374 151.418 15.236 151.418 16.8799V40H141.555V0.473633H151.418Z" fill="#AB0302"/>
<path d="M176.589 20.1514H167.336V17.9785C167.336 15.472 167.621 13.5433 168.19 12.1924C168.776 10.8252 169.94 9.62077 171.682 8.5791C173.423 7.53743 175.686 7.0166 178.469 7.0166C181.805 7.0166 184.32 7.61068 186.013 8.79883C187.705 9.9707 188.723 11.4193 189.064 13.1445C189.406 14.8535 189.577 18.3854 189.577 23.7402V40H179.982V37.1191C179.38 38.2747 178.599 39.1455 177.639 39.7314C176.695 40.3011 175.563 40.5859 174.245 40.5859C172.52 40.5859 170.933 40.1058 169.484 39.1455C168.052 38.1689 167.336 36.0449 167.336 32.7734V30.1123C167.336 27.6872 167.718 26.0352 168.483 25.1562C169.248 24.2773 171.145 23.252 174.172 22.0801C177.411 20.8105 179.144 19.9561 179.372 19.5166C179.6 19.0771 179.714 18.182 179.714 16.8311C179.714 15.1383 179.584 14.0397 179.323 13.5352C179.079 13.0143 178.664 12.7539 178.078 12.7539C177.411 12.7539 176.996 12.9736 176.833 13.4131C176.67 13.8363 176.589 14.9512 176.589 16.7578V20.1514ZM179.714 24.5947C178.135 25.7503 177.215 26.7188 176.955 27.5C176.711 28.2812 176.589 29.4043 176.589 30.8691C176.589 32.5456 176.695 33.6279 176.906 34.1162C177.134 34.6045 177.574 34.8486 178.225 34.8486C178.843 34.8486 179.242 34.6615 179.421 34.2871C179.616 33.8965 179.714 32.8874 179.714 31.2598V24.5947Z" fill="#AB0302"/>
<path d="M203.005 7.60254L202.834 10.5811C203.55 9.3929 204.421 8.50586 205.446 7.91992C206.488 7.31771 207.684 7.0166 209.035 7.0166C210.728 7.0166 212.111 7.41536 213.186 8.21289C214.26 9.01042 214.951 10.0195 215.261 11.2402C215.57 12.4447 215.725 14.4629 215.725 17.2949V40H205.861V17.5635C205.861 15.3337 205.788 13.9746 205.642 13.4863C205.495 12.998 205.088 12.7539 204.421 12.7539C203.721 12.7539 203.282 13.0387 203.103 13.6084C202.924 14.1618 202.834 15.6592 202.834 18.1006V40H192.971V7.60254H203.005Z" fill="#AB0302"/>
<path d="M241.579 0.473633V40H231.716V37.6562C230.772 38.6328 229.779 39.3652 228.737 39.8535C227.696 40.3418 226.605 40.5859 225.466 40.5859C223.936 40.5859 222.609 40.1872 221.486 39.3896C220.363 38.5758 219.639 37.64 219.313 36.582C219.004 35.5241 218.85 33.7988 218.85 31.4062V16.2451C218.85 13.7549 219.004 11.9889 219.313 10.9473C219.639 9.9056 220.371 8.99414 221.511 8.21289C222.65 7.41536 224.009 7.0166 225.588 7.0166C226.809 7.0166 227.924 7.23633 228.933 7.67578C229.958 8.11523 230.886 8.77441 231.716 9.65332V0.473633H241.579ZM231.716 15.7568C231.716 14.5687 231.61 13.7712 231.398 13.3643C231.203 12.9574 230.804 12.7539 230.202 12.7539C229.616 12.7539 229.217 12.9411 229.006 13.3154C228.811 13.6735 228.713 14.4873 228.713 15.7568V31.626C228.713 32.9443 228.811 33.8151 229.006 34.2383C229.201 34.6452 229.576 34.8486 230.129 34.8486C230.764 34.8486 231.187 34.6208 231.398 34.165C231.61 33.693 231.716 32.5537 231.716 30.7471V15.7568Z" fill="#AB0302"/>
<path d="M255.275 0.473633V5.625H245.119V0.473633H255.275ZM255.275 7.60254V40H245.119V7.60254H255.275Z" fill="#AB0302"/>
<path d="M265.407 31.9434V40H257.961V31.9434H265.407Z" fill="#AB0302"/>
<path d="M290.383 18.9795V26.9141C290.383 29.8275 290.236 31.9678 289.943 33.335C289.65 34.6859 289.024 35.9554 288.063 37.1436C287.103 38.3154 285.866 39.1862 284.353 39.7559C282.855 40.3092 281.13 40.5859 279.177 40.5859C276.996 40.5859 275.148 40.3499 273.635 39.8779C272.121 39.3896 270.941 38.6654 270.095 37.7051C269.265 36.7285 268.671 35.5566 268.312 34.1895C267.954 32.806 267.775 30.7389 267.775 27.9883V19.6875C267.775 16.6764 268.101 14.3245 268.752 12.6318C269.403 10.9391 270.575 9.58008 272.268 8.55469C273.96 7.5293 276.125 7.0166 278.762 7.0166C280.975 7.0166 282.871 7.35026 284.45 8.01758C286.045 8.66862 287.274 9.52311 288.137 10.5811C288.999 11.639 289.585 12.7295 289.895 13.8525C290.22 14.9756 290.383 16.6846 290.383 18.9795ZM280.52 16.5381C280.52 14.8779 280.43 13.8363 280.251 13.4131C280.072 12.9736 279.689 12.7539 279.104 12.7539C278.518 12.7539 278.127 12.9736 277.932 13.4131C277.736 13.8363 277.639 14.8779 277.639 16.5381V31.1621C277.639 32.6921 277.736 33.693 277.932 34.165C278.127 34.6208 278.509 34.8486 279.079 34.8486C279.665 34.8486 280.048 34.637 280.227 34.2139C280.422 33.7907 280.52 32.8792 280.52 31.4795V16.5381Z" fill="#AB0302"/>
<path d="M303.518 7.60254L303.127 11.8506C304.559 8.80697 306.634 7.19564 309.353 7.0166V18.418C307.546 18.418 306.219 18.6621 305.373 19.1504C304.527 19.6387 304.006 20.3223 303.811 21.2012C303.615 22.0638 303.518 24.0658 303.518 27.207V40H293.654V7.60254H303.518Z" fill="#AB0302"/>
<path d="M333.986 7.60254V32.5537C333.986 35.9229 333.905 38.1038 333.742 39.0967C333.596 40.0732 333.05 41.1068 332.106 42.1973C331.162 43.304 329.844 44.1423 328.151 44.7119C326.475 45.2979 324.359 45.5908 321.804 45.5908C318.662 45.5908 316.14 45.0537 314.235 43.9795C312.331 42.9215 311.346 40.8301 311.281 37.7051H320.852C320.852 39.1374 321.372 39.8535 322.414 39.8535C323.163 39.8535 323.659 39.6338 323.903 39.1943C324.147 38.7549 324.27 37.8353 324.27 36.4355V33.9941C323.423 34.7591 322.528 35.3369 321.584 35.7275C320.656 36.1182 319.68 36.3135 318.654 36.3135C316.88 36.3135 315.415 35.9554 314.26 35.2393C313.12 34.5231 312.339 33.5872 311.916 32.4316C311.493 31.2598 311.281 29.5996 311.281 27.4512V15.6836C311.281 12.6074 311.835 10.3939 312.941 9.04297C314.048 7.69206 315.733 7.0166 317.995 7.0166C319.232 7.0166 320.355 7.26888 321.364 7.77344C322.39 8.27799 323.301 9.03483 324.099 10.0439L324.807 7.60254H333.986ZM324.099 16.1963C324.099 14.7152 324.009 13.7712 323.83 13.3643C323.667 12.9574 323.293 12.7539 322.707 12.7539C322.137 12.7539 321.73 12.9899 321.486 13.4619C321.258 13.9176 321.145 14.8291 321.145 16.1963V27.085C321.145 28.5335 321.234 29.4775 321.413 29.917C321.592 30.3402 321.966 30.5518 322.536 30.5518C323.187 30.5518 323.61 30.2913 323.806 29.7705C324.001 29.2497 324.099 28.0697 324.099 26.2305V16.1963Z" fill="#AB0302"/>
</svg>
