<svg width="1713" height="206" viewBox="0 0 1713 206" fill="none" xmlns="http://www.w3.org/2000/svg">
<g filter="url(#filter0_d_711_102)">
<path d="M1362.54 50.4883V136.484H1379.54V158H1334.58V50.4883H1362.54ZM1448.13 113.441C1448.13 124.243 1447.87 131.902 1447.34 136.418C1446.85 140.889 1445.26 144.984 1442.55 148.703C1439.9 152.422 1436.29 155.277 1431.73 157.27C1427.17 159.262 1421.86 160.258 1415.79 160.258C1410.04 160.258 1404.86 159.328 1400.25 157.469C1395.69 155.565 1392.02 152.732 1389.23 148.969C1386.44 145.206 1384.78 141.111 1384.25 136.684C1383.72 132.257 1383.45 124.509 1383.45 113.441V95.0469C1383.45 84.2448 1383.7 76.6081 1384.18 72.1367C1384.71 67.6211 1386.31 63.5039 1388.96 59.7852C1391.67 56.0664 1395.3 53.2109 1399.86 51.2188C1404.42 49.2266 1409.73 48.2305 1415.79 48.2305C1421.55 48.2305 1426.71 49.1823 1431.27 51.0859C1435.87 52.9453 1439.57 55.7565 1442.36 59.5195C1445.14 63.2826 1446.8 67.3776 1447.34 71.8047C1447.87 76.2318 1448.13 83.9792 1448.13 95.0469V113.441ZM1420.18 78.1133C1420.18 73.1107 1419.89 69.9232 1419.31 68.5508C1418.78 67.1341 1417.65 66.4258 1415.93 66.4258C1414.46 66.4258 1413.34 67.0013 1412.54 68.1523C1411.79 69.2591 1411.41 72.5794 1411.41 78.1133V128.316C1411.41 134.559 1411.65 138.41 1412.14 139.871C1412.67 141.332 1413.87 142.062 1415.73 142.062C1417.63 142.062 1418.85 141.221 1419.38 139.539C1419.91 137.857 1420.18 133.85 1420.18 127.52V78.1133ZM1525.03 50.4883L1510.82 158H1468.39L1452.25 50.4883H1481.73C1485.14 80.1055 1487.58 105.141 1489.04 125.594C1490.5 104.919 1492.03 86.5469 1493.62 70.4766L1495.55 50.4883H1525.03ZM1529.81 50.4883H1576.43V72.0039H1557.77V92.3906H1575.23V112.844H1557.77V136.484H1578.29V158H1529.81V50.4883Z" fill="white"/>
</g>
<mask id="mask0_711_102" style="mask-type:luminance" maskUnits="userSpaceOnUse" x="457" y="54" width="100" height="100">
<path d="M557 54H457V154H557V54Z" fill="white"/>
</mask>
<g mask="url(#mask0_711_102)">
<path d="M507 53.9473L523.666 91.4473L557.003 95.6142L531.999 116.447L540.332 153.948L507 133.113L473.667 153.948L482 116.447L457 95.6142L490.334 91.4473L507 53.9473Z" fill="#F39C12"/>
<path d="M507 53.998V108.165L523.667 91.498L507 53.998Z" fill="#F1C40F"/>
<path d="M507 108.164L557 95.6641L532 116.497L507 108.164Z" fill="#F1C40F"/>
<path d="M507 108.164L540.333 153.997L507 133.164V108.164Z" fill="#F1C40F"/>
<path d="M507 108.164L473.667 153.997L482 116.497L507 108.164Z" fill="#F1C40F"/>
<path d="M507 108.165L457 95.6647L490.333 91.498L507 108.165Z" fill="#F1C40F"/>
</g>
<g filter="url(#filter1_d_711_102)">
<path d="M641.812 83.0273H615.848V75.0586C615.848 71.3398 615.516 68.9714 614.852 67.9531C614.188 66.9349 613.081 66.4258 611.531 66.4258C609.849 66.4258 608.565 67.112 607.68 68.4844C606.839 69.8568 606.418 71.9375 606.418 74.7266C606.418 78.3125 606.905 81.013 607.879 82.8281C608.809 84.6432 611.443 86.8346 615.781 89.4023C628.221 96.7956 636.057 102.861 639.289 107.598C642.521 112.335 644.137 119.971 644.137 130.508C644.137 138.167 643.229 143.811 641.414 147.441C639.643 151.072 636.19 154.126 631.055 156.605C625.919 159.04 619.943 160.258 613.125 160.258C605.643 160.258 599.246 158.841 593.934 156.008C588.665 153.174 585.212 149.566 583.574 145.184C581.936 140.801 581.117 134.581 581.117 126.523V119.484H607.082V132.566C607.082 136.595 607.436 139.185 608.145 140.336C608.897 141.487 610.203 142.062 612.062 142.062C613.922 142.062 615.294 141.332 616.18 139.871C617.109 138.41 617.574 136.241 617.574 133.363C617.574 127.033 616.711 122.893 614.984 120.945C613.214 118.997 608.853 115.743 601.902 111.184C594.952 106.579 590.348 103.237 588.09 101.156C585.832 99.0755 583.951 96.1979 582.445 92.5234C580.984 88.849 580.254 84.1562 580.254 78.4453C580.254 70.2109 581.294 64.1901 583.375 60.3828C585.5 56.5755 588.909 53.6094 593.602 51.4844C598.294 49.3151 603.961 48.2305 610.602 48.2305C617.862 48.2305 624.038 49.4036 629.129 51.75C634.264 54.0964 637.651 57.0625 639.289 60.6484C640.971 64.1901 641.812 70.2331 641.812 78.7773V83.0273ZM680.926 50.4883V158H652.969V50.4883H680.926ZM778.41 50.4883V158H753.973V85.418L744.211 158H726.879L716.586 87.0781V158H692.148V50.4883H728.34C729.402 56.9518 730.531 64.5664 731.727 73.332L735.578 100.691L741.953 50.4883H778.41ZM789.633 50.4883H817.789C825.404 50.4883 831.247 51.0859 835.32 52.2812C839.438 53.4766 842.514 55.2031 844.551 57.4609C846.632 59.7188 848.026 62.4635 848.734 65.6953C849.487 68.8828 849.863 73.8411 849.863 80.5703V89.9336C849.863 96.7956 849.155 101.798 847.738 104.941C846.322 108.085 843.71 110.497 839.902 112.18C836.139 113.862 831.203 114.703 825.094 114.703H817.59V158H789.633V50.4883ZM817.59 68.8828V96.2422C818.387 96.2865 819.073 96.3086 819.648 96.3086C822.216 96.3086 823.987 95.6888 824.961 94.4492C825.979 93.1654 826.488 90.5312 826.488 86.5469V77.7148C826.488 74.0404 825.913 71.6497 824.762 70.543C823.611 69.4362 821.22 68.8828 817.59 68.8828ZM885.855 50.4883V136.484H902.855V158H857.898V50.4883H885.855ZM937.652 50.4883V158H909.695V50.4883H937.652ZM1014.15 97.3711H986.195V78.6445C986.195 73.1992 985.885 69.8125 985.266 68.4844C984.69 67.112 983.384 66.4258 981.348 66.4258C979.046 66.4258 977.585 67.2448 976.965 68.8828C976.345 70.5208 976.035 74.0625 976.035 79.5078V129.445C976.035 134.669 976.345 138.078 976.965 139.672C977.585 141.266 978.979 142.062 981.148 142.062C983.229 142.062 984.579 141.266 985.199 139.672C985.863 138.078 986.195 134.337 986.195 128.449V114.969H1014.15V119.152C1014.15 130.264 1013.36 138.145 1011.76 142.793C1010.21 147.441 1006.74 151.514 1001.34 155.012C995.979 158.509 989.361 160.258 981.48 160.258C973.29 160.258 966.539 158.775 961.227 155.809C955.914 152.842 952.395 148.747 950.668 143.523C948.941 138.255 948.078 130.353 948.078 119.816V88.4062C948.078 80.6589 948.344 74.8594 948.875 71.0078C949.406 67.112 950.978 63.3711 953.59 59.7852C956.246 56.1992 959.898 53.388 964.547 51.3516C969.24 49.2708 974.618 48.2305 980.684 48.2305C988.918 48.2305 995.714 49.8242 1001.07 53.0117C1006.43 56.1992 1009.95 60.1836 1011.63 64.9648C1013.31 69.7018 1014.15 77.0951 1014.15 87.1445V97.3711ZM1052.14 50.4883V158H1024.18V50.4883H1052.14ZM1119.67 50.4883V72.0039H1103.07V158H1075.11V72.0039H1058.58V50.4883H1119.67ZM1189.07 50.4883L1168.68 119.086V158H1142.78V119.086L1123.12 50.4883H1148.82C1152.85 71.4284 1155.11 85.5286 1155.6 92.7891C1157.15 81.3229 1159.74 67.2227 1163.37 50.4883H1189.07Z" fill="white"/>
</g>
<mask id="mask1_711_102" style="mask-type:luminance" maskUnits="userSpaceOnUse" x="1209" y="54" width="100" height="100">
<path d="M1309 54H1209V154H1309V54Z" fill="white"/>
</mask>
<g mask="url(#mask1_711_102)">
<path d="M1259 53.9473L1275.67 91.4473L1309 95.6142L1284 116.447L1292.33 153.948L1259 133.113L1225.67 153.948L1234 116.447L1209 95.6142L1242.33 91.4473L1259 53.9473Z" fill="#F39C12"/>
<path d="M1259 53.998V108.165L1275.67 91.498L1259 53.998Z" fill="#F1C40F"/>
<path d="M1259 108.164L1309 95.6641L1284 116.497L1259 108.164Z" fill="#F1C40F"/>
<path d="M1259 108.164L1292.33 153.997L1259 133.164V108.164Z" fill="#F1C40F"/>
<path d="M1259 108.164L1225.67 153.997L1234 116.497L1259 108.164Z" fill="#F1C40F"/>
<path d="M1259 108.165L1209 95.6647L1242.33 91.498L1259 108.165Z" fill="#F1C40F"/>
</g>
<g filter="url(#filter2_d_711_102)">
<path d="M149.891 50.4883V72.0039H133.289V158H105.332V72.0039H88.7969V50.4883H149.891ZM156.266 50.4883H176.055C189.247 50.4883 198.168 50.9974 202.816 52.0156C207.509 53.0339 211.316 55.6458 214.238 59.8516C217.204 64.013 218.688 70.6758 218.688 79.8398C218.688 88.207 217.647 93.8294 215.566 96.707C213.486 99.5846 209.391 101.311 203.281 101.887C208.815 103.259 212.534 105.096 214.438 107.398C216.341 109.701 217.514 111.826 217.957 113.773C218.444 115.677 218.688 120.967 218.688 129.645V158H192.723V122.273C192.723 116.518 192.258 112.954 191.328 111.582C190.443 110.21 188.074 109.523 184.223 109.523V158H156.266V50.4883ZM184.223 68.8828V92.7891C187.366 92.7891 189.557 92.3685 190.797 91.5273C192.081 90.6419 192.723 87.8307 192.723 83.0938V77.1836C192.723 73.7747 192.103 71.5391 190.863 70.4766C189.668 69.4141 187.454 68.8828 184.223 68.8828ZM293.129 50.4883V122.34C293.129 130.486 292.863 136.219 292.332 139.539C291.801 142.815 290.229 146.202 287.617 149.699C285.005 153.152 281.552 155.786 277.258 157.602C273.008 159.372 267.983 160.258 262.184 160.258C255.764 160.258 250.098 159.195 245.184 157.07C240.27 154.945 236.595 152.178 234.16 148.77C231.725 145.361 230.286 141.775 229.844 138.012C229.401 134.204 229.18 126.236 229.18 114.105V50.4883H257.137V131.105C257.137 135.798 257.38 138.809 257.867 140.137C258.398 141.421 259.439 142.062 260.988 142.062C262.759 142.062 263.888 141.354 264.375 139.938C264.906 138.477 265.172 135.068 265.172 129.711V50.4883H293.129ZM360.266 50.4883V72.0039H343.664V158H315.707V72.0039H299.172V50.4883H360.266ZM430.922 50.4883V158H402.965V112.844H394.598V158H366.641V50.4883H394.598V88.9375H402.965V50.4883H430.922Z" fill="white"/>
</g>
<defs>
<filter id="filter0_d_711_102" x="1330.58" y="48.2305" width="251.71" height="120.028" filterUnits="userSpaceOnUse" color-interpolation-filters="sRGB">
<feFlood flood-opacity="0" result="BackgroundImageFix"/>
<feColorMatrix in="SourceAlpha" type="matrix" values="0 0 0 0 0 0 0 0 0 0 0 0 0 0 0 0 0 0 127 0" result="hardAlpha"/>
<feOffset dy="4"/>
<feGaussianBlur stdDeviation="2"/>
<feComposite in2="hardAlpha" operator="out"/>
<feColorMatrix type="matrix" values="0 0 0 0 0 0 0 0 0 0 0 0 0 0 0 0 0 0 0.25 0"/>
<feBlend mode="normal" in2="BackgroundImageFix" result="effect1_dropShadow_711_102"/>
<feBlend mode="normal" in="SourceGraphic" in2="effect1_dropShadow_711_102" result="shape"/>
</filter>
<filter id="filter1_d_711_102" x="576.254" y="48.2305" width="616.816" height="120.028" filterUnits="userSpaceOnUse" color-interpolation-filters="sRGB">
<feFlood flood-opacity="0" result="BackgroundImageFix"/>
<feColorMatrix in="SourceAlpha" type="matrix" values="0 0 0 0 0 0 0 0 0 0 0 0 0 0 0 0 0 0 127 0" result="hardAlpha"/>
<feOffset dy="4"/>
<feGaussianBlur stdDeviation="2"/>
<feComposite in2="hardAlpha" operator="out"/>
<feColorMatrix type="matrix" values="0 0 0 0 0 0 0 0 0 0 0 0 0 0 0 0 0 0 0.25 0"/>
<feBlend mode="normal" in2="BackgroundImageFix" result="effect1_dropShadow_711_102"/>
<feBlend mode="normal" in="SourceGraphic" in2="effect1_dropShadow_711_102" result="shape"/>
</filter>
<filter id="filter2_d_711_102" x="84.7969" y="50.4883" width="350.125" height="117.77" filterUnits="userSpaceOnUse" color-interpolation-filters="sRGB">
<feFlood flood-opacity="0" result="BackgroundImageFix"/>
<feColorMatrix in="SourceAlpha" type="matrix" values="0 0 0 0 0 0 0 0 0 0 0 0 0 0 0 0 0 0 127 0" result="hardAlpha"/>
<feOffset dy="4"/>
<feGaussianBlur stdDeviation="2"/>
<feComposite in2="hardAlpha" operator="out"/>
<feColorMatrix type="matrix" values="0 0 0 0 0 0 0 0 0 0 0 0 0 0 0 0 0 0 0.25 0"/>
<feBlend mode="normal" in2="BackgroundImageFix" result="effect1_dropShadow_711_102"/>
<feBlend mode="normal" in="SourceGraphic" in2="effect1_dropShadow_711_102" result="shape"/>
</filter>
</defs>
</svg>
