<svg width="231" height="282" viewBox="0 0 231 282" fill="none" xmlns="http://www.w3.org/2000/svg">
<g filter="url(#filter0_i_48_345)">
<path d="M124.455 3.6419C124.455 3.64142 124.455 3.64145 124.455 3.64193C124.459 3.64566 124.464 3.65027 124.469 3.65589L124.455 3.6419L124.618 3.78745C124.844 3.98717 125.292 4.36966 125.986 4.90977C127.373 5.9896 129.754 7.70415 133.332 9.85124C140.485 14.1439 152.456 20.183 170.891 26.3293C189.751 32.6168 202.062 35.672 209.454 37.1508C213.145 37.8891 215.583 38.2291 216.977 38.3839C217.673 38.4611 218.102 38.4918 218.294 38.503L218.38 38.5077C225.37 38.6217 231 44.3238 231 51.3412V141.188C231 185.424 201.718 220.771 175.284 243.904C161.798 255.706 148.373 264.931 138.343 271.2C133.315 274.343 129.107 276.764 126.127 278.414C123.589 279.82 121.168 280.757 118.545 281.542C116.559 282.138 114.436 282.159 112.448 281.567C109.823 280.786 107.409 279.819 104.873 278.414C101.893 276.764 97.6848 274.343 92.6567 271.2C82.6279 264.931 69.2022 255.706 55.7159 243.904C29.2825 220.771 0 185.424 0 141.188V51.3412C0 44.3239 5.63062 38.6218 12.6197 38.5077L12.7064 38.503C12.8974 38.4918 13.3274 38.4611 14.0229 38.3839C15.4162 38.2291 17.8546 37.8891 21.5456 37.1508C28.9384 35.672 41.2488 32.6168 60.1084 26.3293C78.5444 20.183 90.5148 14.1439 97.6681 9.85124C101.246 7.70415 103.627 5.9896 105.014 4.90977C105.708 4.36966 106.156 3.98717 106.383 3.78745L106.545 3.6419C111.526 -1.21397 119.474 -1.21397 124.455 3.6419Z" fill="#EAD16A"/>
</g>
<g filter="url(#filter1_d_48_345)">
<path fill-rule="evenodd" clip-rule="evenodd" d="M105.819 32.6311C108.401 30.098 111.879 28.6797 115.501 28.6797C119.123 28.6797 122.601 30.098 125.183 32.6313C145.489 52.5349 171.834 56.3766 194.98 57.0864C199.099 57.1966 203.03 58.8299 206.007 61.6705C208.982 64.5088 210.79 68.3492 211.076 72.4442C212.95 95.1978 213.086 118.06 211.484 140.834C211.482 140.862 211.479 140.89 211.476 140.918C206.18 188.98 175.152 227.639 130.72 247.812C121.052 252.202 109.946 252.202 100.278 247.812C55.8453 227.639 24.817 188.98 19.5214 140.918C19.5184 140.89 19.5158 140.862 19.5139 140.834C17.9129 118.06 18.0507 95.1978 19.926 72.4445C20.2124 68.3494 22.0204 64.5089 24.9951 61.6705C27.9721 58.8299 31.9038 57.1966 36.0227 57.0864C59.1658 56.3766 85.5108 52.5327 105.819 32.6311ZM115.501 32.9297C112.989 32.9297 110.58 33.9137 108.795 35.6656L108.794 35.6666C87.2916 56.7382 59.5452 60.6174 36.1483 61.3345L36.1395 61.3348L36.1395 61.3347C33.0698 61.4162 30.1426 62.6332 27.9291 64.7453C25.7158 66.8572 24.3748 69.712 24.1649 72.7518L24.1628 72.78C22.3053 95.3085 22.1675 117.945 23.7505 140.494C28.8758 186.871 58.8124 224.319 102.035 243.942C110.586 247.825 120.411 247.825 128.963 243.942C172.185 224.319 202.122 186.871 207.247 140.494C208.832 117.945 208.695 95.3085 206.84 72.7799L206.838 72.7518C206.628 69.712 205.287 66.8572 203.073 64.7453C200.86 62.6332 197.933 61.4162 194.863 61.3347L194.854 61.3345C171.455 60.6174 143.708 56.7405 122.208 35.6664L122.207 35.6656C120.422 33.9137 118.013 32.9297 115.501 32.9297Z" fill="#171717"/>
</g>
<path d="M113.456 190.236C112.737 188.521 112.6 186.571 112.811 181.056L113.079 174.054L110.872 176.448C108.152 179.399 103.885 181.537 97.0851 183.357C94.2234 184.119 91.3643 184.913 90.7317 185.115C89.7138 185.44 89.4774 185.029 88.6779 181.539C87.0171 174.3 86.9966 168.925 88.6093 163.841C88.8115 163.207 86.9837 164.769 84.5479 167.319C80.0021 172.077 77.7972 173.484 75.4139 173.147C74.4062 173.001 74.0024 172.521 73.8623 171.299C73.6181 169.166 77.1485 165.675 83.15 162.113L87.3992 159.591L83.898 159.257C79.9349 158.88 75.0564 156.633 69.3757 152.579C67.3932 151.166 65.4774 150.008 65.1187 150.008C64.0839 150.008 64.3062 149.511 67.0552 145.655C70.1612 141.303 74.7776 137.038 78.344 135.225L80.9518 133.899L74.5971 133.634C68.0955 133.359 65.4207 132.603 64.2323 130.69C61.7879 126.756 71.5452 126.408 81.136 130.09C81.7051 130.313 81.67 129.867 80.9921 128.24C80.501 127.063 79.4774 122.396 78.7184 117.867C77.9591 113.339 77.1673 109.198 76.9583 108.664C76.6403 107.85 77.1177 107.629 79.8922 107.282C85.0805 106.63 92.8067 107.282 96.311 108.703C99.6465 110.037 99.6512 109.982 96.551 105.909C91.4152 99.1646 90.3534 93.6583 94.188 93.6583C96.2183 93.6583 99.9517 99.3823 101.673 105.132C102.526 107.983 103.101 108.246 103.655 106.039C104.28 103.549 105.984 101.565 111.096 97.374C113.727 95.2174 116.81 92.58 117.947 91.5128L120.015 89.5723L121.224 90.8897C124.949 94.9491 128.626 102.549 129.291 107.564L129.682 110.519L131.559 106.203C132.591 103.829 133.929 101.043 134.533 100.012C137.158 95.5277 141.15 94.7443 141.15 98.7128C141.15 100.833 139.909 103.318 136.927 107.169C135.997 108.369 135.179 109.677 135.109 110.074C135.04 110.469 133.716 112.042 132.17 113.566C130.623 115.089 129.531 116.509 129.743 116.721C129.956 116.936 130.975 116.293 132.009 115.287C135.18 112.22 137.62 111.519 142.686 112.223C145.082 112.557 148.237 112.832 149.695 112.832H152.347L151.978 115.976C151.262 122.067 147.536 127.891 142.812 130.299L140.62 131.419L142.077 132.876C143.815 134.614 144.603 134.337 147.721 130.885C151.219 127.013 154.615 119.311 156.474 111.032L156.812 109.523L148.675 109.172C142.329 108.897 140.01 109.009 138.139 109.669C135.353 110.652 134.384 110.303 136.857 109.215C138.051 108.683 141.211 108.52 147.81 108.649C152.911 108.743 157.218 108.957 157.381 109.12C157.545 109.283 157.093 111.689 156.377 114.466C154.956 119.976 151.826 127.07 149.427 130.215C148.138 131.905 148.076 132.14 149.029 131.74C157.131 128.342 163.865 127.067 165.433 128.636C166.682 129.885 166.242 131.918 164.533 132.795C162.522 133.827 157.841 134.745 152.074 135.239L147.604 135.625L150.041 136.911C152.68 138.303 154.819 140.901 157.997 146.573C159.115 148.569 161.168 151.471 162.558 153.021L165.086 155.839L161.728 157.324C156.415 159.674 151.897 160.616 147.107 160.374L142.802 160.16L145.026 161.913C152.391 167.715 155.205 171.458 153.959 173.787C152.512 176.49 148.91 174.465 144.312 168.351C142.495 165.939 140.938 163.964 140.851 163.964C140.763 163.964 140.949 165.075 141.264 166.433C141.596 167.865 141.668 171.704 141.438 175.582C141.219 179.257 141.057 183.623 141.077 185.286L141.111 188.309L136.404 186.324C130.246 183.727 123.866 180.049 119.709 176.698L116.366 174.005L117.424 178.425C118.593 183.311 118.82 189.567 117.889 191.306C117.54 191.957 116.677 192.429 115.826 192.429C114.687 192.429 114.164 191.949 113.452 190.251L113.456 190.236ZM117.388 190.57C118.326 188.818 117.74 182.097 116.129 176.127C114.978 171.864 114.757 171.457 114.27 172.704C113.347 175.061 113.414 189.734 114.355 190.871C115.448 192.194 116.579 192.081 117.388 190.57ZM140.411 184.284C141.007 171.153 140.797 165.958 139.531 162.533C137.966 158.299 137.555 157.85 136 158.682L134.792 159.333L136.083 161.789C137.225 163.963 137.375 165.118 137.375 171.799C137.375 176.885 137.618 179.778 138.121 180.658C139.081 182.337 138.478 182.357 133.472 180.813C126.872 178.774 120.397 173.739 118.052 168.823C117.303 167.251 116.871 166.927 115.915 167.219C114.142 167.759 114.142 167.776 115.684 170.771C117.726 174.739 123.26 178.994 132.146 183.425C136.3 185.497 139.829 187.193 139.988 187.193C140.148 187.193 140.338 185.882 140.411 184.284ZM96.3648 182.817C99.3706 182.012 102.932 180.867 104.279 180.27C109.183 178.101 113.797 172.536 113.834 168.744C113.851 166.858 112.371 167.132 111.527 169.173C110.066 172.699 106.298 175.882 101.357 177.765C98.8005 178.739 95.7525 179.715 94.5832 179.933L92.4572 180.327L91.7562 176.951C90.7832 172.265 91.2763 165.493 92.8473 161.961C93.7117 160.017 93.9306 158.908 93.5286 158.506C92.7993 157.778 91.6244 159.141 89.8487 162.789C88.7525 165.041 88.5767 166.373 88.5838 172.376C88.5913 178.816 89.4651 184.287 90.486 184.283C90.7131 184.283 93.359 183.623 96.3648 182.817ZM136.794 172.81C136.794 165.71 136.65 164.533 135.495 162.209C134.54 160.287 133.616 159.353 132.004 158.681L129.811 157.767L130.032 160.078C130.23 162.165 130.023 162.605 127.859 164.6C125.922 166.389 125.465 167.201 125.465 168.866C125.465 172.555 128.789 174.399 131.726 172.342C133.231 171.289 133.471 168.537 132.154 167.443C131.658 167.031 130.667 166.886 129.83 167.091C128.19 167.503 127.828 168.513 129.365 168.388C130.491 168.294 131.101 170.166 130.23 171.038C129.395 171.869 127.208 170.541 127.208 169.2C127.208 167.592 128.79 166.275 130.721 166.275C132.001 166.275 132.621 166.686 133.293 167.988C134.478 170.28 134.423 170.732 132.753 172.401C131.24 173.914 128.568 174.285 126.636 173.249C125.095 172.426 124.124 169.144 124.853 167.228C125.398 165.795 125.328 165.693 123.819 165.693C122.034 165.693 120.694 164.834 119.786 163.108C119.258 162.104 119.11 162.246 118.472 164.373C117.809 166.588 117.868 166.965 119.245 169.315C121.907 173.859 126.87 177.7 132.985 179.954C136.916 181.402 136.794 181.635 136.794 172.81ZM99.0021 177.845C105.049 175.839 107.875 173.851 110.121 170.019L111.622 167.456L110.411 165.916C109.744 165.068 109.199 164.019 109.199 163.583C109.199 163.035 108.839 163.146 108.037 163.952C107.217 164.775 106.101 165.114 104.243 165.114C99.6632 165.114 95.8378 167.564 95.8378 170.498C95.8378 172.032 98.4495 174.408 100.135 174.408C101.555 174.408 103.39 172.557 103.39 171.126C103.39 170.116 101.725 168.599 100.618 168.599C99.8818 168.599 99.827 168.753 100.369 169.293C101.309 170.234 101.252 171.887 100.266 172.265C99.1806 172.685 98.1617 171.562 98.1617 169.944C98.1617 167.265 103.089 167.483 103.769 170.193C104.78 174.222 99.7649 176.643 96.7176 173.595C93.9477 170.826 95.4509 166.485 99.6611 165.096C101.568 164.47 101.655 164.342 100.814 163.41C100.29 162.827 99.9045 161.362 99.9045 159.949C99.9045 157.527 99.8874 157.506 98.6134 158.397C97.9029 158.895 96.7591 159.302 96.0707 159.302C93.9536 159.302 92.1431 164.333 92.0986 170.339C92.0643 175.077 92.6488 179.635 93.2919 179.635C93.4599 179.635 96.0297 178.832 99.0021 177.845ZM153.241 172.542C153.378 171.361 152.806 170.307 150.917 168.257C147.388 164.428 137.875 157.227 139.091 159.304C141.56 163.523 146.987 170.771 148.907 172.416C151.628 174.744 152.982 174.781 153.241 172.542ZM78.0122 172.002C80.7654 170.554 88.3346 162.855 90.0983 159.708C90.6631 158.702 90.6057 158.698 88.7606 159.622C81.9631 163.097 74.3431 169.072 74.3431 170.929C74.3431 172.749 75.7742 173.16 78.0122 171.983V172.002ZM100.485 170.961C100.485 170.275 99.3522 169.542 98.9361 169.958C98.5195 170.378 99.2532 171.507 99.9385 171.507C100.239 171.507 100.485 171.261 100.485 170.961ZM130.113 169.764C130.113 169.447 129.72 169.181 129.241 169.181C128.762 169.181 128.37 169.438 128.37 169.764C128.37 170.081 128.762 170.347 129.241 170.347C129.721 170.347 130.113 170.09 130.113 169.764ZM116.751 165.699C117.391 165.056 117.913 164.165 117.913 163.713C117.913 163.258 118.072 162.475 118.265 161.969C118.49 161.386 118.3 161.05 117.748 161.05C117.269 161.05 116.714 161.702 116.515 162.494C115.839 165.189 111.523 165.212 111.523 162.494C111.523 161.573 111.196 161.023 110.651 161.023C109.259 161.023 109.612 163.813 111.206 165.406C112.933 167.133 115.181 167.24 116.751 165.672L116.751 165.699ZM127.745 163.613C129.515 162.123 130.073 159.897 129.072 158.322C128.34 157.171 127.238 158.322 127.372 160.161C127.471 161.467 127.136 162.043 125.867 162.753C124.293 163.633 124.186 163.61 122.798 162.015C121.932 161.019 121.014 160.496 120.488 160.698C119.713 160.998 119.713 161.221 120.495 162.734C121.962 165.572 124.984 165.936 127.745 163.613ZM106.559 164.179C107.968 163.639 109.388 160.67 108.417 160.297C108.002 160.134 107.353 160.503 106.974 161.111C105.654 163.225 101.994 162.217 102.303 159.825C102.402 159.062 102.278 158.108 102.025 157.703C101.246 156.452 100.485 157.532 100.485 159.883C100.485 163.208 103.511 165.348 106.559 164.179ZM115.485 162.361C115.642 161.249 115.408 161.054 113.887 161.054C112.545 161.054 112.104 161.319 112.104 162.119C112.104 163.545 112.686 164.043 114.113 163.838C114.833 163.735 115.372 163.152 115.485 162.361ZM126.627 160.452C126.627 159.259 126.044 159.094 123.868 159.681C122.327 160.092 122.228 160.641 123.473 161.886C124.628 163.041 126.627 162.131 126.627 160.452ZM106.287 160.769C106.881 160.058 106.729 159.804 105.392 159.296C103.566 158.601 102.447 159.296 103.004 160.72C103.446 161.872 105.348 161.901 106.287 160.806V160.769ZM124.388 158.769C133.425 155.347 137.71 148.5 136.895 138.781C136.063 128.853 129.382 121.889 118.676 119.791C109.495 117.992 97.9889 123.269 94.7678 130.756C90.5267 140.616 94.5116 153.035 103.366 157.553C109.559 160.712 117.969 161.198 124.388 158.769ZM109.199 155.053C100.624 153.052 97.2815 148.267 97.6661 138.543C97.8469 133.981 98.0818 133.02 99.6363 130.504C101.053 128.211 102.181 127.25 105.344 125.636C109.022 123.759 109.663 123.622 114.907 123.602C119.898 123.602 120.853 123.756 123.432 125.123C129.373 128.281 131.947 132.804 131.947 140.088C131.947 147.053 129.9 151.003 124.869 153.741C122.431 155.068 120.97 155.416 117.129 155.588C114.509 155.708 110.967 155.464 109.199 155.053ZM115.009 152.336C115.009 150.739 114.747 149.432 114.427 149.432C114.108 149.432 113.846 150.739 113.846 152.336C113.846 153.933 114.108 155.241 114.427 155.241C114.747 155.241 115.009 153.933 115.009 152.336ZM117.424 152.576C117.13 148.992 116.17 148.753 116.17 152.267C116.17 154.451 116.378 155.268 116.89 155.097C117.345 154.942 117.542 154.016 117.424 152.576ZM110.371 153.176C111.555 150.063 111.631 149.011 110.699 148.653C110.09 148.422 109.524 148.825 108.987 149.882C107.46 152.883 107.327 153.957 108.448 154.249C109.021 154.395 109.561 154.549 109.649 154.583C109.737 154.583 110.061 153.987 110.371 153.176ZM113.266 152.039C113.266 148.832 112.516 148.665 111.615 151.671C110.736 154.603 110.744 154.653 112.104 154.653C113.094 154.653 113.266 154.269 113.266 152.039ZM120.803 153.162C119.372 149.399 117.906 148.162 117.921 150.733C117.938 153.423 118.591 154.654 120 154.654C121.231 154.654 121.313 154.5 120.803 153.162ZM123.611 153.573C124.213 153.188 124.111 152.649 123.118 150.969C122.429 149.8 121.499 148.845 121.051 148.845C120.018 148.845 120.028 149.367 121.12 151.97C122.038 154.166 122.353 154.371 123.611 153.573ZM107.923 150.599C108.585 149.008 108.909 147.572 108.645 147.409C108.381 147.246 107.183 148.197 105.985 149.523C103.932 151.797 103.867 151.98 104.871 152.714C106.447 153.867 106.613 153.752 107.923 150.599ZM125.413 149.663C122.428 146.582 121.61 147.168 123.775 150.837C124.829 152.622 125.145 152.812 126.161 152.269C127.29 151.66 127.263 151.575 125.413 149.663ZM105.36 149.097C106.579 147.639 107.435 146.305 107.263 146.133C107.09 145.961 105.765 146.81 104.317 148.02C102.292 149.713 101.83 150.398 102.317 150.985C102.666 151.405 102.995 151.748 103.048 151.748C103.099 151.748 104.141 150.556 105.36 149.097ZM128.72 149.912C129.168 149.183 126.275 146.529 125.03 146.524C123.926 146.52 124.148 147.167 125.864 148.959C127.583 150.753 128.095 150.924 128.72 149.912ZM103.878 147.538C105.174 146.5 106.248 145.323 106.265 144.924C106.307 143.98 106.391 143.963 102.571 145.653C99.6131 146.961 99.3462 147.223 99.905 148.267C100.736 149.818 101.122 149.748 103.878 147.538ZM121.931 147.418C127.024 144.784 126.472 133.331 121.145 131.105C116.946 129.351 109.599 130.737 107.506 133.671C103.997 138.599 106.318 146.571 111.752 148.252C114.26 149.032 119.677 148.584 121.931 147.418ZM112.233 141.551C111.331 140.917 110.942 140.054 110.942 138.679C110.942 135.204 114.59 133.783 117.544 136.107C120.493 138.426 118.883 142.455 115.009 142.455C114.192 142.455 112.943 142.053 112.233 141.551ZM117.35 140.814C118.466 139.911 118.576 139.503 118.096 138.054C117.626 136.635 117.175 136.325 115.359 136.173C114.163 136.07 112.811 136.301 112.354 136.678C111.111 137.709 111.351 139.944 112.814 140.968C114.505 142.153 115.748 142.111 117.35 140.814ZM130.592 145.481C131.277 143.43 131.27 143.423 127.353 142.203C125.126 141.508 125.795 143.457 128.225 144.738C130.788 146.091 130.357 146.3 127.48 145.098C125.81 144.404 125.465 144.395 125.465 145.012C125.465 145.911 129.055 148.26 129.598 147.717C129.794 147.519 130.242 146.499 130.592 145.449L130.592 145.481ZM103.084 144.658C106.285 143.103 106.495 142.169 103.536 142.659C102.337 142.856 100.769 143.019 100.05 143.027C99.0447 143.031 98.7428 143.37 98.7428 144.486C98.7428 146.293 99.6481 146.33 103.084 144.658ZM102.438 142.081C104.548 141.789 105.133 141.472 105.133 140.629C105.133 139.735 104.683 139.545 102.566 139.545C99.2515 139.545 98.1617 139.991 98.1617 141.351C98.1617 142.563 98.502 142.622 102.438 142.081ZM131.275 141.292C131.275 140.333 130.888 140.131 129.048 140.131C126.06 140.131 125.548 140.817 127.901 141.67C130.663 142.671 131.275 142.601 131.275 141.292ZM131.275 138.315C131.275 137.243 131.038 137.129 129.46 137.444C128.461 137.641 127.285 137.804 126.845 137.804C126.406 137.804 126.047 138.198 126.047 138.675C126.047 139.318 126.724 139.547 128.661 139.547C130.939 139.547 131.275 139.395 131.275 138.315ZM105.133 138.401C105.133 138.084 104.545 137.818 103.826 137.81C103.107 137.805 101.538 137.638 100.34 137.441C98.5662 137.15 98.1617 137.253 98.1617 138.033C98.1617 138.804 98.8122 138.98 101.647 138.98C103.584 138.98 105.133 138.727 105.133 138.401ZM105.304 136.47C105.503 135.956 104.554 135.344 102.418 134.618C99.6857 133.689 99.162 133.653 98.7081 134.369C97.6534 136.035 98.1579 136.593 100.921 136.81C102.439 136.93 103.979 137.076 104.345 137.136C104.71 137.222 105.142 136.899 105.304 136.47ZM129.58 136.659C131.351 136.659 131.593 136.316 130.757 134.997C130.339 134.337 129.908 134.337 128.152 134.997C126.994 135.417 126.047 136.126 126.047 136.575C126.047 137.081 126.396 137.261 126.965 137.038C127.471 136.841 128.647 136.687 129.58 136.687V136.659ZM106.112 134.007C106.379 133.202 101.082 130.017 100.488 130.625C99.2683 131.876 99.7479 132.742 102.228 133.767C104.935 134.885 105.804 134.94 106.112 134.007ZM128.184 134.213C130.149 133.502 130.559 132.931 129.549 132.307C128.852 131.878 125.466 133.567 125.466 134.345C125.466 135.074 125.847 135.053 128.184 134.213ZM126.802 132.223C127.824 131.7 128.774 131.176 128.912 131.052C129.309 130.692 125.313 126.778 124.551 126.778C123.44 126.778 122.252 130.186 123.075 131.01C123.597 131.533 124.089 131.284 125.171 129.962C126.862 127.892 127.135 128.564 125.465 130.682C123.468 133.222 123.885 133.706 126.802 132.223ZM106.545 131.28C103.385 127.495 103.216 127.361 102.424 128.019C101.225 129.014 101.47 129.549 103.826 131.092C106.692 132.969 108.033 133.06 106.545 131.28ZM108.161 128.23C106.792 125.412 106.47 125.225 104.928 126.353C104 127.03 104.09 127.289 106.057 129.587C108.845 132.844 110.031 132.08 108.161 128.23ZM111.063 127.605C110.424 125.882 109.769 125.035 109.074 125.035C107.743 125.035 107.768 125.712 109.202 128.525C109.962 130.014 110.652 130.696 111.191 130.49C111.893 130.215 111.874 129.787 111.063 127.605ZM113.266 127.356C113.266 124.839 113.111 124.451 112.104 124.451C111.465 124.451 110.942 124.64 110.942 124.871C110.942 125.497 112.81 130.264 113.054 130.264C113.171 130.264 113.266 128.954 113.266 127.356ZM122.706 128.287C123.649 126.309 123.537 125.613 122.271 125.613C121.542 125.613 120.154 129.404 120.689 129.939C121.337 130.59 121.784 130.221 122.706 128.287ZM115.476 126.966C115.283 123.99 113.841 122.617 113.855 125.42C113.863 127.683 114.454 129.681 115.108 129.681C115.408 129.681 115.574 128.459 115.476 126.966ZM117.913 126.777C117.913 124.582 117.7 123.872 117.042 123.872C116.402 123.872 116.171 124.54 116.171 126.39C116.171 127.774 116.345 129.081 116.558 129.295C117.503 130.239 117.913 129.475 117.913 126.777ZM120.18 127.852C121.095 125.229 120.976 124.453 119.657 124.453C118.667 124.453 118.495 124.839 118.495 127.067C118.495 130.109 119.268 130.466 120.18 127.852ZM154.415 159.006C156.438 158.526 159.362 157.593 160.912 156.927L163.731 155.714L161.284 152.709C159.939 151.059 157.604 147.567 156.097 144.953C153.151 139.846 150.946 137.769 146.993 136.374C143.705 135.214 143.475 135.247 143.475 136.871C143.475 137.997 143.849 138.308 145.532 138.58C146.663 138.769 148.473 139.461 149.553 140.128C151.797 141.516 159.947 152.708 159.521 153.818C159.366 154.221 157.774 155.1 155.983 155.77C152.432 157.099 145.143 157.416 140.877 156.43C136.499 155.415 137.621 157.133 142.417 158.793C146.185 160.093 149.568 160.155 154.415 159.015V159.006ZM89.942 158.091C90.9482 157.739 91.7714 157.087 91.7714 156.639C91.7714 156.021 90.8036 155.824 87.6863 155.824C85.3825 155.824 82.6982 155.447 81.5306 154.959C78.5199 153.701 70.2769 148.714 70.2769 148.151C70.2769 147.885 71.9257 146.021 73.9408 144.006C77.7195 140.228 83.779 136.654 86.4076 136.654C87.4652 136.654 87.739 136.423 87.4766 135.735C87.2829 135.23 87.1235 134.542 87.1235 134.208C87.1235 133.187 82.4708 134.217 78.622 136.089C75.0066 137.847 68.7658 143.792 66.6935 147.45L65.7248 149.161L71.0506 152.782C78.9772 158.174 84.9179 159.842 89.942 158.091ZM98.1906 157.842C99.1333 157.353 99.9045 156.717 99.9045 156.424C99.9045 155.432 98.7945 155.2 97.6024 155.944C95.3312 157.363 92.9632 154.111 94.7231 151.99C95.2408 151.365 95.2639 150.951 94.8088 150.493C94.3512 150.039 93.8422 150.407 92.9766 151.824C91.3986 154.413 91.4559 155.013 93.472 157.029C95.4227 158.98 95.8463 159.052 98.1906 157.842ZM136.1 157.551C136.923 156.908 137.756 155.871 137.951 155.256C138.323 154.085 136.839 150.595 135.97 150.595C135.215 150.595 134.728 152.248 135.367 152.643C136.286 153.209 135.995 154.996 134.809 156.069C133.898 156.892 133.465 156.954 132.423 156.395C131.572 155.941 130.958 155.907 130.568 156.301C130.178 156.687 130.534 157.182 131.647 157.784C133.84 158.972 134.329 158.945 136.1 157.551ZM156.428 154.788L159.215 153.54L155.893 148.727C151.453 142.293 150.556 141.332 147.832 140.073C144.919 138.729 143.186 138.7 141.505 139.971L140.189 140.963L141.832 142.346C143.182 143.482 143.475 144.189 143.475 146.317C143.475 149.673 145.476 151.923 148.22 151.649C152.062 151.263 153.487 146.054 150.101 144.765C148.065 143.994 146.379 144.98 146.379 146.951C146.379 148.392 146.431 148.423 147.167 147.414C147.667 146.728 148.318 146.477 148.953 146.72C150.147 147.174 149.957 148.774 148.606 149.625C147.181 150.522 145.798 149.11 145.798 146.765C145.798 144.436 147.352 143.36 149.904 143.92C152.877 144.572 153.72 148.065 151.565 150.804C149.811 153.034 146.273 152.965 144.117 150.658C142.719 149.162 142.432 149.067 141.449 149.787C140.843 150.232 139.716 150.592 138.944 150.592C137.832 150.592 137.63 150.807 137.968 151.609C138.203 152.166 138.521 153.203 138.675 153.91C139.051 155.639 142.343 156.387 148.703 156.188C152.241 156.076 154.431 155.685 156.428 154.788ZM97.3736 154.942C97.7241 154.029 96.6691 152.335 95.7486 152.335C94.8338 152.335 94.5153 154.056 95.2636 154.957C96.1803 156.062 96.9464 156.057 97.3739 154.957L97.3736 154.942ZM134.991 154.857C135.578 153.327 134.739 152.715 133.541 153.8C132.933 154.348 132.437 155.02 132.437 155.29C132.437 156.175 134.628 155.808 134.991 154.857ZM90.2716 154.857C90.7773 154.659 91.1905 154.205 91.1905 153.83C91.1905 153.461 91.8539 152.179 92.6638 150.987L94.1371 148.819H92.6349C90.552 148.819 87.8612 147.321 87.4144 145.914C86.6054 143.364 81.3477 142.305 79.6686 144.355C78.2284 146.112 78.911 150.274 80.7351 150.853C83.4913 151.728 85.6851 149.613 84.653 147.076L84.0625 145.623L83.6794 147.076C83.436 147.999 82.8824 148.528 82.1605 148.528C80.5357 148.528 80.3171 146.178 81.8648 145.35C82.8644 144.819 83.3088 144.947 84.5143 146.156C85.3113 146.953 85.9628 148.008 85.9628 148.503C85.9628 149.966 83.7664 151.724 81.9383 151.724C80.0798 151.724 77.8297 149.469 77.8297 147.606C77.8297 143.819 82.0619 141.233 85.3661 143.001C86.2586 143.481 86.5359 143.284 87.0399 141.841C87.3724 140.888 88.3069 139.806 89.1169 139.437C90.4785 138.819 90.5138 138.708 89.5832 138.001C88.0137 136.81 85.9777 137.057 82.049 138.915C78.1446 140.763 71.0374 147.118 71.692 148.177C72.249 149.079 79.7881 153.472 82.3406 154.383C84.6353 155.206 88.7327 155.449 90.2716 154.857ZM140.955 149.123C142.472 148.061 143.069 145.87 142.355 143.993C141.78 142.48 138.525 140.926 137.934 141.883C137.469 142.637 138.143 143.591 139.141 143.591C140.272 143.591 140.875 146.299 139.982 147.374C139.588 147.854 138.644 148.238 137.884 148.238C137.043 148.238 136.503 148.581 136.503 149.109C136.503 150.255 139.326 150.265 140.955 149.109L140.955 149.123ZM149.284 147.899C149.284 147.393 148.974 147.085 148.594 147.205C147.517 147.565 147.338 148.815 148.364 148.815C148.87 148.815 149.284 148.407 149.284 147.899ZM82.767 146.495C82.4859 146.041 82.1517 146.007 81.7644 146.392C81.4448 146.709 81.3728 147.28 81.605 147.656C81.8861 148.11 82.2204 148.144 82.6076 147.759C82.9273 147.441 82.9984 146.871 82.767 146.495ZM93.6911 147.112C93.4922 146.349 92.7981 145.924 91.567 145.804C89.898 145.641 89.7382 145.453 89.7382 143.595C89.7382 141.928 89.9739 141.527 91.0453 141.375C91.9027 141.255 92.3524 140.793 92.3524 140.029C92.3524 139.095 92.0978 138.945 91.0453 139.266C88.93 139.909 87.705 141.333 87.705 143.142C87.705 146.287 89.5157 148.11 92.7337 148.204C93.6956 148.204 93.9178 147.981 93.6911 147.112ZM139.347 146.864C140.151 145.895 139.593 144.177 138.475 144.177C138.03 144.177 137.662 144.374 137.658 144.614C137.653 144.854 137.492 145.637 137.3 146.355C136.897 147.859 138.244 148.197 139.347 146.864ZM92.9244 144.321C92.9073 142.73 91.9788 141.648 90.9587 142.04C90.0276 142.4 89.6874 144.222 90.4162 144.95C91.2167 145.747 92.9332 145.316 92.9244 144.321ZM141.549 138.846C142.289 138.152 142.894 136.964 142.894 136.206C142.894 134.22 140.333 131.858 138.425 132.084C136.446 132.315 135.903 133.719 137.791 133.719C140.728 133.719 141.723 137.285 139.117 138.472C138.319 138.832 137.665 139.353 137.665 139.622C137.665 140.593 140.236 140.08 141.549 138.846ZM92.3524 136.764C92.3524 136.198 91.8133 135.405 91.1545 134.993C89.2403 133.797 89.845 131.244 92.2072 130.549C94.5847 129.846 94.6473 129.072 92.3263 129.072C90.247 129.072 87.7053 131.314 87.7053 133.149C87.7053 134.54 88.7248 136.703 89.6803 137.341C90.8624 138.129 92.3524 137.801 92.3524 136.764ZM139.796 136.867C140.243 135.703 138.482 133.829 137.688 134.623C136.909 135.403 137.611 137.782 138.623 137.782C139.074 137.782 139.603 137.371 139.796 136.867ZM93.1977 132.699C93.5353 131.581 93.3776 131.392 92.1011 131.392C90.4733 131.392 90.0399 132.915 91.3066 134.181C92.1054 134.979 92.634 134.567 93.1977 132.699ZM158.527 133.651C163.106 132.939 165.55 131.744 165.55 130.227C165.55 128.663 163.115 128.15 159.394 128.931C156.07 129.625 148.332 132.702 146.61 134.01C145.63 134.756 146.024 134.816 150.155 134.541C152.711 134.37 156.479 133.974 158.527 133.651ZM83.8358 132.633C85.3241 132.05 73.9864 128.467 69.3888 128.071C66.5704 127.831 65.729 127.959 65.0796 128.739C64.3803 129.579 64.4248 129.864 65.413 130.851C66.0404 131.477 67.7179 132.22 69.1413 132.499C72.3062 133.116 82.3658 133.215 83.8358 132.633ZM87.3897 131.433C87.574 131.133 87.0898 129.957 86.3137 128.814C85.1943 127.164 81.3147 113.71 81.3147 111.478C81.3147 110.878 85.6522 110.973 90.0287 111.675C93.8487 112.293 99.372 114.464 101.113 116.038C101.951 116.801 102.147 116.793 102.791 116.038C103.772 114.858 103.284 113.823 100.878 111.989C97.0525 109.071 92.7755 107.954 85.2843 107.918C81.5567 107.918 78.3708 108.021 78.2045 108.183C77.8257 108.561 80.4379 124.395 81.3207 127.071C82.3449 130.173 86.3791 133.084 87.3897 131.449V131.433ZM141.441 130.023C144.738 128.481 147.738 125.664 149.264 122.679C150.422 120.413 151.775 114.706 151.327 113.981C150.859 113.227 137.572 112.629 135.858 113.287C135.024 113.604 133.598 114.626 132.69 115.547C131.321 116.936 131.033 117.731 131.011 120.182C130.985 122.779 131.104 123.076 131.963 122.618C133.646 121.718 135.623 122.043 137.665 123.546C140.061 125.314 141.671 125.381 143.687 123.795C146.304 121.737 145.249 116.865 142.185 116.865C139.357 116.865 137.743 119.616 139.524 121.397C140.61 122.484 141.015 122.229 140.712 120.643C140.488 119.475 140.669 119.191 141.63 119.191C143.098 119.191 143.662 120.005 143.2 121.466C142.492 123.696 139.562 123.392 138.257 120.951C137.468 119.476 138.5 117.201 140.341 116.361C142.381 115.432 144.531 116.473 145.532 118.867C146.991 122.358 144.686 125.579 140.731 125.579C139.037 125.579 138.827 125.759 138.827 127.193C138.827 128.08 138.42 129.387 137.923 130.097C136.722 131.811 137.654 131.79 141.441 130.011V130.023ZM137.184 129.851C138.696 128.482 138.526 125.811 136.82 124.104C135.228 122.513 134.336 122.368 132.178 123.35C131.045 123.864 130.851 124.198 131.34 124.79C131.799 125.338 132.282 125.398 133.065 124.978C134.476 124.224 136.803 126.329 136.192 127.809C134.918 130.893 135.258 131.593 137.184 129.851ZM91.9167 128.624C94.3243 128.341 94.4487 128.135 93.2053 126.489C92.236 125.207 92.0582 121.767 92.9336 121.227C93.9977 120.567 93.5327 117.997 92.0886 116.553C90.3268 114.791 88.4874 114.735 86.726 116.39C84.2351 118.73 85.4284 121.787 88.6867 121.414C89.933 121.269 90.3597 120.883 90.4898 119.775C90.6107 118.746 90.507 118.551 90.1299 119.106C89.4682 120.082 87.4148 119.749 87.4148 118.669C87.4148 117.567 89.0881 116.608 90.2405 117.051C92.1451 117.779 90.8807 122.68 88.7875 122.68C87.9484 122.68 85.7426 121.45 85.2452 120.705C83.7181 118.419 86.1506 114.548 89.115 114.548C91.3567 114.548 94.0956 116.78 94.0956 118.606C94.0956 119.623 94.2756 119.721 95.2193 119.215C96.7927 118.375 98.5143 118.461 100.515 119.498C102.115 120.329 102.229 120.312 102.229 119.309C102.229 116.138 95.1157 112.936 85.8172 111.921C81.8028 111.484 81.8875 111.124 83.9521 119.763C85.6486 126.857 87.2204 129.99 88.7457 129.319C89.2916 129.079 90.7185 128.761 91.9167 128.624ZM135.237 127.187C135.135 126.476 134.594 125.799 134.034 125.692C132.869 125.469 132.674 126.75 133.715 127.791C134.797 128.873 135.441 128.619 135.237 127.187ZM96.0042 127.181C96.1491 126.778 95.8782 126.008 95.4026 125.462C94.2759 124.167 94.8798 121.715 96.4484 121.217C97.1546 120.994 98.2342 121.217 99.1082 121.8C100.556 122.748 102.228 122.64 102.228 121.594C102.228 120.96 98.6603 119.187 97.392 119.187C96.0094 119.187 92.933 122.067 92.933 123.36C92.933 124.619 94.6677 127.9 95.3336 127.9C95.5573 127.9 95.8589 127.575 96.0038 127.172L96.0042 127.181ZM98.4997 124.369C99.5637 123.193 99.5648 123.129 98.5339 122.376C96.6684 121.011 94.4512 123.045 95.8997 124.785C96.7929 125.862 97.2092 125.799 98.4997 124.369ZM130.417 122.056C131.038 120.099 130.215 118.113 128.391 117.171C126.031 115.95 125.278 116.053 123.492 117.839C122.346 118.985 122.132 119.509 122.673 119.843C123.098 120.109 123.847 119.929 124.453 119.346C125.957 117.985 128.628 118.986 128.749 120.951C128.884 123.163 128.915 123.256 129.493 123.256C129.791 123.256 130.207 122.719 130.417 122.056ZM128.224 121.084C128.568 120.052 126.069 118.936 125.258 119.759C124.759 120.265 124.877 120.642 125.733 121.274C126.966 122.183 127.881 122.113 128.224 121.084ZM142.4 120.647C142.4 120.347 142.119 120.004 141.775 119.884C141.431 119.773 141.15 120.116 141.15 120.647C141.15 121.179 141.431 121.522 141.775 121.41C142.119 121.299 142.4 120.956 142.4 120.647ZM104.552 119.499C104.552 118.586 105.111 117.693 106.082 117.057C107.578 116.076 107.638 116.089 108.863 117.623C110.323 119.455 110.942 119.609 110.942 118.137C110.942 115.076 106.241 113.434 103.971 115.704C102.856 116.819 102.389 119.738 103.196 120.545C103.984 121.334 104.552 120.893 104.552 119.499ZM108.085 119.773C108.99 119.773 108.674 118.015 107.702 117.642C106.58 117.213 104.836 118.823 105.413 119.757C105.643 120.126 106.218 120.289 106.691 120.1C107.165 119.92 107.792 119.773 108.085 119.773ZM89.4477 118.287C89.4477 117.789 89.1864 117.541 88.8667 117.738C88.547 117.935 88.2856 118.347 88.2856 118.644C88.2856 118.944 88.547 119.193 88.8667 119.193C89.1864 119.193 89.4477 118.781 89.4477 118.287ZM120.818 117.995C120.818 114.908 118.015 112.935 115.166 114.018C113.302 114.729 112.706 115.519 112.694 117.308C112.685 118.995 113.984 118.996 114.726 117.31C115.764 114.951 119.075 115.555 119.075 118.107C119.075 118.707 119.467 119.198 119.947 119.198C120.44 119.198 120.818 118.672 120.818 117.995ZM118.494 117.781C118.494 116.632 117.549 116.147 116.165 116.586C114.326 117.169 114.744 118.618 116.752 118.618C117.882 118.618 118.494 118.329 118.494 117.781ZM124.517 111.988C124.474 109.953 123.985 106.888 123.429 105.176C122.346 101.837 119.701 96.5426 119.116 96.5426C118.507 96.5426 108.782 106.64 108.102 107.978C107.227 109.698 107.263 113.971 108.153 113.971C108.535 113.971 109.581 114.674 110.477 115.531C111.719 116.721 112.106 116.87 112.106 116.157C112.106 114.945 114.82 112.81 116.359 112.81C118.271 112.81 120.239 110.549 120.239 108.351C120.239 104.775 116.282 102.765 113.75 105.058C111.509 107.086 113.429 110.792 116.328 110.033L117.571 109.707L116.291 109.133C114.859 108.49 114.573 106.708 115.825 106.227C117.019 105.773 118.656 107.189 118.41 108.467C118.293 109.076 117.51 109.957 116.671 110.427C115.303 111.199 114.987 111.182 113.625 110.29C111.828 109.113 111.549 106.252 113.067 104.575C114.197 103.326 117.708 103.171 119.199 104.301C121.448 106.009 121.693 110.091 119.658 111.933C118.664 112.832 118.679 112.935 120.009 114.265C120.808 115.062 121.4 116.341 121.4 117.266V118.877L122.998 117.279C124.429 115.848 124.586 115.3 124.517 111.988ZM128.555 112.849C129.544 107.822 126.934 99.7868 122.266 93.486L120.217 90.7208L116.306 93.9806C105.14 103.287 104.511 104 103.752 108.201C103.326 110.559 104.301 113.971 105.401 113.971C105.833 113.971 106.285 112.887 106.497 111.346C107.021 107.523 107.953 106.122 113.837 100.319C118.97 95.2568 119.168 95.1274 120.045 96.252C122.844 99.8434 125.705 108.951 125.367 113.199C125.173 115.634 125.236 115.755 126.606 115.593C127.807 115.447 128.134 114.993 128.555 112.849ZM137.668 104.773C139.45 102.155 140.57 99.8828 140.57 98.88C140.57 95.5491 137.635 96.516 134.98 100.721C133.441 103.16 129.523 112.797 129.544 114.094C129.561 115.167 134.262 109.772 137.668 104.773ZM101.623 107.147C99.9265 101.953 96.5325 95.4823 95.1041 94.7177C93.4267 93.8203 92.116 95.3091 92.6081 97.5463C93.244 100.444 102.206 112.883 102.712 111.571C102.818 111.297 102.328 109.304 101.623 107.147ZM117.623 107.584C117.426 107.267 116.888 107.001 116.427 107.001C115.967 107.001 115.59 107.259 115.59 107.584C115.59 107.901 116.128 108.167 116.786 108.167C117.444 108.167 117.82 107.91 117.623 107.584Z" fill="black"/>
<defs>
<filter id="filter0_i_48_345" x="0" y="0" width="231" height="282" filterUnits="userSpaceOnUse" color-interpolation-filters="sRGB">
<feFlood flood-opacity="0" result="BackgroundImageFix"/>
<feBlend mode="normal" in="SourceGraphic" in2="BackgroundImageFix" result="shape"/>
<feColorMatrix in="SourceAlpha" type="matrix" values="0 0 0 0 0 0 0 0 0 0 0 0 0 0 0 0 0 0 127 0" result="hardAlpha"/>
<feOffset/>
<feGaussianBlur stdDeviation="8.5"/>
<feComposite in2="hardAlpha" operator="arithmetic" k2="-1" k3="1"/>
<feColorMatrix type="matrix" values="0 0 0 0 0 0 0 0 0 0 0 0 0 0 0 0 0 0 0.25 0"/>
<feBlend mode="normal" in2="shape" result="effect1_innerShadow_48_345"/>
</filter>
<filter id="filter1_d_48_345" x="14.4082" y="28.6797" width="202.184" height="230.424" filterUnits="userSpaceOnUse" color-interpolation-filters="sRGB">
<feFlood flood-opacity="0" result="BackgroundImageFix"/>
<feColorMatrix in="SourceAlpha" type="matrix" values="0 0 0 0 0 0 0 0 0 0 0 0 0 0 0 0 0 0 127 0" result="hardAlpha"/>
<feOffset dy="4"/>
<feGaussianBlur stdDeviation="2"/>
<feComposite in2="hardAlpha" operator="out"/>
<feColorMatrix type="matrix" values="0 0 0 0 0 0 0 0 0 0 0 0 0 0 0 0 0 0 0.25 0"/>
<feBlend mode="normal" in2="BackgroundImageFix" result="effect1_dropShadow_48_345"/>
<feBlend mode="normal" in="SourceGraphic" in2="effect1_dropShadow_48_345" result="shape"/>
</filter>
</defs>
</svg>
