<svg width="231" height="282" viewBox="0 0 231 282" fill="none" xmlns="http://www.w3.org/2000/svg">
<g filter="url(#filter0_i_48_70)">
<path d="M124.455 3.6419C124.455 3.64142 124.455 3.64145 124.455 3.64193C124.459 3.64566 124.464 3.65027 124.469 3.65589L124.455 3.6419L124.618 3.78745C124.844 3.98717 125.292 4.36966 125.986 4.90977C127.373 5.9896 129.754 7.70415 133.332 9.85124C140.485 14.1439 152.456 20.183 170.891 26.3293C189.751 32.6168 202.062 35.672 209.454 37.1508C213.145 37.8891 215.583 38.2291 216.977 38.3839C217.673 38.4611 218.102 38.4918 218.294 38.503L218.38 38.5077C225.37 38.6217 231 44.3238 231 51.3412V141.188C231 185.424 201.718 220.771 175.284 243.904C161.798 255.706 148.373 264.931 138.343 271.2C133.315 274.343 129.107 276.764 126.127 278.414C123.589 279.82 121.168 280.757 118.545 281.542C116.559 282.138 114.436 282.159 112.448 281.567C109.823 280.786 107.409 279.819 104.873 278.414C101.893 276.764 97.6848 274.343 92.6567 271.2C82.6279 264.931 69.2022 255.706 55.7159 243.904C29.2825 220.771 0 185.424 0 141.188V51.3412C0 44.3239 5.63062 38.6218 12.6197 38.5077L12.7064 38.503C12.8974 38.4918 13.3274 38.4611 14.0229 38.3839C15.4162 38.2291 17.8546 37.8891 21.5456 37.1508C28.9384 35.672 41.2488 32.6168 60.1084 26.3293C78.5444 20.183 90.5148 14.1439 97.6681 9.85124C101.246 7.70415 103.627 5.9896 105.014 4.90977C105.708 4.36966 106.156 3.98717 106.383 3.78745L106.545 3.6419C111.526 -1.21397 119.474 -1.21397 124.455 3.6419Z" fill="#EAD16A"/>
</g>
<g filter="url(#filter1_d_48_70)">
<path fill-rule="evenodd" clip-rule="evenodd" d="M105.819 32.6311C108.401 30.098 111.879 28.6797 115.501 28.6797C119.123 28.6797 122.601 30.098 125.183 32.6313C145.489 52.5349 171.834 56.3766 194.98 57.0864C199.099 57.1966 203.03 58.8299 206.007 61.6705C208.982 64.5088 210.79 68.3492 211.076 72.4442C212.95 95.1978 213.086 118.06 211.484 140.834C211.482 140.862 211.479 140.89 211.476 140.918C206.18 188.98 175.152 227.639 130.72 247.812C121.052 252.202 109.946 252.202 100.278 247.812C55.8453 227.639 24.817 188.98 19.5214 140.918C19.5184 140.89 19.5158 140.862 19.5139 140.834C17.9129 118.06 18.0507 95.1978 19.926 72.4445C20.2124 68.3494 22.0204 64.5089 24.9951 61.6705C27.9721 58.8299 31.9038 57.1966 36.0227 57.0864C59.1658 56.3766 85.5108 52.5327 105.819 32.6311ZM115.501 32.9297C112.989 32.9297 110.58 33.9137 108.795 35.6656L108.794 35.6666C87.2916 56.7382 59.5452 60.6174 36.1483 61.3345L36.1395 61.3348C33.0698 61.4162 30.1426 62.6332 27.9291 64.7453C25.7158 66.8572 24.3748 69.712 24.1649 72.7518L24.1628 72.78C22.3053 95.3085 22.1675 117.945 23.7505 140.494C28.8758 186.871 58.8124 224.319 102.035 243.942C110.586 247.825 120.411 247.825 128.963 243.942C172.185 224.319 202.122 186.871 207.247 140.494C208.832 117.945 208.695 95.3085 206.84 72.7799L206.838 72.7518C206.628 69.712 205.287 66.8572 203.073 64.7453C200.86 62.6332 197.933 61.4162 194.863 61.3347L194.854 61.3345C171.455 60.6174 143.708 56.7405 122.208 35.6664L122.207 35.6656C120.422 33.9137 118.013 32.9297 115.501 32.9297Z" fill="#171717"/>
</g>
<g clip-path="url(#clip0_48_70)">
<path d="M80.9097 177.527C79.683 178.889 78.7673 180.456 78.2547 182.042C77.8959 183.159 77.7236 184.262 77.7236 185.294C77.7236 185.924 77.786 186.525 77.9214 187.092C78.0241 187.514 78.1631 187.916 78.3499 188.286C78.4891 188.568 78.6576 188.836 78.8552 189.077C79.1519 189.436 79.518 189.747 79.9539 189.963C80.3861 190.183 80.8842 190.3 81.3895 190.297V188.008C81.2833 188.008 81.2027 187.993 81.1258 187.971C80.9904 187.935 80.8804 187.872 80.756 187.762C80.6681 187.678 80.5729 187.568 80.485 187.418C80.3531 187.202 80.2286 186.902 80.1445 186.543C80.0604 186.18 80.0125 185.759 80.0125 185.294C80.0125 184.521 80.148 183.643 80.4337 182.742C80.7011 181.914 81.1258 181.057 81.6825 180.244C82.5138 179.021 83.6491 177.904 84.96 177.106C85.6118 176.706 86.3149 176.384 87.0438 176.164C87.7762 175.945 88.5417 175.827 89.3327 175.827C90.3874 175.827 91.3982 176.04 92.343 176.421C93.7565 176.984 95.0346 177.933 96.0564 179.065C97.0746 180.193 97.8325 181.503 98.2282 182.741C98.5174 183.642 98.6531 184.521 98.6531 185.294C98.6531 185.766 98.6018 186.195 98.5139 186.558C98.4515 186.828 98.3636 187.07 98.2685 187.261C98.1951 187.407 98.1182 187.524 98.0379 187.623C97.9207 187.766 97.8035 187.858 97.69 187.916C97.5729 187.971 97.4519 188.004 97.2761 188.008V190.297C97.5764 190.3 97.8731 190.256 98.155 190.18C98.6493 190.044 99.0925 189.788 99.4551 189.454C99.7261 189.205 99.9532 188.92 100.14 188.609C100.426 188.14 100.623 187.62 100.751 187.063C100.879 186.506 100.942 185.913 100.942 185.294C100.942 184.262 100.77 183.156 100.411 182.042C100.07 180.984 99.5503 179.937 98.8764 178.951C97.8656 177.475 96.5179 176.135 94.8993 175.146C94.09 174.656 93.2146 174.253 92.2809 173.975C91.3471 173.689 90.3583 173.535 89.3329 173.535C87.967 173.535 86.6632 173.814 85.473 174.293C83.6819 175.011 82.1364 176.168 80.9097 177.527Z" fill="black"/>
<path d="M93.812 186.963C93.4384 187.26 93.2188 187.707 93.2188 188.186V190.036C93.2188 190.512 93.4386 190.962 93.812 191.259C94.1855 191.552 94.6763 191.662 95.1376 191.552L96.3718 191.259V186.96L95.1376 186.667C94.6761 186.557 94.1855 186.667 93.812 186.963Z" fill="black"/>
<path d="M83.5287 186.667L82.291 186.96V191.259L83.5287 191.552C83.9902 191.662 84.481 191.552 84.8544 191.259C85.228 190.962 85.4476 190.512 85.4476 190.036V188.186C85.4476 187.707 85.2277 187.26 84.8544 186.963C84.481 186.667 83.9902 186.557 83.5287 186.667Z" fill="black"/>
<path d="M161.278 181.686C160.806 179.921 160.14 178.339 159.319 176.933C157.88 174.461 155.976 172.538 153.874 171.015C152.296 169.872 150.611 168.938 148.897 168.136C146.33 166.935 143.704 166.012 141.28 165.115C138.856 164.221 136.64 163.346 134.915 162.328C134.285 161.955 133.718 161.566 133.227 161.16C132.495 160.549 131.923 159.896 131.51 159.168C131.096 158.439 130.817 157.619 130.711 156.593C130.634 155.861 130.601 155.172 130.601 154.513C130.601 152.573 130.887 150.892 131.253 149.174C132.337 147.951 133.329 146.493 134.267 144.75C135.208 142.996 136.102 140.949 136.992 138.525C137.563 138.265 138.138 137.953 138.698 137.572C139.98 136.715 141.196 135.514 142.21 133.914C143.221 132.314 144.034 130.325 144.59 127.871C144.744 127.19 144.817 126.513 144.817 125.846C144.821 124.455 144.491 123.129 143.938 121.943C143.554 121.118 143.067 120.364 142.499 119.679C142.788 118.61 143.14 117.171 143.455 115.486C143.887 113.146 144.246 110.334 144.246 107.378C144.246 105.47 144.096 103.5 143.708 101.555C143.418 100.098 142.99 98.6513 142.389 97.267C141.485 95.1832 140.17 93.2241 138.343 91.6055C136.651 90.1076 134.53 88.9139 131.97 88.1484C131.066 87.0645 130.158 86.1415 129.227 85.358C128.422 84.6841 127.598 84.1165 126.755 83.6515C125.488 82.9484 124.177 82.4834 122.833 82.2012C121.49 81.919 120.12 81.8166 118.699 81.8166C116.74 81.8166 114.678 82.0106 112.4 82.234C111.539 82.3219 110.818 82.428 110.192 82.538C109.258 82.7065 108.558 82.8785 107.998 82.9922C107.716 83.047 107.471 83.0911 107.229 83.1204C106.988 83.1459 106.753 83.1645 106.486 83.1645C106.127 83.1645 105.713 83.1352 105.171 83.0583C103.512 82.8166 101.996 82.443 100.806 82.0767C100.213 81.8972 99.6999 81.7179 99.2971 81.5639C99.0957 81.487 98.9199 81.4174 98.7807 81.3588C98.638 81.3002 98.5316 81.2454 98.4695 81.2161L98.4732 81.2198C98.2902 81.1247 98.1144 81.0734 97.9569 81.0441C97.7994 81.0073 97.6604 81 97.5395 81C97.2868 81 97.1073 81.0366 96.9645 81.0734C96.8218 81.1102 96.7119 81.154 96.613 81.1943C96.4224 81.2712 96.276 81.3518 96.1295 81.4397C95.862 81.6009 95.6059 81.7802 95.3347 81.9891C94.8622 82.3554 94.3424 82.8094 93.7892 83.344C92.9617 84.1423 92.0753 85.1091 91.2697 86.1638C90.8668 86.6873 90.4897 87.2367 90.1492 87.8044C89.8086 88.372 89.5084 88.9542 89.2703 89.5659C88.1056 92.5945 87.3367 95.385 86.8606 97.9596C86.3809 100.534 86.1978 102.893 86.1978 105.057C86.1978 108.598 86.6921 111.601 87.1684 114.139C87.1684 114.26 87.1721 114.373 87.1794 114.494C87.1942 114.732 87.2197 114.978 87.2453 115.234C87.2856 115.615 87.3294 116.006 87.3624 116.336C87.3807 116.501 87.3955 116.647 87.4065 116.761C87.4103 116.816 87.4138 116.867 87.4138 116.904L87.4175 116.94V116.951V116.955V117.171L87.8825 119.24C87.2124 119.973 86.6338 120.793 86.1833 121.694C85.5533 122.946 85.1799 124.36 85.1799 125.854C85.1799 126.513 85.2568 127.194 85.4106 127.872C85.7769 129.509 86.2639 130.937 86.8461 132.182C87.7178 134.053 88.8238 135.507 90.0467 136.599C90.9953 137.448 92.0096 138.067 93.013 138.525C93.8992 140.949 94.7928 142.993 95.7338 144.747C96.6713 146.494 97.6602 147.948 98.7442 149.171C99.1105 150.888 99.396 152.573 99.3997 154.514C99.3997 155.173 99.3631 155.861 99.2863 156.594C99.2129 157.297 99.0592 157.905 98.8358 158.454C98.5025 159.275 98.0155 159.974 97.3527 160.637C96.6899 161.289 95.8438 161.901 94.8442 162.468C93.8298 163.043 92.6542 163.582 91.3761 164.094C89.1348 165.003 86.5787 165.859 83.9895 166.896C82.0487 167.669 80.082 168.551 78.207 169.654C76.8008 170.481 75.4494 171.441 74.2044 172.579C72.3404 174.286 70.7326 176.414 69.6231 179.043C68.5098 181.676 67.8908 184.793 67.8945 188.477C67.8945 188.997 68.0045 189.491 68.1838 189.949C68.3485 190.377 68.5794 190.769 68.8503 191.143C69.3631 191.839 70.0222 192.461 70.8315 193.062C72.2525 194.109 74.1383 195.09 76.581 196.013C80.2431 197.394 85.1504 198.636 91.4968 199.536C97.8397 200.437 105.622 201.001 114.997 201.001C123.13 201.001 130.059 200.58 135.893 199.881C140.265 199.353 144.026 198.672 147.216 197.892C149.611 197.31 151.687 196.669 153.467 195.995C154.8 195.49 155.972 194.963 156.99 194.42C157.752 194.014 158.426 193.596 159.023 193.168C159.916 192.52 160.634 191.853 161.18 191.095C161.454 190.718 161.678 190.315 161.842 189.876C162.007 189.443 162.106 188.967 162.106 188.477C162.106 185.956 161.817 183.704 161.278 181.686ZM131.703 164.928L119.948 183.286L118.637 174.274L121.973 170.744L119.812 167.14L128.931 162.346C129.184 162.672 129.451 162.98 129.733 163.273C130.337 163.892 131 164.438 131.703 164.928ZM97.9093 101.427C108.508 103.778 129.231 99.2848 129.231 99.2848C129.231 99.2848 129.455 104.423 132.989 109.14C134.38 110.993 135.527 113.889 136.387 116.643C136.157 116.215 135.614 116.054 134.805 115.951C132.989 115.706 130.29 115.548 127.25 115.695C118.22 116.138 118.89 116.958 115.345 116.958C111.8 116.958 112.47 116.138 103.439 115.695C100.4 115.548 97.7007 115.706 95.8806 115.951C94.9358 116.076 94.3424 116.266 94.2069 116.896C94.1593 117.13 94.086 117.394 93.7602 117.522C94.76 113.787 97.5432 109.015 97.9093 101.427ZM134.67 122.36C134.67 122.411 134.633 127.59 131.11 129.358C129.913 129.962 128.411 130.296 126.884 130.299C125.273 130.299 123.8 129.933 122.625 129.241C121.325 128.479 120.45 127.348 120.021 125.886C119.919 125.546 119.827 125.205 119.732 124.875C119.454 123.868 118.703 121.071 120.296 119.84C121.321 119.038 124.504 118.533 127.554 118.533C130.326 118.533 133.154 118.91 133.981 119.774C134.527 120.346 134.739 121.364 134.67 122.36ZM110.957 124.876C110.862 125.205 110.767 125.546 110.668 125.887C110.24 127.348 109.364 128.479 108.068 129.241C106.889 129.933 105.417 130.3 103.805 130.3C102.278 130.296 100.78 129.963 99.5792 129.358C96.0563 127.59 96.0233 122.411 96.0195 122.36C95.9499 121.364 96.1623 120.346 96.7044 119.775C97.5357 118.91 100.363 118.533 103.135 118.533C106.182 118.533 109.368 119.039 110.397 119.841C111.987 121.071 111.236 123.869 110.957 124.876ZM99.1911 142.89C98.2719 141.176 97.3564 139.045 96.4152 136.386L96.1039 135.518L95.2395 135.199C94.6388 134.98 94.0529 134.694 93.4928 134.317C92.6469 133.749 91.8449 132.973 91.1087 131.816C90.3725 130.658 89.7135 129.105 89.2374 127.007C89.1458 126.608 89.1092 126.227 89.1092 125.854C89.1092 125.011 89.3106 124.213 89.6952 123.451C90.0102 122.818 90.4496 122.221 90.9842 121.679C91.8852 123.041 92.6321 124.121 92.9033 124.392C93.4196 124.909 93.676 124.41 93.7163 123.444C94.0349 125.593 95.0567 129.142 98.3563 130.896C103.106 133.419 110.196 132.474 112.602 126.857C113.69 124.323 113.704 121.847 115.345 121.847C116.982 121.847 117 124.323 118.088 126.857C120.497 132.475 127.587 133.419 132.337 130.896C137.083 128.373 137.116 122.125 137.116 121.686C137.116 121.459 137.332 121.287 137.64 121.254C138.043 122.949 138.251 124.099 138.251 124.099C138.251 124.099 138.705 123.231 139.386 122.074C139.793 122.55 140.13 123.063 140.379 123.597C140.712 124.315 140.892 125.066 140.892 125.846C140.892 126.223 140.851 126.608 140.76 127.003C140.445 128.402 140.045 129.559 139.599 130.519C138.925 131.955 138.148 132.943 137.336 133.669C136.526 134.394 135.662 134.866 134.765 135.199L133.897 135.514L133.589 136.386C132.648 139.045 131.729 141.18 130.81 142.89C129.887 144.604 128.971 145.893 128.019 146.896L127.642 147.295L127.525 147.826C127.1 149.786 126.675 151.95 126.675 154.513C126.675 155.304 126.716 156.128 126.804 156.996C126.91 158.014 127.144 158.97 127.492 159.849C127.507 159.889 127.529 159.933 127.543 159.97L115.616 166.243L102.396 160.109C102.802 159.157 103.077 158.117 103.194 156.997C103.286 156.129 103.322 155.305 103.322 154.514C103.326 151.95 102.901 149.782 102.473 147.823L102.355 147.292L101.978 146.896C101.03 145.885 100.11 144.604 99.1911 142.89ZM99.0849 164.342C99.7735 163.789 100.407 163.17 100.967 162.475L111.049 167.155L108.896 170.744L112.228 174.274L110.998 182.759L98.1364 165.038C98.4624 164.815 98.781 164.584 99.0849 164.342ZM158.177 188.461C158.173 188.483 158.147 188.556 158.078 188.673C157.946 188.9 157.638 189.266 157.118 189.684C156.668 190.047 156.06 190.453 155.295 190.871C153.951 191.607 152.131 192.372 149.823 193.097C146.359 194.189 141.785 195.185 136.014 195.91C130.242 196.628 123.273 197.074 114.997 197.074C107.006 197.074 100.231 196.657 94.5767 195.979C90.336 195.47 86.7252 194.811 83.7149 194.079C81.4517 193.526 79.5254 192.929 77.9251 192.321C76.7202 191.867 75.6985 191.406 74.8599 190.955C74.2299 190.618 73.6991 190.285 73.2669 189.977C72.6224 189.516 72.2122 189.095 72.0071 188.805C71.9045 188.666 71.8534 188.556 71.8351 188.505C71.8241 188.483 71.8203 188.469 71.8203 188.461C71.8203 186.264 72.0695 184.382 72.5014 182.748C72.8785 181.32 73.3986 180.079 74.0321 178.98C75.1381 177.057 76.592 175.549 78.3205 174.278C79.6095 173.322 81.0561 172.505 82.5868 171.776C84.3043 170.96 86.128 170.257 87.9592 169.579V173.534H89.3324H90.7056V168.565C92.4561 167.909 94.1626 167.235 95.7519 166.43L116.073 194.427L133.827 166.708C133.882 166.792 133.937 166.877 133.988 166.957C134.728 168.147 135.244 169.444 135.588 170.912C135.929 172.377 136.086 174.018 136.086 175.845C136.086 180.079 136.086 183.766 136.086 186.249H129.707V189H145.411V186.249H139.031C139.031 183.766 139.031 180.079 139.031 175.845C139.031 173.183 138.727 170.759 137.973 168.547C137.907 168.356 137.837 168.166 137.764 167.979C139.91 168.825 142.155 169.586 144.33 170.451C146.194 171.187 148.003 171.993 149.648 172.948C150.885 173.666 152.032 174.472 153.05 175.387C154.577 176.775 155.829 178.412 156.73 180.51C157.627 182.605 158.177 185.183 158.177 188.461Z" fill="black"/>
</g>
<defs>
<filter id="filter0_i_48_70" x="0" y="0" width="231" height="282" filterUnits="userSpaceOnUse" color-interpolation-filters="sRGB">
<feFlood flood-opacity="0" result="BackgroundImageFix"/>
<feBlend mode="normal" in="SourceGraphic" in2="BackgroundImageFix" result="shape"/>
<feColorMatrix in="SourceAlpha" type="matrix" values="0 0 0 0 0 0 0 0 0 0 0 0 0 0 0 0 0 0 127 0" result="hardAlpha"/>
<feOffset/>
<feGaussianBlur stdDeviation="8.5"/>
<feComposite in2="hardAlpha" operator="arithmetic" k2="-1" k3="1"/>
<feColorMatrix type="matrix" values="0 0 0 0 0 0 0 0 0 0 0 0 0 0 0 0 0 0 0.25 0"/>
<feBlend mode="normal" in2="shape" result="effect1_innerShadow_48_70"/>
</filter>
<filter id="filter1_d_48_70" x="14.4082" y="28.6797" width="202.184" height="230.424" filterUnits="userSpaceOnUse" color-interpolation-filters="sRGB">
<feFlood flood-opacity="0" result="BackgroundImageFix"/>
<feColorMatrix in="SourceAlpha" type="matrix" values="0 0 0 0 0 0 0 0 0 0 0 0 0 0 0 0 0 0 127 0" result="hardAlpha"/>
<feOffset dy="4"/>
<feGaussianBlur stdDeviation="2"/>
<feComposite in2="hardAlpha" operator="out"/>
<feColorMatrix type="matrix" values="0 0 0 0 0 0 0 0 0 0 0 0 0 0 0 0 0 0 0.25 0"/>
<feBlend mode="normal" in2="BackgroundImageFix" result="effect1_dropShadow_48_70"/>
<feBlend mode="normal" in="SourceGraphic" in2="effect1_dropShadow_48_70" result="shape"/>
</filter>
<clipPath id="clip0_48_70">
<rect width="120" height="120" fill="white" transform="translate(55 81)"/>
</clipPath>
</defs>
</svg>
