<svg width="231" height="282" viewBox="0 0 231 282" fill="none" xmlns="http://www.w3.org/2000/svg">
<g filter="url(#filter0_i_48_69)">
<path d="M124.455 3.6419C124.455 3.64142 124.455 3.64145 124.455 3.64193C124.459 3.64566 124.464 3.65027 124.469 3.65589L124.455 3.6419L124.618 3.78745C124.844 3.98717 125.292 4.36966 125.986 4.90977C127.373 5.9896 129.754 7.70415 133.332 9.85124C140.485 14.1439 152.456 20.183 170.891 26.3293C189.751 32.6168 202.062 35.672 209.454 37.1508C213.145 37.8891 215.583 38.2291 216.977 38.3839C217.673 38.4611 218.102 38.4918 218.294 38.503L218.38 38.5077C225.37 38.6217 231 44.3238 231 51.3412V141.188C231 185.424 201.718 220.771 175.284 243.904C161.798 255.706 148.373 264.931 138.343 271.2C133.315 274.343 129.107 276.764 126.127 278.414C123.589 279.82 121.168 280.757 118.545 281.542C116.559 282.138 114.436 282.159 112.448 281.567C109.823 280.786 107.409 279.819 104.873 278.414C101.893 276.764 97.6848 274.343 92.6567 271.2C82.6279 264.931 69.2022 255.706 55.7159 243.904C29.2825 220.771 0 185.424 0 141.188V51.3412C0 44.3239 5.63062 38.6218 12.6197 38.5077L12.7064 38.503C12.8974 38.4918 13.3274 38.4611 14.0229 38.3839C15.4162 38.2291 17.8546 37.8891 21.5456 37.1508C28.9384 35.672 41.2488 32.6168 60.1084 26.3293C78.5444 20.183 90.5148 14.1439 97.6681 9.85124C101.246 7.70415 103.627 5.9896 105.014 4.90977C105.708 4.36966 106.156 3.98717 106.383 3.78745L106.545 3.6419C111.526 -1.21397 119.474 -1.21397 124.455 3.6419V3.6419Z" fill="#EAD16A"/>
</g>
<g filter="url(#filter1_d_48_69)">
<path fill-rule="evenodd" clip-rule="evenodd" d="M105.819 32.6311C108.401 30.098 111.879 28.6797 115.501 28.6797C119.123 28.6797 122.601 30.098 125.183 32.6313C145.489 52.5349 171.834 56.3766 194.98 57.0864C199.099 57.1966 203.03 58.8299 206.007 61.6705C208.982 64.5088 210.79 68.3492 211.076 72.4442C212.95 95.1978 213.086 118.06 211.484 140.834C211.482 140.862 211.479 140.89 211.476 140.918C206.18 188.98 175.152 227.639 130.72 247.812C121.052 252.202 109.946 252.202 100.278 247.812C55.8453 227.639 24.817 188.98 19.5214 140.918C19.5184 140.89 19.5158 140.862 19.5139 140.834C17.9129 118.06 18.0507 95.1978 19.926 72.4445C20.2124 68.3494 22.0204 64.5089 24.9951 61.6705C27.9721 58.8299 31.9038 57.1966 36.0227 57.0864C59.1658 56.3766 85.5108 52.5327 105.819 32.6311ZM115.501 32.9297C112.989 32.9297 110.58 33.9137 108.795 35.6656L108.794 35.6666C87.2916 56.7382 59.5452 60.6174 36.1483 61.3345L36.1395 61.3348L36.1395 61.3347C33.0698 61.4162 30.1426 62.6332 27.9291 64.7453C25.7158 66.8572 24.3748 69.712 24.1649 72.7518L24.1628 72.78C22.3053 95.3085 22.1675 117.945 23.7505 140.494C28.8758 186.871 58.8124 224.319 102.035 243.942C110.586 247.825 120.411 247.825 128.963 243.942C172.185 224.319 202.122 186.871 207.247 140.494C208.832 117.945 208.695 95.3085 206.84 72.7799L206.838 72.7518C206.628 69.712 205.287 66.8572 203.073 64.7453C200.86 62.6332 197.933 61.4162 194.863 61.3347L194.854 61.3345C171.455 60.6174 143.708 56.7405 122.208 35.6664L122.207 35.6656C120.422 33.9137 118.013 32.9297 115.501 32.9297Z" fill="#171717"/>
</g>
<path d="M126.469 173.981C126.466 174.776 126.149 175.537 125.587 176.099C125.025 176.661 124.264 176.978 123.469 176.981H76.6816C75.887 176.978 75.1259 176.661 74.564 176.099C74.0021 175.537 73.685 174.776 73.6816 173.981V168.531C73.685 167.736 74.0021 166.975 74.564 166.413C75.1259 165.851 75.887 165.534 76.6816 165.531H123.469C124.264 165.532 125.026 165.849 125.588 166.411C126.151 166.974 126.467 167.736 126.469 168.531V173.981ZM108.993 157.642C108.533 157.643 108.077 157.552 107.652 157.375C107.227 157.198 106.842 156.939 106.517 156.613L86.3259 136.428C85.6692 135.771 85.3003 134.88 85.3003 133.952C85.3003 133.023 85.6692 132.133 86.3259 131.476C86.9825 130.819 87.873 130.451 88.8016 130.451C89.7302 130.451 90.6208 130.819 91.2774 131.476L111.463 151.674C111.953 152.163 112.286 152.787 112.422 153.466C112.557 154.145 112.488 154.849 112.223 155.489C111.958 156.129 111.509 156.676 110.933 157.06C110.357 157.444 109.679 157.649 108.987 157.649L108.993 157.642ZM155.288 163.908L127.221 135.834L134.073 128.988L114.033 108.948L95.2753 127.705L115.315 147.739L122.275 140.785L150.349 168.859C150.674 169.184 151.06 169.442 151.485 169.618C151.91 169.794 152.365 169.885 152.825 169.885C153.285 169.885 153.74 169.794 154.165 169.618C154.589 169.442 154.975 169.184 155.301 168.859C155.626 168.534 155.884 168.148 156.06 167.723C156.236 167.298 156.326 166.843 156.326 166.383C156.326 165.924 156.236 165.468 156.06 165.043C155.884 164.619 155.626 164.233 155.301 163.908H155.288ZM140.572 126.057C140.113 126.057 139.659 125.967 139.235 125.792C138.812 125.616 138.427 125.359 138.103 125.034L117.905 104.842C117.58 104.517 117.322 104.131 117.146 103.706C116.97 103.282 116.879 102.826 116.879 102.367C116.879 101.907 116.97 101.451 117.146 101.027C117.322 100.602 117.58 100.216 117.905 99.8907C118.23 99.5656 118.616 99.3077 119.041 99.1318C119.466 98.9558 119.921 98.8652 120.381 98.8652C120.84 98.8652 121.296 98.9558 121.72 99.1318C122.145 99.3077 122.531 99.5656 122.856 99.8907L143.042 120.082C143.531 120.571 143.865 121.194 144 121.873C144.136 122.552 144.067 123.255 143.803 123.895C143.538 124.534 143.09 125.081 142.515 125.466C141.94 125.851 141.264 126.056 140.572 126.057Z" fill="black"/>
<defs>
<filter id="filter0_i_48_69" x="0" y="0" width="231" height="282" filterUnits="userSpaceOnUse" color-interpolation-filters="sRGB">
<feFlood flood-opacity="0" result="BackgroundImageFix"/>
<feBlend mode="normal" in="SourceGraphic" in2="BackgroundImageFix" result="shape"/>
<feColorMatrix in="SourceAlpha" type="matrix" values="0 0 0 0 0 0 0 0 0 0 0 0 0 0 0 0 0 0 127 0" result="hardAlpha"/>
<feOffset/>
<feGaussianBlur stdDeviation="8.5"/>
<feComposite in2="hardAlpha" operator="arithmetic" k2="-1" k3="1"/>
<feColorMatrix type="matrix" values="0 0 0 0 0 0 0 0 0 0 0 0 0 0 0 0 0 0 0.25 0"/>
<feBlend mode="normal" in2="shape" result="effect1_innerShadow_48_69"/>
</filter>
<filter id="filter1_d_48_69" x="14.4082" y="28.6797" width="202.184" height="230.424" filterUnits="userSpaceOnUse" color-interpolation-filters="sRGB">
<feFlood flood-opacity="0" result="BackgroundImageFix"/>
<feColorMatrix in="SourceAlpha" type="matrix" values="0 0 0 0 0 0 0 0 0 0 0 0 0 0 0 0 0 0 127 0" result="hardAlpha"/>
<feOffset dy="4"/>
<feGaussianBlur stdDeviation="2"/>
<feComposite in2="hardAlpha" operator="out"/>
<feColorMatrix type="matrix" values="0 0 0 0 0 0 0 0 0 0 0 0 0 0 0 0 0 0 0.25 0"/>
<feBlend mode="normal" in2="BackgroundImageFix" result="effect1_dropShadow_48_69"/>
<feBlend mode="normal" in="SourceGraphic" in2="effect1_dropShadow_48_69" result="shape"/>
</filter>
</defs>
</svg>
