<svg width="231" height="282" viewBox="0 0 231 282" fill="none" xmlns="http://www.w3.org/2000/svg">
<g filter="url(#filter0_i_48_130)">
<path d="M124.455 3.6419C124.455 3.64142 124.455 3.64145 124.455 3.64193C124.459 3.64566 124.464 3.65027 124.469 3.65589L124.455 3.6419L124.618 3.78745C124.844 3.98717 125.292 4.36966 125.986 4.90977C127.373 5.9896 129.754 7.70415 133.332 9.85124C140.485 14.1439 152.456 20.183 170.891 26.3293C189.751 32.6168 202.062 35.672 209.454 37.1508C213.145 37.8891 215.583 38.2291 216.977 38.3839C217.673 38.4611 218.102 38.4918 218.294 38.503L218.38 38.5077C225.37 38.6217 231 44.3238 231 51.3412V141.188C231 185.424 201.718 220.771 175.284 243.904C161.798 255.706 148.373 264.931 138.343 271.2C133.315 274.343 129.107 276.764 126.127 278.414C123.589 279.82 121.168 280.757 118.545 281.542C116.559 282.138 114.436 282.159 112.448 281.567C109.823 280.786 107.409 279.819 104.873 278.414C101.893 276.764 97.6848 274.343 92.6567 271.2C82.6279 264.931 69.2022 255.706 55.7159 243.904C29.2825 220.771 0 185.424 0 141.188V51.3412C0 44.3239 5.63062 38.6218 12.6197 38.5077L12.7064 38.503C12.8974 38.4918 13.3274 38.4611 14.0229 38.3839C15.4162 38.2291 17.8546 37.8891 21.5456 37.1508C28.9384 35.672 41.2488 32.6168 60.1084 26.3293C78.5444 20.183 90.5148 14.1439 97.6681 9.85124C101.246 7.70415 103.627 5.9896 105.014 4.90977C105.708 4.36966 106.156 3.98717 106.383 3.78745L106.545 3.6419C111.526 -1.21397 119.474 -1.21397 124.455 3.6419V3.6419Z" fill="#EAD16A"/>
</g>
<g filter="url(#filter1_d_48_130)">
<path fill-rule="evenodd" clip-rule="evenodd" d="M105.819 32.6311C108.401 30.098 111.879 28.6797 115.501 28.6797C119.123 28.6797 122.601 30.098 125.183 32.6313C145.489 52.5349 171.834 56.3766 194.98 57.0864C199.099 57.1966 203.03 58.8299 206.007 61.6705C208.982 64.5088 210.79 68.3492 211.076 72.4442C212.95 95.1978 213.086 118.06 211.484 140.834C211.482 140.862 211.479 140.89 211.476 140.918C206.18 188.98 175.152 227.639 130.72 247.812C121.052 252.202 109.946 252.202 100.278 247.812C55.8453 227.639 24.817 188.98 19.5214 140.918C19.5184 140.89 19.5158 140.862 19.5139 140.834C17.9129 118.06 18.0507 95.1978 19.926 72.4445C20.2124 68.3494 22.0204 64.5089 24.9951 61.6705C27.9721 58.8299 31.9038 57.1966 36.0227 57.0864C59.1658 56.3766 85.5108 52.5327 105.819 32.6311ZM115.501 32.9297C112.989 32.9297 110.58 33.9137 108.795 35.6656L108.794 35.6666C87.2916 56.7382 59.5452 60.6174 36.1483 61.3345L36.1395 61.3348L36.1395 61.3347C33.0698 61.4162 30.1426 62.6332 27.9291 64.7453C25.7158 66.8572 24.3748 69.712 24.1649 72.7518L24.1628 72.78C22.3053 95.3085 22.1675 117.945 23.7505 140.494C28.8758 186.871 58.8124 224.319 102.035 243.942C110.586 247.825 120.411 247.825 128.963 243.942C172.185 224.319 202.122 186.871 207.247 140.494C208.832 117.945 208.695 95.3085 206.84 72.7799L206.838 72.7518C206.628 69.712 205.287 66.8572 203.073 64.7453C200.86 62.6332 197.933 61.4162 194.863 61.3347L194.854 61.3345C171.455 60.6174 143.708 56.7405 122.208 35.6664L122.207 35.6656C120.422 33.9137 118.013 32.9297 115.501 32.9297Z" fill="#171717"/>
</g>
<g clip-path="url(#clip0_48_130)">
<path d="M144.798 87.6351C138.733 80.2239 128.033 78.8797 120.331 84.318C120.331 84.318 120.921 86.4101 121.584 87.9273C121.62 88.0153 121.669 88.0522 121.708 88.1128C123.402 92.196 126.069 96.6925 129.66 101.086C133.884 106.242 138.532 110.277 142.727 112.713C150.027 106.301 150.997 95.2168 144.798 87.6351ZM144.524 100.519C144.867 100.051 145.564 99.9721 146.064 100.342C146.575 100.714 146.295 101.917 146.268 101.948C146.241 102.014 146.223 102.09 146.174 102.152C145.847 102.598 145.193 102.675 144.715 102.319C144.287 102.01 144.41 100.679 144.524 100.519ZM146.214 107.971C145.834 108.477 145.268 108.687 144.951 108.445C144.781 108.316 144.819 107.184 145.057 106.872C145.44 106.366 146.006 106.158 146.321 106.398C146.497 106.526 146.447 107.658 146.214 107.971ZM148.125 99.6162C147.793 99.8862 147.231 99.7503 146.869 99.3012C146.67 99.0612 146.566 97.9435 146.776 97.7753C147.106 97.5053 147.669 97.6435 148.032 98.0903C148.227 98.326 148.332 99.4451 148.125 99.6162ZM145.977 92.5245C146.238 92.3114 146.767 92.5147 147.152 92.9834C147.36 93.2352 147.596 94.3201 147.43 94.4559C147.164 94.6679 146.636 94.4692 146.256 93.9959C146.045 93.7394 145.815 92.6604 145.977 92.5245ZM145.82 96.1673C145.449 96.4724 144.817 96.317 144.413 95.8234C144.195 95.5584 144.081 94.3013 144.316 94.1069C144.693 93.8017 145.323 93.9549 145.728 94.4513C145.948 94.7201 146.055 95.9772 145.82 96.1673ZM143.233 87.9911C143.473 87.7958 144.022 88.0658 144.458 88.6026C144.694 88.8904 145.05 90.0494 144.9 90.1717C144.664 90.3621 144.122 90.0921 143.679 89.5579C143.443 89.2637 143.083 88.1085 143.233 87.9911ZM142.793 90.2458C143.032 90.5331 143.169 91.8744 142.923 92.078C142.534 92.3976 141.867 92.2185 141.429 91.6889C141.194 91.397 141.057 90.0554 141.296 89.8567C141.69 89.5325 142.357 89.7093 142.793 90.2458ZM139.772 92.3996C140.012 92.6869 140.055 94.1023 139.772 94.3374C139.332 94.7002 138.605 94.5687 138.167 94.0322C137.932 93.7449 137.884 92.3341 138.167 92.1051C138.617 91.7316 139.336 91.8657 139.772 92.3996ZM134.498 82.1879C134.85 81.9006 135.403 81.9932 135.732 82.3999C136.064 82.8031 136.05 83.365 135.694 83.6529C135.347 83.9356 134.795 83.8383 134.465 83.4351C134.136 83.0321 134.149 82.4711 134.498 82.1879ZM125.412 83.9315C125.103 84.1825 124.757 84.2886 124.479 84.2661C124.216 84.3117 123.975 84.2661 123.844 84.1026C123.592 83.7933 123.783 83.2182 124.265 82.8213C124.574 82.5704 124.919 82.4642 125.197 82.4861C125.463 82.4434 125.701 82.4907 125.839 82.6543C126.089 82.9618 125.899 83.532 125.412 83.9315ZM128.614 87.4021C128.123 87.8007 127.402 87.7349 127.004 87.2483C126.759 86.942 126.965 85.5722 127.232 85.3556C127.723 84.9523 128.442 85.0204 128.846 85.5047C129.087 85.8099 128.886 87.1808 128.614 87.4021ZM129.341 82.7149C128.798 82.78 128.293 82.538 128.222 82.1755C128.147 81.8184 128.528 81.4685 129.072 81.4016C129.62 81.3364 130.12 81.5738 130.196 81.9358C130.274 82.2981 129.89 82.6465 129.341 82.7149ZM131.819 92.594C131.327 92.9978 130.579 92.8865 130.142 92.3523C129.908 92.0644 129.912 90.6064 130.213 90.3572C130.704 89.9536 131.455 90.0652 131.889 90.6038C132.126 90.8913 132.117 92.3477 131.819 92.594ZM132.358 84.7853C131.925 85.254 131.266 85.3414 130.889 84.9927C130.653 84.7706 130.801 83.498 131.036 83.245C131.467 82.785 132.123 82.6877 132.502 83.0414C132.738 83.2623 132.59 84.5309 132.358 84.7853ZM135.708 97.8483C135.188 98.2686 134.394 98.1494 133.933 97.5829C133.681 97.2778 133.684 95.7265 134.006 95.4635C134.521 95.042 135.319 95.1583 135.779 95.7288C136.033 96.034 136.033 97.5829 135.708 97.8483ZM135.902 89.5965C135.458 89.9626 134.726 89.8302 134.297 89.2902C134.061 89.0029 134.01 87.5968 134.297 87.3611C134.744 86.9951 135.462 87.1234 135.902 87.6628C136.144 87.9507 136.181 89.3655 135.902 89.5965ZM137.346 85.1011C137.713 84.7914 138.344 84.9474 138.753 85.4461C138.974 85.7103 139.078 86.9674 138.85 87.1575C138.474 87.4638 137.842 87.3066 137.439 86.8136C137.216 86.5439 137.11 85.2927 137.346 85.1011ZM139.784 101.777C139.295 102.175 138.542 102.064 138.111 101.533C137.876 101.24 137.879 99.7866 138.186 99.5322C138.669 99.1342 139.421 99.2444 139.857 99.7786C140.092 100.07 140.089 101.523 139.784 101.777ZM140.131 85.792C139.949 85.541 139.812 84.479 139.991 84.3547C140.269 84.1548 140.77 84.3812 141.102 84.8545C141.281 85.1112 141.415 86.1684 141.24 86.293C140.959 86.4877 140.465 86.2653 140.131 85.792ZM141.369 96.4941C141.819 96.1223 142.543 96.2581 142.979 96.79C143.216 97.0779 143.257 98.4933 142.974 98.726C142.53 99.0929 141.806 98.9571 141.369 98.4255C141.133 98.1359 141.09 96.7251 141.369 96.4941ZM141.761 105.795C141.541 105.535 141.606 104.145 141.913 103.894C142.4 103.499 143.116 103.574 143.518 104.065C143.735 104.326 143.673 105.716 143.37 105.968C142.882 106.366 142.163 106.287 141.761 105.795Z" fill="black"/>
<path d="M140.262 114.539C136.157 112.08 131.648 108.136 127.551 103.115C122.726 97.232 119.458 91.089 118.153 86.1191C114.678 89.4882 112.83 93.9792 112.679 98.5412C114.053 102.248 116.195 106.055 119.128 109.621C121.47 112.479 124.072 114.86 126.741 116.768C127.193 116.869 127.649 116.942 128.106 117.008C128.15 117.036 128.194 117.073 128.237 117.103L128.316 117.046C132.369 117.598 136.602 116.796 140.262 114.539Z" fill="black"/>
<path d="M85.5921 193.257C85.5921 197.536 95.5488 201 107.828 201C120.105 201 130.061 197.536 130.061 193.257C130.061 189.272 121.405 185.994 110.292 185.568V132.022L115.833 127.515C116.302 127.137 116.429 126.447 116.277 125.663L124.575 119.721C121.705 117.755 118.901 115.211 116.391 112.15C113.249 108.325 110.976 104.215 109.628 100.262L101.205 107.954C100.797 107.922 100.417 107.967 100.134 108.196L89.4664 116.864C88.9481 117.286 88.8763 118.096 89.1163 118.99L83.8556 123.793C80.8129 126.283 80.2083 130.572 82.5054 133.381L87.1269 139.027C89.4284 141.834 93.7533 142.093 96.796 139.608L102.307 135.663C102.6 135.878 102.899 136.064 103.196 136.192V185.681C93.1398 186.427 85.5921 189.532 85.5921 193.257Z" fill="black"/>
</g>
<defs>
<filter id="filter0_i_48_130" x="0" y="0" width="231" height="282" filterUnits="userSpaceOnUse" color-interpolation-filters="sRGB">
<feFlood flood-opacity="0" result="BackgroundImageFix"/>
<feBlend mode="normal" in="SourceGraphic" in2="BackgroundImageFix" result="shape"/>
<feColorMatrix in="SourceAlpha" type="matrix" values="0 0 0 0 0 0 0 0 0 0 0 0 0 0 0 0 0 0 127 0" result="hardAlpha"/>
<feOffset/>
<feGaussianBlur stdDeviation="8.5"/>
<feComposite in2="hardAlpha" operator="arithmetic" k2="-1" k3="1"/>
<feColorMatrix type="matrix" values="0 0 0 0 0 0 0 0 0 0 0 0 0 0 0 0 0 0 0.25 0"/>
<feBlend mode="normal" in2="shape" result="effect1_innerShadow_48_130"/>
</filter>
<filter id="filter1_d_48_130" x="14.4082" y="28.6797" width="202.184" height="230.424" filterUnits="userSpaceOnUse" color-interpolation-filters="sRGB">
<feFlood flood-opacity="0" result="BackgroundImageFix"/>
<feColorMatrix in="SourceAlpha" type="matrix" values="0 0 0 0 0 0 0 0 0 0 0 0 0 0 0 0 0 0 127 0" result="hardAlpha"/>
<feOffset dy="4"/>
<feGaussianBlur stdDeviation="2"/>
<feComposite in2="hardAlpha" operator="out"/>
<feColorMatrix type="matrix" values="0 0 0 0 0 0 0 0 0 0 0 0 0 0 0 0 0 0 0.25 0"/>
<feBlend mode="normal" in2="BackgroundImageFix" result="effect1_dropShadow_48_130"/>
<feBlend mode="normal" in="SourceGraphic" in2="effect1_dropShadow_48_130" result="shape"/>
</filter>
<clipPath id="clip0_48_130">
<rect width="120" height="120" fill="white" transform="translate(55 81)"/>
</clipPath>
</defs>
</svg>
