<svg width="231" height="282" viewBox="0 0 231 282" fill="none" xmlns="http://www.w3.org/2000/svg">
<g filter="url(#filter0_i_48_240)">
<path d="M124.455 3.6419C124.455 3.64142 124.455 3.64145 124.455 3.64193C124.459 3.64566 124.464 3.65027 124.469 3.65589L124.455 3.6419L124.618 3.78745C124.844 3.98717 125.292 4.36966 125.986 4.90977C127.373 5.9896 129.754 7.70415 133.332 9.85124C140.485 14.1439 152.456 20.183 170.891 26.3293C189.751 32.6168 202.062 35.672 209.454 37.1508C213.145 37.8891 215.583 38.2291 216.977 38.3839C217.673 38.4611 218.102 38.4918 218.294 38.503L218.38 38.5077C225.37 38.6217 231 44.3238 231 51.3412V141.188C231 185.424 201.718 220.771 175.284 243.904C161.798 255.706 148.373 264.931 138.343 271.2C133.315 274.343 129.107 276.764 126.127 278.414C123.589 279.82 121.168 280.757 118.545 281.542C116.559 282.138 114.436 282.159 112.448 281.567C109.823 280.786 107.409 279.819 104.873 278.414C101.893 276.764 97.6848 274.343 92.6567 271.2C82.6279 264.931 69.2022 255.706 55.7159 243.904C29.2825 220.771 0 185.424 0 141.188V51.3412C0 44.3239 5.63062 38.6218 12.6197 38.5077L12.7064 38.503C12.8974 38.4918 13.3274 38.4611 14.0229 38.3839C15.4162 38.2291 17.8546 37.8891 21.5456 37.1508C28.9384 35.672 41.2488 32.6168 60.1084 26.3293C78.5444 20.183 90.5148 14.1439 97.6681 9.85124C101.246 7.70415 103.627 5.9896 105.014 4.90977C105.708 4.36966 106.156 3.98717 106.383 3.78745L106.545 3.6419C111.526 -1.21397 119.474 -1.21397 124.455 3.6419V3.6419Z" fill="#EAD16A"/>
</g>
<g filter="url(#filter1_d_48_240)">
<path fill-rule="evenodd" clip-rule="evenodd" d="M105.819 32.6311C108.401 30.098 111.879 28.6797 115.501 28.6797C119.123 28.6797 122.601 30.098 125.183 32.6313C145.489 52.5349 171.834 56.3766 194.98 57.0864C199.099 57.1966 203.03 58.8299 206.007 61.6705C208.982 64.5088 210.79 68.3492 211.076 72.4442C212.95 95.1978 213.086 118.06 211.484 140.834C211.482 140.862 211.479 140.89 211.476 140.918C206.18 188.98 175.152 227.639 130.72 247.812C121.052 252.202 109.946 252.202 100.278 247.812C55.8453 227.639 24.817 188.98 19.5214 140.918C19.5184 140.89 19.5158 140.862 19.5139 140.834C17.9129 118.06 18.0507 95.1978 19.926 72.4445C20.2124 68.3494 22.0204 64.5089 24.9951 61.6705C27.9721 58.8299 31.9038 57.1966 36.0227 57.0864C59.1658 56.3766 85.5108 52.5327 105.819 32.6311ZM115.501 32.9297C112.989 32.9297 110.58 33.9137 108.795 35.6656L108.794 35.6666C87.2916 56.7382 59.5452 60.6174 36.1483 61.3345L36.1395 61.3348C33.0698 61.4162 30.1426 62.6332 27.9291 64.7453C25.7158 66.8572 24.3748 69.712 24.1649 72.7518L24.1628 72.78C22.3053 95.3085 22.1675 117.945 23.7505 140.494C28.8758 186.871 58.8124 224.319 102.035 243.942C110.586 247.825 120.411 247.825 128.963 243.942C172.185 224.319 202.122 186.871 207.247 140.494C208.832 117.945 208.695 95.3085 206.84 72.7799L206.838 72.7518C206.628 69.712 205.287 66.8572 203.073 64.7453C200.86 62.6332 197.933 61.4162 194.863 61.3347L194.854 61.3345C171.455 60.6174 143.708 56.7405 122.208 35.6664L122.207 35.6656C120.422 33.9137 118.013 32.9297 115.501 32.9297Z" fill="#171717"/>
</g>
<g clip-path="url(#clip0_48_240)">
<path d="M134.186 108.582C134.432 108.355 134.72 108.179 135.033 108.064C135.347 107.95 135.681 107.898 136.015 107.913C136.439 107.899 136.86 108.001 137.231 108.207C137.602 108.413 137.911 108.717 138.123 109.084C138.84 110.327 138.81 112.616 138.329 114.033C137.988 115.036 137.431 116.571 136.085 117.671C135.789 117.918 135.445 118.1 135.075 118.207C134.705 118.314 134.317 118.343 133.935 118.292L133.729 118.259C133.527 118.943 133.28 119.614 132.989 120.266C132.41 121.839 129.05 127.592 124.903 129.311C124.903 129.64 124.903 129.883 124.903 129.883C124.903 130.123 124.903 130.889 124.903 131.604C122.933 133.158 119.035 136.226 118.657 136.492H117.505C117.133 136.228 113.375 133.273 111.373 131.694C111.373 131.079 111.373 130.191 111.373 129.387C109.359 128.586 107.585 127.151 105.905 125.14C104.231 123.118 102.989 120.774 102.255 118.254C101.848 118.34 101.427 118.332 101.024 118.232C100.62 118.131 100.245 117.939 99.9272 117.671C98.5821 116.571 98.0242 115.036 97.6837 114.033C97.2029 112.616 97.1726 110.327 97.8888 109.084C98.1014 108.717 98.4098 108.413 98.7811 108.207C99.1524 108.001 99.5728 107.899 99.9973 107.913C100.331 107.898 100.665 107.95 100.979 108.065C101.293 108.179 101.581 108.355 101.826 108.582C101.826 108.582 98.9 92.2441 118.007 92.2441C137.113 92.2441 134.186 108.582 134.186 108.582Z" fill="#EAD16A"/>
<path d="M115.577 164.236C114.763 162.008 114.129 160.041 113.078 156.813C110.68 149.449 108.452 141.351 106.746 133.777C105.982 134.267 105.017 134.943 104.042 135.712L103.294 136.006L100.792 136.989C94.7264 139.535 89.0188 142.178 86.2277 146.428L76.5459 157.541C76.7634 161.871 77.0041 165.148 77.3133 168.959C77.5092 171.368 77.7163 173.78 78.0402 176.175C78.2372 178.072 78.6349 179.943 79.2266 181.756C80.1909 184.704 82.3439 187.572 85.4656 188.44C88.5809 189.304 92.8993 188.869 95.1417 185.889C95.1554 187.181 95.1657 188.252 95.172 189.02H126.903C127.392 190.354 127.893 191.708 128.37 192.963C128.859 194.245 129.287 195.412 129.598 196.311C129.645 196.442 129.74 196.552 129.863 196.617C129.987 196.682 130.13 196.698 130.266 196.663C134.553 195.471 138.766 194.023 142.881 192.328C145.599 191.211 149.141 189.483 151.578 187.543C153.639 185.901 155.388 183.317 155.921 181.626C156.603 179.467 156.837 177.714 156.683 174.244C156.047 169.077 155.393 164.829 154.591 161.12C153.411 155.661 151.923 149.454 149.932 146.427C147.139 142.177 141.433 139.534 135.368 136.987L132.866 136.005L132.118 135.711C131.142 134.942 130.179 134.266 129.414 133.775C128.636 137.231 127.748 140.795 126.787 144.349C125.64 148.585 124.386 152.807 123.082 156.811C121.306 162.267 120.721 164.119 118.448 169.727H117.716C116.784 167.439 116.138 165.775 115.577 164.236Z" fill="#EAD16A"/>
<path d="M97.4661 97.992C97.4179 98.3934 97.3813 98.7568 97.3574 99.0534C97.0621 102.664 97.8857 105.541 98.9983 108.112C99.3166 107.988 99.6543 107.92 99.9959 107.913C100.33 107.898 100.663 107.949 100.977 108.064C101.291 108.179 101.579 108.355 101.825 108.582L102.619 109.347L102.65 109.011C102.745 107.764 102.927 106.524 103.195 105.302C103.48 103.949 103.841 102.547 105.065 101.424L107.718 99.5622C108.421 99.5219 109.247 99.4152 109.805 99.4338C114.86 99.6001 120.003 98.6434 123.916 96.807L127.028 98.6195C129.01 100.33 130.655 102.395 131.878 104.709C132.277 105.458 133.189 108.001 133.843 109.01C134.077 108.653 134.401 108.363 134.782 108.171C135.163 107.978 135.588 107.889 136.014 107.913C136.371 107.92 136.723 107.993 137.053 108.128C138.324 101.475 138.591 97.4514 136.019 92.2671C135.49 91.2657 134.852 90.3254 134.118 89.463C132.804 88.01 131.168 86.885 129.341 86.1781L125.838 84.6539C122.331 81.2333 115.991 81.2333 111.626 82.8487C107.532 84.3629 105.32 86.5003 102.665 88.4974C101.724 89.2532 100.635 89.8027 99.4685 90.1101L98.471 93.658C97.9868 94.5123 97.645 96.5044 97.4661 97.992Z" fill="#424242"/>
<path d="M115.015 122.226C115.992 122.73 117.079 122.982 118.177 122.957C119.313 123.006 120.434 122.676 121.362 122.02C121.511 121.87 121.595 121.667 121.595 121.456C121.595 121.245 121.511 121.042 121.362 120.892C121.21 120.747 121.008 120.666 120.798 120.666C120.588 120.666 120.386 120.747 120.234 120.892C120.474 120.704 120.282 120.852 120.22 120.892C120.158 120.932 120.091 120.97 120.024 121.005C119.97 121.033 119.731 121.129 119.945 121.05C119.855 121.083 119.766 121.118 119.674 121.149C119.427 121.228 119.173 121.286 118.916 121.322C119.031 121.306 118.879 121.325 118.837 121.33C118.763 121.337 118.688 121.343 118.614 121.348C118.435 121.36 118.255 121.364 118.075 121.363C117.914 121.363 117.753 121.357 117.593 121.346C117.519 121.34 117.445 121.334 117.372 121.327C117.368 121.327 117.106 121.291 117.258 121.315C117.019 121.278 116.782 121.226 116.55 121.158C116.45 121.128 116.354 121.091 116.256 121.058C116.223 121.049 116.192 121.037 116.162 121.021C116.322 121.13 116.245 121.059 116.181 121.028C116.059 120.971 115.939 120.911 115.821 120.848C115.637 120.746 115.421 120.719 115.217 120.772C115.014 120.825 114.839 120.955 114.729 121.135C114.625 121.318 114.596 121.535 114.649 121.739C114.703 121.943 114.834 122.118 115.015 122.227V122.226Z" fill="#211715"/>
<path d="M117.783 114.761C117.929 115.289 118.046 115.824 118.134 116.365L118.105 116.153C118.116 116.226 118.118 116.301 118.111 116.374L118.14 116.162C118.135 116.196 118.127 116.23 118.115 116.262L118.196 116.072C118.186 116.094 118.174 116.115 118.161 116.135L118.285 115.974C118.27 115.993 118.252 116.01 118.233 116.026L118.395 115.901C118.354 115.926 118.311 115.948 118.267 115.967L118.458 115.887C118.39 115.916 118.318 115.937 118.244 115.95L118.456 115.921C118.39 115.929 118.323 115.929 118.257 115.921L118.469 115.95C118.393 115.939 118.319 115.921 118.243 115.91C118.035 115.862 117.816 115.89 117.628 115.991C117.537 116.044 117.458 116.114 117.395 116.197C117.331 116.281 117.285 116.376 117.259 116.477C117.232 116.579 117.226 116.684 117.24 116.788C117.254 116.892 117.289 116.992 117.342 117.083C117.392 117.173 117.46 117.252 117.542 117.315C117.624 117.377 117.718 117.423 117.818 117.448C117.989 117.471 118.154 117.515 118.328 117.523C118.587 117.524 118.843 117.463 119.075 117.345C119.221 117.279 119.35 117.182 119.453 117.059C119.556 116.936 119.631 116.792 119.671 116.637C119.724 116.385 119.721 116.124 119.664 115.872C119.576 115.356 119.457 114.843 119.324 114.336C119.267 114.132 119.132 113.959 118.948 113.854C118.764 113.75 118.546 113.722 118.342 113.779C118.138 113.835 117.964 113.97 117.86 114.154C117.755 114.338 117.728 114.556 117.785 114.76L117.783 114.761Z" fill="#211715"/>
<path d="M109.242 110.224C108.976 111.095 109.149 113.098 110.798 113.268C112.979 113.255 113.094 110.834 112.361 109.695C111.76 108.763 109.993 108.375 109.242 110.224Z" fill="#211715"/>
<path d="M126.769 110.222C127.037 111.093 126.863 113.096 125.213 113.267C123.033 113.254 122.917 110.832 123.65 109.693C124.251 108.761 126.018 108.373 126.769 110.222Z" fill="#211715"/>
<path d="M102.389 108.018C101.864 107.549 101.211 107.247 100.513 107.15C99.8149 107.054 99.1042 107.168 98.4714 107.477C98.025 107.722 97.6384 108.062 97.3394 108.474C97.0404 108.886 96.8365 109.359 96.7423 109.859C96.4887 111.046 96.477 112.272 96.7079 113.464C96.9388 114.656 97.4076 115.789 98.0863 116.795C99.0592 118.246 100.469 119.31 102.288 119.061C102.492 119.004 102.664 118.869 102.769 118.685C102.873 118.501 102.901 118.284 102.846 118.08C102.785 117.879 102.649 117.709 102.466 117.605C102.284 117.501 102.068 117.472 101.864 117.522C100.59 117.696 99.6059 116.332 99.0888 115.361C98.5687 114.415 98.2503 113.371 98.1538 112.295C98.1007 111.699 98.1271 111.098 98.2323 110.508C98.3103 110.085 98.4637 109.68 98.6852 109.311C98.634 109.379 98.7952 109.19 98.8145 109.169C98.8607 109.111 98.917 109.061 98.9808 109.022C99.1887 108.879 99.4252 108.784 99.6737 108.742C99.9514 108.683 100.239 108.688 100.514 108.758C100.79 108.828 101.045 108.961 101.26 109.146C102.021 109.833 103.152 108.708 102.389 108.017L102.389 108.018Z" fill="#211715"/>
<path d="M134.751 109.146C135.123 108.832 135.603 108.677 136.088 108.712C136.574 108.748 137.026 108.972 137.348 109.337C137.239 109.2 137.389 109.411 137.407 109.439C137.469 109.54 137.524 109.645 137.571 109.754C137.664 109.998 137.734 110.25 137.78 110.507C137.885 111.096 137.911 111.697 137.858 112.294C137.763 113.35 137.454 114.375 136.95 115.308C136.434 116.295 135.442 117.698 134.148 117.522C133.944 117.472 133.729 117.503 133.547 117.606C133.365 117.71 133.228 117.879 133.166 118.079C133.111 118.283 133.139 118.501 133.243 118.684C133.348 118.868 133.52 119.003 133.723 119.061C136.662 119.462 138.369 116.567 139.131 114.147C139.499 112.903 139.578 111.592 139.36 110.314C139.305 109.803 139.148 109.308 138.899 108.859C138.65 108.409 138.314 108.014 137.91 107.696C137.261 107.267 136.487 107.065 135.711 107.123C134.934 107.181 134.199 107.496 133.621 108.017C132.856 108.708 133.989 109.834 134.749 109.146H134.751Z" fill="#211715"/>
<path d="M133.265 116.857C133.112 117.567 132.911 118.266 132.662 118.948C132.585 119.162 132.452 119.519 132.396 119.653C132.339 119.787 132.275 119.919 132.22 120.052C132.207 120.085 132.132 120.278 132.185 120.148C132.241 120.012 132.151 120.226 132.138 120.252C132.108 120.319 132.077 120.384 132.046 120.45C131.964 120.62 131.878 120.789 131.789 120.957C131.59 121.334 131.375 121.705 131.152 122.07C130.004 124.018 128.536 125.759 126.809 127.22C125.876 128.017 124.773 128.59 123.584 128.893C122.583 129.124 123.007 130.664 124.008 130.433C126.453 129.867 128.489 128.084 130.087 126.231C131.463 124.683 132.614 122.949 133.507 121.081C133.592 120.893 133.668 120.701 133.748 120.511C133.642 120.762 133.884 120.2 133.89 120.185C133.957 120.026 134.02 119.866 134.081 119.705C134.386 118.917 134.628 118.106 134.806 117.28C134.857 117.076 134.828 116.861 134.724 116.678C134.62 116.495 134.45 116.359 134.248 116.298C134.044 116.244 133.827 116.272 133.644 116.377C133.46 116.481 133.325 116.653 133.267 116.856L133.265 116.857Z" fill="#211715"/>
<path d="M101.161 117.225C101.701 119.626 102.673 121.909 104.03 123.962C105.49 126.153 107.408 128.201 109.729 129.489C110.915 130.15 112.21 130.591 113.553 130.792C113.756 130.841 113.971 130.811 114.154 130.708C114.336 130.604 114.472 130.435 114.534 130.235C114.589 130.031 114.561 129.813 114.457 129.629C114.353 129.446 114.18 129.31 113.977 129.253C109.173 128.544 105.58 124.379 103.758 120.109C103.307 119.04 102.953 117.933 102.701 116.8C102.475 115.799 100.935 116.223 101.162 117.225H101.161Z" fill="#211715"/>
<path d="M129.129 86.9474C131.733 88.0031 133.883 89.9413 135.201 92.4226C136.491 94.828 137.174 97.5115 137.193 100.241C137.185 101.914 137.04 103.584 136.758 105.233C136.709 105.437 136.739 105.653 136.843 105.835C136.947 106.017 137.116 106.153 137.317 106.215C137.521 106.269 137.738 106.242 137.922 106.137C138.105 106.033 138.241 105.861 138.298 105.658C138.785 102.565 139.045 99.4313 138.352 96.3472C137.692 93.4125 136.3 90.4451 134.136 88.3163C132.813 87.0568 131.257 86.0682 129.554 85.4065C129.35 85.3516 129.132 85.3793 128.949 85.4836C128.765 85.5879 128.63 85.7605 128.572 85.9638C128.521 86.1677 128.551 86.3835 128.654 86.5663C128.758 86.7492 128.928 86.885 129.13 86.9457L129.129 86.9474Z" fill="#211715"/>
<path d="M126.402 84.0884C123.584 81.3778 119.367 80.6882 115.604 81.1181C113.562 81.3565 111.571 81.9189 109.706 82.7843C107.852 83.6728 106.108 84.7722 104.507 86.0606C103.689 86.6924 102.89 87.3497 102.056 87.9606C101.209 88.578 100.261 89.0447 99.2557 89.3398C98.2767 89.6391 98.6944 91.1813 99.6799 90.879C100.599 90.6215 101.477 90.2369 102.29 89.7365C103.072 89.2288 103.797 88.6302 104.53 88.0543C105.981 86.8573 107.528 85.7827 109.157 84.8416C112.435 83.0477 116.293 82.1545 120.017 82.78C121.954 83.1062 123.841 83.8371 125.273 85.2153C126.013 85.9276 127.143 84.8004 126.403 84.0868L126.402 84.0884Z" fill="#211715"/>
<path d="M97.7834 93.2541C97.267 94.1987 97.0718 95.326 96.8972 96.375C96.6969 97.5166 96.5685 98.6696 96.5128 99.8272C96.4384 102.594 96.9619 105.344 98.0477 107.89C98.1097 108.09 98.2458 108.259 98.4283 108.363C98.6107 108.466 98.8258 108.496 99.0296 108.447C99.233 108.39 99.4055 108.254 99.5098 108.071C99.6141 107.887 99.6418 107.669 99.5869 107.465C98.5681 105.103 98.0631 102.552 98.1056 99.9798C98.1448 98.9135 98.2559 97.851 98.4381 96.7997C98.589 95.8919 98.7752 94.7693 99.1633 94.0598C99.6561 93.158 98.2785 92.3516 97.785 93.2541H97.7834Z" fill="#211715"/>
<path d="M123.513 96.115C121.093 97.2028 118.528 97.9378 115.899 98.2976C114.515 98.5007 113.12 98.6163 111.721 98.6437C111.027 98.659 110.335 98.6284 109.641 98.6318C108.999 98.6351 108.358 98.7222 107.717 98.7621C106.697 98.8253 106.69 100.422 107.717 100.358C108.376 100.317 109.036 100.225 109.698 100.228C110.398 100.23 111.097 100.255 111.798 100.238C113.313 100.198 114.824 100.064 116.323 99.8368C119.087 99.4431 121.78 98.6536 124.319 97.4926C124.5 97.3845 124.632 97.2095 124.686 97.0052C124.739 96.8009 124.71 96.5838 124.605 96.4006C124.495 96.2215 124.32 96.0918 124.117 96.0384C123.913 95.9851 123.697 96.0123 123.513 96.1143V96.115Z" fill="#211715"/>
<path d="M104.502 100.859C103.356 101.938 102.803 103.362 102.474 104.87C102.182 106.236 101.975 107.619 101.854 109.011C101.855 109.222 101.94 109.424 102.089 109.573C102.238 109.723 102.44 109.807 102.652 109.809C102.862 109.804 103.062 109.719 103.211 109.57C103.36 109.421 103.445 109.221 103.45 109.011C103.556 107.799 103.736 106.594 103.989 105.404C104.265 104.117 104.647 102.914 105.631 101.988C106.381 101.283 105.25 100.156 104.502 100.859Z" fill="#211715"/>
<path d="M126.464 99.1814C128.047 100.556 129.415 102.16 130.521 103.941C131.447 105.453 131.989 107.121 132.764 108.708C132.873 108.89 133.048 109.021 133.252 109.075C133.456 109.128 133.673 109.099 133.856 108.995C134.036 108.885 134.166 108.71 134.219 108.506C134.272 108.303 134.245 108.086 134.142 107.903C133.347 106.273 132.789 104.568 131.828 103.021C130.667 101.166 129.239 99.4923 127.591 98.0525C126.823 97.3762 125.69 98.5011 126.463 99.1831L126.464 99.1814Z" fill="#211715"/>
<path d="M118.446 169.728C120.719 164.119 121.304 162.268 123.081 156.812C125.282 150.051 127.341 142.671 128.983 135.646C129.045 135.295 129.029 134.935 128.935 134.592C128.841 134.248 128.672 133.93 128.441 133.659C127.702 132.804 126.771 131.565 126.016 130.721C125.695 130.98 119.152 136.139 118.656 136.491H117.504C117.008 136.139 110.465 130.98 110.144 130.721C109.389 131.566 108.458 132.804 107.719 133.659C107.487 133.93 107.319 134.248 107.225 134.592C107.131 134.935 107.114 135.295 107.176 135.646C108.819 142.671 110.877 150.051 113.079 156.812C114.855 162.268 115.44 164.119 117.713 169.728H118.446Z" fill="#EAD16A"/>
<path d="M120.421 164.673C119.897 166.093 119.287 167.653 118.446 169.727H117.714C115.622 164.564 114.96 162.585 113.481 158.046C114.198 151.901 115.146 144.593 115.146 144.377C115.131 143.989 115.072 143.604 114.97 143.229C114.926 143.058 114.887 142.886 114.852 142.715C114.663 141.861 114.628 141.424 114.408 140.52L114.394 140.476C115.45 139.053 116.726 137.365 117.504 136.49H118.657C119.428 137.358 120.689 139.024 121.74 140.44C121.68 140.606 121.64 140.716 121.64 140.716C121.413 141.285 121.232 141.872 121.1 142.47C120.862 143.124 120.719 143.809 120.674 144.503C120.668 144.865 121.666 151.795 122.59 158.314C121.755 160.882 121.176 162.632 120.421 164.673Z" fill="#EAD16A"/>
<path d="M112.789 169.568C108.707 162.492 104.672 155.384 100.907 148.133C100.654 147.646 100.37 147.162 100.147 146.66C100.053 146.448 100.053 146.489 100.214 146.307C100.407 146.089 100.613 145.881 100.817 145.672C101.648 144.813 102.517 143.99 103.389 143.172C103.474 143.085 103.538 142.98 103.576 142.864C103.615 142.749 103.627 142.626 103.611 142.506C103.596 142.385 103.553 142.27 103.487 142.168C103.42 142.066 103.331 141.981 103.227 141.918L101.609 140.995L100.838 140.554C100.697 140.474 100.556 140.394 100.416 140.313L100.275 140.233C100.157 140.159 100.165 140.167 100.302 140.257L100.411 140.659C100.367 140.753 100.36 140.766 100.392 140.701C100.412 140.661 100.432 140.622 100.453 140.583C100.489 140.517 100.526 140.45 100.564 140.384C100.654 140.231 100.75 140.084 100.851 139.938C101.048 139.66 101.261 139.393 101.489 139.14C102.063 138.501 102.676 137.899 103.326 137.338C104.528 136.287 105.806 135.327 107.15 134.465L105.978 133.988C107.156 139.212 108.498 144.395 110.003 149.538C111.334 154.098 112.763 158.64 114.334 163.124C115.139 165.421 116.03 167.685 116.944 169.94C117.006 170.141 117.142 170.31 117.324 170.414C117.507 170.517 117.722 170.547 117.926 170.498C118.129 170.44 118.302 170.305 118.406 170.121C118.51 169.937 118.538 169.72 118.483 169.516C116.903 165.614 115.5 161.668 114.196 157.668C112.546 152.597 111.02 147.493 109.663 142.334C108.897 139.424 108.181 136.5 107.517 133.563C107.483 133.446 107.424 133.338 107.342 133.247C107.261 133.157 107.16 133.086 107.047 133.04C106.934 132.994 106.812 132.974 106.69 132.982C106.569 132.99 106.451 133.026 106.345 133.087C104.309 134.361 102.431 135.872 100.75 137.588C100.335 138.022 99.9478 138.483 99.5918 138.967C99.2543 139.37 98.9989 139.835 98.84 140.336C98.6325 141.259 99.5246 141.64 100.174 142.011L102.424 143.295L102.263 142.042C101.449 142.807 100.639 143.573 99.8581 144.369C99.0933 145.151 98.1291 145.975 98.6365 147.174C99.0381 148.124 99.5795 149.035 100.058 149.948C100.559 150.904 101.064 151.857 101.574 152.808C103.602 156.595 105.693 160.349 107.813 164.086C109.004 166.186 110.203 168.28 111.411 170.371C111.924 171.26 113.304 170.457 112.79 169.565L112.789 169.568Z" fill="#211715"/>
<path d="M141.854 174.4C141.911 169.131 141.977 163.862 142.054 158.592C142.071 157.515 142.09 156.438 142.112 155.36C142.133 154.333 140.537 154.333 140.516 155.36C140.416 160.106 140.367 164.853 140.313 169.6C140.294 171.2 140.277 172.8 140.26 174.4C140.249 175.427 141.845 175.428 141.856 174.4H141.854Z" fill="#211715"/>
<path d="M115.397 144.512C117.102 144.512 118.807 144.476 120.512 144.475C120.724 144.475 120.927 144.391 121.076 144.241C121.226 144.092 121.31 143.889 121.31 143.677C121.31 143.465 121.226 143.262 121.076 143.113C120.927 142.963 120.724 142.879 120.512 142.879C118.807 142.879 117.102 142.915 115.397 142.915C115.185 142.915 114.982 143 114.832 143.149C114.683 143.299 114.599 143.502 114.599 143.714C114.599 143.925 114.683 144.128 114.832 144.278C114.982 144.427 115.185 144.512 115.397 144.512Z" fill="#211715"/>
<path d="M113.638 140.734C113.8 141.412 113.906 142.1 114.05 142.782C114.215 143.311 114.315 143.858 114.346 144.412C114.325 144.893 114.234 145.379 114.174 145.857C113.879 148.244 113.578 150.631 113.286 153.02C113.08 154.703 112.878 156.386 112.681 158.07C112.682 158.281 112.766 158.483 112.916 158.633C113.065 158.782 113.267 158.867 113.479 158.868C113.689 158.863 113.889 158.777 114.038 158.629C114.186 158.48 114.272 158.28 114.277 158.07C114.616 155.164 114.969 152.26 115.335 149.358C115.537 147.732 115.834 146.088 115.938 144.452C115.929 143.858 115.836 143.268 115.662 142.699C115.484 141.906 115.365 141.103 115.177 140.312C114.938 139.314 113.399 139.736 113.638 140.736V140.734Z" fill="#211715"/>
<path d="M123.315 157.782C122.916 154.964 122.516 152.146 122.115 149.328C121.966 148.271 121.82 147.214 121.675 146.158C121.667 146.103 121.639 145.895 121.644 145.929C121.65 145.974 121.622 145.766 121.617 145.73C121.597 145.576 121.577 145.422 121.557 145.268C121.53 145.06 121.498 144.85 121.482 144.641C121.472 144.195 121.538 143.751 121.678 143.328C121.839 142.577 122.057 141.839 122.33 141.121C122.43 140.936 122.457 140.721 122.404 140.518C122.35 140.315 122.221 140.14 122.043 140.029C121.86 139.924 121.643 139.895 121.439 139.948C121.235 140.002 121.06 140.133 120.952 140.315C120.684 140.995 120.462 141.693 120.287 142.402C120.039 143.081 119.901 143.794 119.876 144.516C119.906 144.96 119.959 145.403 120.035 145.842C120.351 148.215 120.692 150.585 121.029 152.955C121.278 154.707 121.526 156.458 121.775 158.209C121.833 158.413 121.968 158.585 122.152 158.689C122.336 158.794 122.553 158.822 122.757 158.767C122.958 158.706 123.128 158.57 123.232 158.387C123.336 158.204 123.365 157.989 123.315 157.785L123.315 157.782Z" fill="#211715"/>
<path d="M124.749 170.372C129.019 162.97 133.241 155.533 137.149 147.931C137.444 147.358 137.794 146.786 137.637 146.115C137.504 145.541 137.027 145.123 136.635 144.714C135.752 143.793 134.827 142.914 133.897 142.042L133.736 143.295L135.987 142.011C136.636 141.64 137.529 141.259 137.321 140.336C137.162 139.835 136.906 139.37 136.569 138.967C136.213 138.483 135.827 138.022 135.412 137.588C133.731 135.872 131.852 134.361 129.816 133.087C129.711 133.026 129.592 132.99 129.471 132.982C129.349 132.974 129.227 132.994 129.114 133.04C129.001 133.086 128.9 133.157 128.819 133.247C128.738 133.338 128.678 133.446 128.644 133.563C127.466 138.787 126.124 143.97 124.619 149.113C123.289 153.673 121.859 158.215 120.288 162.699C119.483 164.996 118.592 167.26 117.678 169.515C117.623 169.719 117.651 169.937 117.755 170.12C117.859 170.304 118.032 170.439 118.235 170.497C118.439 170.548 118.655 170.519 118.838 170.415C119.021 170.311 119.157 170.141 119.217 169.939C120.797 166.038 122.201 162.092 123.504 158.091C125.155 153.021 126.68 147.915 128.037 142.758C128.804 139.847 129.519 136.924 130.183 133.987L129.011 134.464C130.355 135.326 131.633 136.286 132.835 137.337C133.471 137.886 134.072 138.473 134.635 139.096C134.876 139.363 135.102 139.643 135.31 139.936C135.402 140.069 135.491 140.202 135.573 140.342C135.62 140.42 135.665 140.5 135.708 140.581L135.749 140.659C135.801 140.764 135.801 140.763 135.749 140.657L135.858 140.254C135.981 140.174 136.003 140.158 135.924 140.206C135.865 140.242 135.804 140.277 135.743 140.311C135.602 140.392 135.461 140.471 135.321 140.551L134.547 140.993L132.93 141.916C132.825 141.979 132.737 142.064 132.67 142.166C132.604 142.268 132.561 142.383 132.545 142.504C132.53 142.624 132.542 142.747 132.58 142.862C132.619 142.978 132.683 143.083 132.768 143.17C133.543 143.897 134.315 144.628 135.062 145.384C135.249 145.574 135.435 145.765 135.618 145.957C135.742 146.088 135.987 146.256 136.052 146.423C136.137 146.639 135.733 147.203 135.6 147.461C134.673 149.259 133.729 151.047 132.767 152.827C130.817 156.451 128.82 160.049 126.777 163.623C125.649 165.609 124.514 167.59 123.372 169.568C122.858 170.459 124.236 171.263 124.75 170.373L124.749 170.372Z" fill="#211715"/>
<path d="M125.451 131.286C125.888 131.779 126.302 132.293 126.715 132.807C127.098 133.283 127.524 133.742 127.884 134.235C128.033 134.44 128.139 134.672 128.196 134.919C128.219 135.007 128.232 135.097 128.236 135.188C128.237 135.241 128.189 135.528 128.25 135.37C128.171 135.537 128.078 135.698 127.972 135.849C127.093 137.311 126.109 138.707 125.028 140.026C124.682 140.443 124.324 140.849 123.94 141.231C123.774 141.395 123.604 141.555 123.427 141.707C123.299 141.825 123.159 141.93 123.01 142.02L124.102 142.306C122.5 140.167 120.992 137.931 119.22 135.927L119.059 137.18C119.99 136.515 120.873 135.778 121.773 135.073C123.044 134.075 124.313 133.077 125.581 132.076C125.914 131.813 126.25 131.552 126.579 131.286C126.727 131.135 126.81 130.933 126.81 130.721C126.81 130.51 126.727 130.307 126.579 130.157C126.427 130.012 126.225 129.931 126.014 129.931C125.804 129.931 125.602 130.012 125.45 130.157C123.389 131.82 121.294 133.442 119.205 135.069L118.822 135.369L118.656 135.498C118.552 135.579 118.786 135.399 118.633 135.516C118.507 135.612 118.383 135.711 118.254 135.803C118.15 135.867 118.063 135.953 117.997 136.054C117.931 136.156 117.889 136.271 117.874 136.391C117.858 136.512 117.87 136.634 117.908 136.749C117.945 136.864 118.008 136.969 118.092 137.057C119.774 138.959 121.203 141.083 122.724 143.113C122.834 143.292 123.009 143.422 123.212 143.476C123.416 143.529 123.632 143.502 123.816 143.399C125.534 142.276 126.808 140.421 127.965 138.766C128.446 138.076 128.913 137.374 129.35 136.656C129.474 136.467 129.583 136.269 129.678 136.064C129.796 135.721 129.845 135.357 129.822 134.995C129.798 134.632 129.703 134.278 129.541 133.952C129.232 133.238 128.641 132.67 128.157 132.069C127.639 131.426 127.128 130.776 126.58 130.158C125.897 129.387 124.771 130.519 125.451 131.286Z" fill="#211715"/>
<path d="M109.58 130.158C109.095 130.705 108.639 131.277 108.183 131.847C107.751 132.385 107.248 132.901 106.867 133.477C106.561 133.909 106.383 134.418 106.352 134.945C106.322 135.473 106.441 135.999 106.696 136.463C107.657 138.081 108.741 139.623 109.939 141.075C110.619 141.967 111.431 142.75 112.346 143.398C112.53 143.5 112.746 143.527 112.949 143.474C113.152 143.421 113.327 143.291 113.438 143.112C114.958 141.082 116.388 138.959 118.07 137.056C118.153 136.969 118.216 136.863 118.254 136.748C118.291 136.633 118.303 136.511 118.287 136.391C118.272 136.271 118.23 136.156 118.164 136.054C118.099 135.952 118.011 135.866 117.908 135.803C117.806 135.73 117.708 135.653 117.609 135.577C117.57 135.548 117.532 135.518 117.494 135.489C117.394 135.413 117.63 135.594 117.485 135.482C117.375 135.396 117.265 135.311 117.153 135.225C116.572 134.774 115.993 134.321 115.416 133.867C114.17 132.889 112.926 131.91 111.683 130.929C111.358 130.672 111.031 130.418 110.709 130.158C110.556 130.014 110.354 129.934 110.144 129.934C109.935 129.934 109.732 130.014 109.58 130.158C109.432 130.308 109.349 130.511 109.349 130.722C109.349 130.933 109.432 131.136 109.58 131.286C111.666 132.969 113.787 134.611 115.901 136.258C116.3 136.568 116.691 136.888 117.101 137.181L116.94 135.928C115.168 137.932 113.66 140.168 112.058 142.306L113.15 142.02C113.079 141.974 113.01 141.926 112.941 141.877C112.872 141.828 112.938 141.877 112.951 141.887C112.908 141.854 112.867 141.82 112.826 141.787C112.662 141.651 112.504 141.507 112.35 141.359C112.014 141.037 111.7 140.694 111.396 140.34C110.776 139.62 110.206 138.859 109.659 138.082C109.191 137.417 108.74 136.74 108.311 136.05C108.19 135.856 108.071 135.66 107.958 135.461C107.942 135.435 107.927 135.408 107.915 135.38C107.951 135.469 107.925 135.396 107.925 135.307C107.921 135.081 107.962 134.856 108.045 134.646C108.289 134.042 108.863 133.532 109.266 133.031C109.738 132.443 110.208 131.851 110.709 131.287C111.388 130.52 110.263 129.387 109.58 130.158Z" fill="#211715"/>
<path d="M110.574 129.959V131.233C110.576 131.444 110.66 131.647 110.807 131.798C110.957 131.948 111.16 132.032 111.371 132.032C111.583 132.032 111.786 131.948 111.936 131.798C112.082 131.646 112.165 131.444 112.168 131.233V129.959C112.166 129.748 112.083 129.545 111.936 129.394C111.786 129.244 111.583 129.16 111.371 129.16C111.16 129.16 110.957 129.244 110.807 129.394C110.66 129.546 110.577 129.748 110.574 129.959Z" fill="#211715"/>
<path d="M124.104 129.883V131.199C124.106 131.41 124.189 131.612 124.336 131.764C124.486 131.914 124.689 131.998 124.901 131.998C125.112 131.998 125.315 131.914 125.465 131.764C125.612 131.612 125.695 131.41 125.698 131.199V131.126C125.695 130.914 125.612 130.712 125.465 130.56C125.315 130.411 125.112 130.327 124.901 130.327C124.689 130.327 124.486 130.411 124.336 130.56C124.189 130.712 124.106 130.914 124.104 131.126V131.199C124.106 131.41 124.189 131.612 124.336 131.764C124.486 131.914 124.689 131.998 124.901 131.998C125.112 131.998 125.315 131.914 125.465 131.764C125.612 131.612 125.695 131.41 125.698 131.199V129.883C125.695 129.672 125.612 129.469 125.465 129.318C125.315 129.168 125.112 129.084 124.901 129.084C124.689 129.084 124.486 129.168 124.336 129.318C124.19 129.47 124.106 129.672 124.104 129.883Z" fill="#211715"/>
<path d="M157.419 173.077C157.129 169.547 156.595 166.042 155.823 162.586C155.064 159.062 154.302 155.528 153.218 152.086C152.29 149.138 151.154 146.237 148.978 143.977C146.658 141.568 143.647 139.893 140.658 138.462C138.177 137.275 135.635 136.24 133.077 135.236C132.873 135.182 132.655 135.21 132.471 135.314C132.288 135.418 132.152 135.591 132.095 135.794C132.044 135.998 132.073 136.214 132.177 136.397C132.281 136.579 132.451 136.715 132.652 136.776C134.642 137.557 136.619 138.355 138.566 139.241C141.529 140.59 144.551 142.094 146.994 144.282C148.051 145.203 148.95 146.292 149.654 147.505C150.349 148.794 150.922 150.145 151.365 151.541C152.508 154.922 153.286 158.413 154.044 161.895C154.898 165.577 155.493 169.313 155.824 173.078C155.829 173.288 155.915 173.488 156.063 173.637C156.212 173.785 156.412 173.871 156.622 173.876C156.833 173.874 157.035 173.79 157.184 173.64C157.334 173.491 157.418 173.289 157.42 173.078L157.419 173.077Z" fill="#211715"/>
<path d="M131.692 145.608C131.457 145.603 131.224 145.646 131.007 145.733C130.789 145.82 130.591 145.95 130.425 146.115C130.259 146.281 130.127 146.478 130.039 146.695C129.95 146.912 129.906 147.144 129.909 147.379C129.897 147.617 129.935 147.855 130.02 148.078C130.105 148.301 130.235 148.504 130.403 148.674C130.571 148.843 130.772 148.976 130.994 149.064C131.216 149.152 131.453 149.192 131.692 149.183C131.931 149.195 132.17 149.157 132.393 149.07C132.616 148.983 132.818 148.85 132.987 148.68C133.155 148.509 133.285 148.306 133.369 148.081C133.453 147.857 133.489 147.618 133.474 147.379C133.477 147.144 133.434 146.912 133.345 146.694C133.257 146.477 133.125 146.28 132.959 146.115C132.792 145.95 132.595 145.82 132.377 145.732C132.159 145.645 131.926 145.603 131.692 145.608Z" fill="#EAD16A"/>
<path d="M131.692 144.81C131.142 144.81 130.606 144.985 130.163 145.309C129.719 145.634 129.39 146.091 129.224 146.616C129.069 147.117 129.067 147.652 129.218 148.155C129.369 148.657 129.666 149.103 130.071 149.436C130.494 149.752 131 149.939 131.527 149.975C132.054 150.01 132.58 149.892 133.042 149.636C133.492 149.354 133.847 148.942 134.058 148.455C134.269 147.967 134.328 147.427 134.225 146.905C134.116 146.314 133.802 145.78 133.339 145.397C132.876 145.014 132.293 144.806 131.692 144.809C131.48 144.809 131.277 144.893 131.128 145.042C130.978 145.192 130.894 145.395 130.894 145.607C130.894 145.818 130.978 146.021 131.128 146.171C131.277 146.321 131.48 146.405 131.692 146.405C131.744 146.405 131.795 146.409 131.847 146.411C132.026 146.415 131.663 146.367 131.833 146.408C131.912 146.427 131.991 146.441 132.068 146.468C132.097 146.482 132.127 146.493 132.157 146.501L132.053 146.457C132.082 146.47 132.109 146.484 132.137 146.498C132.216 146.538 132.29 146.609 132.37 146.643C132.211 146.575 132.28 146.571 132.348 146.634C132.37 146.655 132.391 146.676 132.412 146.697C132.439 146.734 132.469 146.767 132.503 146.797C132.392 146.731 132.418 146.673 132.473 146.761C132.517 146.832 132.558 146.902 132.599 146.975C132.632 147.035 132.605 147.069 132.574 146.908C132.585 146.966 132.617 147.024 132.633 147.081C132.654 147.154 132.657 147.238 132.683 147.308C132.62 147.137 132.672 147.175 132.672 147.26C132.672 147.299 132.676 147.339 132.676 147.379C132.665 147.459 132.661 147.54 132.663 147.622L132.68 147.503C132.675 147.534 132.67 147.564 132.664 147.594C132.653 147.647 132.641 147.698 132.626 147.749C132.616 147.785 132.605 147.82 132.593 147.855L132.578 147.896C132.547 147.975 132.557 147.951 132.608 147.826C132.57 147.886 132.536 147.949 132.505 148.013C132.487 148.043 132.464 148.071 132.446 148.101C132.395 148.188 132.584 147.947 132.48 148.054C132.425 148.11 132.349 148.167 132.3 148.228C132.409 148.09 132.406 148.151 132.327 148.203C132.303 148.219 132.279 148.234 132.255 148.248C132.218 148.27 132.179 148.288 132.142 148.309C132.009 148.382 132.293 148.263 132.193 148.289C132.113 148.309 132.037 148.342 131.956 148.361C131.926 148.368 131.896 148.373 131.866 148.38C131.78 148.394 131.804 148.391 131.938 148.372C131.904 148.376 131.873 148.378 131.841 148.38C131.759 148.386 131.676 148.387 131.594 148.383C131.546 148.375 131.498 148.371 131.45 148.372C131.466 148.369 131.65 148.41 131.524 148.379C131.442 148.359 131.361 148.343 131.281 148.316C131.248 148.305 131.212 148.286 131.177 148.278C131.387 148.328 131.262 148.313 131.19 148.274C131.119 148.235 131.059 148.185 130.991 148.146C131.152 148.236 131.097 148.234 131.053 148.191C131.022 148.161 130.99 148.133 130.96 148.102C130.936 148.077 130.914 148.046 130.888 148.023C130.813 147.957 131.003 148.194 130.922 148.066C130.874 147.992 130.832 147.918 130.789 147.841C130.71 147.699 130.849 148.024 130.799 147.868C130.79 147.839 130.778 147.811 130.769 147.782C130.756 147.69 130.735 147.598 130.705 147.51C130.713 147.524 130.723 147.715 130.716 147.578C130.713 147.529 130.709 147.478 130.708 147.43C130.708 147.389 130.708 147.348 130.708 147.307C130.708 147.284 130.71 147.26 130.712 147.237C130.72 147.15 130.716 147.174 130.699 147.309C130.73 147.225 130.734 147.126 130.762 147.04C130.78 146.998 130.796 146.955 130.808 146.911C130.797 146.993 130.738 147.061 130.804 146.937C130.845 146.86 130.911 146.788 130.948 146.709C130.872 146.873 130.877 146.797 130.937 146.732C130.968 146.699 131 146.665 131.033 146.636C131.099 146.574 131.17 146.575 131.01 146.645C131.05 146.622 131.088 146.596 131.124 146.568C131.162 146.543 131.203 146.52 131.244 146.499C131.271 146.484 131.299 146.471 131.327 146.458L131.223 146.502C131.318 146.484 131.411 146.457 131.499 146.419L131.547 146.409C131.634 146.395 131.613 146.397 131.484 146.416C131.553 146.422 131.622 146.418 131.69 146.406C131.902 146.406 132.105 146.322 132.255 146.172C132.404 146.022 132.489 145.819 132.489 145.608C132.489 145.396 132.404 145.193 132.255 145.043C132.105 144.894 131.902 144.81 131.69 144.81H131.692Z" fill="#211715"/>
<path d="M86.9159 146.831C88.4747 144.484 90.8442 142.801 93.259 141.424C95.8217 139.984 98.4843 138.73 101.226 137.671L103.507 136.776C103.708 136.714 103.878 136.579 103.982 136.396C104.086 136.214 104.116 135.998 104.066 135.794C104.008 135.591 103.873 135.418 103.689 135.314C103.506 135.21 103.288 135.182 103.084 135.236C101.166 135.99 99.2602 136.758 97.3778 137.597C94.3962 138.927 91.4424 140.405 88.8761 142.447C87.5838 143.458 86.4579 144.665 85.5393 146.025C84.9697 146.883 86.3513 147.683 86.9176 146.83L86.9159 146.831Z" fill="#211715"/>
<path d="M91.0806 158.853C91.6379 162.108 92.1577 165.371 92.6786 168.632C93.2716 172.341 93.8575 176.051 94.4362 179.763C94.6493 181.126 94.8597 182.49 95.0673 183.854C95.1826 184.617 96.6995 184.406 96.5839 183.641C96.1496 180.766 95.6957 177.894 95.2438 175.022C94.6426 171.203 94.033 167.386 93.4148 163.569C93.1476 161.925 92.8789 160.282 92.5979 158.64C92.4675 157.879 90.9505 158.09 91.0813 158.853L91.0806 158.853Z" fill="#211715"/>
<path d="M75.748 157.54C75.9114 160.781 76.1219 164.019 76.3798 167.253C76.6517 170.714 76.938 174.172 77.4401 177.608C77.8491 180.407 78.5999 183.31 80.3107 185.613C81.1261 186.75 82.1684 187.706 83.3719 188.419C84.562 189.066 85.874 189.457 87.224 189.568C90.1641 189.879 93.4088 189.083 95.4218 186.804C96.0995 186.037 94.9749 184.904 94.2933 185.676C92.6912 187.49 90.2509 188.131 87.8984 188.023C86.7614 187.997 85.6415 187.74 84.6065 187.269C83.4915 186.707 82.5189 185.899 81.7625 184.906C80.1332 182.809 79.4319 180.118 79.0319 177.537C78.5364 174.339 78.2824 171.109 78.0257 167.886C77.751 164.44 77.5239 160.992 77.3444 157.54C77.2928 156.518 75.6961 156.512 75.748 157.54Z" fill="#211715"/>
<path d="M92.4152 145.92C92.1535 147.731 90.7912 149.88 90.1268 150.78C89.8682 151.14 89.579 151.477 89.2623 151.787C88.5793 152.438 88.6728 153.316 88.5431 154.314C88.4726 154.858 88.5294 155.352 88.4982 155.744C86.5822 156.419 81.2527 156.896 78.7761 157.147C78.4081 156.031 76.935 152.814 76.7601 152.641C75.2236 151.125 73.4659 147.412 73.292 143.829L73.3568 142.505C73.3801 142.03 73.7582 140.706 74.7175 140.456C75.0864 140.365 75.4745 140.389 75.8291 140.526C76.1837 140.663 76.4875 140.906 76.6993 141.221C76.8186 140.656 76.9483 140.044 76.9483 140.044C77.064 139.659 77.2871 139.315 77.5914 139.052C77.8958 138.789 78.2688 138.618 78.6667 138.56C79.4701 138.433 79.7843 138.941 80.1897 139.486C80.1897 138.803 80.475 138.002 81.0988 137.674C82.0574 137.168 83.9371 137.151 83.9078 139.313C83.3968 135.631 82.8315 131.138 82.8182 130.135C82.8407 129.585 83.0531 129.059 83.4193 128.648C83.7855 128.237 84.2829 127.965 84.8269 127.879C85.9412 127.746 87.1043 129.383 87.2323 130.103C87.8461 133.556 88.2076 136.055 88.6887 140.242C89.3305 140.397 89.942 140.571 90.6263 140.76C91.1784 140.958 91.6467 141.338 91.954 141.837C92.5858 143.22 92.8072 144.445 92.4149 145.92L92.4152 145.92Z" fill="#EAD16A"/>
<path d="M89.4495 139.914C89.1246 137.118 88.7575 134.328 88.29 131.551C88.2218 130.926 88.1087 130.307 87.9515 129.699C87.7688 129.189 87.4931 128.717 87.1382 128.307C86.3069 127.291 85.1195 126.772 83.8666 127.34C83.3184 127.593 82.8538 127.997 82.5272 128.505C82.2006 129.013 82.0255 129.604 82.0225 130.208C82.0354 130.762 82.1069 131.317 82.1658 131.867C82.3716 133.793 82.623 135.715 82.88 137.635C83.15 139.652 83.4203 141.67 83.7446 143.679C83.8021 143.883 83.9373 144.055 84.121 144.159C84.3047 144.264 84.5221 144.291 84.7261 144.237C84.9275 144.176 85.0978 144.04 85.2016 143.858C85.3055 143.675 85.3349 143.459 85.2838 143.255C84.7368 139.875 84.3012 136.511 83.9015 133.113C83.8207 132.425 83.7419 131.735 83.6784 131.045C83.6342 130.567 83.5344 130.041 83.7372 129.597C83.8296 129.393 83.9623 129.211 84.1275 129.06C84.2926 128.909 84.4867 128.794 84.6979 128.72C84.7691 128.686 84.847 128.667 84.9261 128.666C85.0052 128.664 85.0837 128.68 85.1561 128.712C85.3047 128.782 85.4437 128.87 85.5697 128.976C85.916 129.273 86.1942 129.642 86.3854 130.056C86.4259 130.144 86.393 130.071 86.3854 130.054C86.3983 130.087 86.4113 130.122 86.4213 130.158C86.4492 130.257 86.4678 130.353 86.4878 130.454C86.5483 130.788 86.6055 131.123 86.663 131.457C87.1452 134.265 87.5249 137.085 87.8534 139.915C87.8596 140.125 87.9457 140.324 88.094 140.472C88.2424 140.621 88.4418 140.707 88.6515 140.713C88.8627 140.712 89.065 140.627 89.2144 140.478C89.3638 140.329 89.4483 140.126 89.4495 139.915V139.914Z" fill="#211715"/>
<path d="M77.3836 140.812C77.0304 140.292 76.4975 139.921 75.8873 139.771C75.2877 139.644 74.6626 139.72 74.1114 139.989C73.7137 140.216 73.3719 140.529 73.1108 140.906C72.8497 141.282 72.6759 141.712 72.6021 142.164C72.4676 143.191 72.5489 144.235 72.8408 145.229C72.965 145.842 73.2243 146.419 73.6 146.918C73.9488 147.316 74.4176 147.589 74.9353 147.696C76.1627 147.934 77.3241 147.152 77.8631 146.077C77.9649 145.893 77.992 145.677 77.9386 145.474C77.8853 145.27 77.7558 145.095 77.5768 144.985C77.3936 144.88 77.1765 144.852 76.9723 144.905C76.7681 144.959 76.5931 145.09 76.4849 145.271C76.4173 145.41 76.3403 145.544 76.2544 145.672C76.3312 145.56 76.2065 145.724 76.173 145.758C76.1464 145.784 75.9838 145.919 76.0732 145.853C75.9232 145.963 75.763 146.057 75.5947 146.135C75.7154 146.079 75.5668 146.135 75.5176 146.151C75.5039 146.155 75.3909 146.167 75.4813 146.159C75.5718 146.15 75.4218 146.155 75.4059 146.155C75.3689 146.155 75.3324 146.153 75.2955 146.149C75.4401 146.163 75.3161 146.151 75.2861 146.142C75.2137 146.118 75.1388 146.103 75.068 146.075C75.1817 146.122 75.0148 146.036 74.9819 146.02C74.9819 146.02 74.8718 145.95 74.9344 145.994C74.9876 146.032 74.8752 145.944 74.8639 145.933C74.8333 145.903 74.7232 145.78 74.7435 145.808C74.7638 145.836 74.677 145.691 74.6584 145.653C74.5706 145.446 74.4975 145.233 74.4396 145.015C74.2193 144.302 74.1198 143.556 74.1453 142.81C74.1453 142.734 74.1509 142.657 74.1526 142.581C74.1553 142.445 74.1752 142.468 74.1413 142.589C74.1766 142.462 74.1955 142.333 74.2381 142.208C74.2564 142.154 74.3106 142.026 74.2554 142.15C74.2842 142.085 74.3154 142.021 74.3491 141.958C74.3824 141.893 74.4213 141.83 74.4615 141.768C74.4818 141.737 74.5031 141.706 74.5247 141.676C74.5975 141.576 74.4539 141.751 74.5403 141.661C74.5736 141.624 74.6095 141.587 74.6447 141.551C74.654 141.541 74.7634 141.444 74.7072 141.489C74.6803 141.51 74.8356 141.409 74.8818 141.384C74.8685 141.391 74.7821 141.42 74.8702 141.388C74.923 141.369 74.9767 141.354 75.0311 141.341C75.0969 141.319 75.1659 141.308 75.2353 141.308C75.3918 141.287 75.5511 141.31 75.6951 141.374C75.8149 141.433 75.9209 141.516 76.006 141.618C76.1174 141.796 76.2924 141.924 76.4953 141.977C76.6982 142.031 76.9138 142.004 77.098 141.904C77.2798 141.796 77.4117 141.621 77.4653 141.417C77.5189 141.213 77.4898 140.995 77.3843 140.812L77.3836 140.812Z" fill="#211715"/>
<path d="M80.8785 139.084C80.592 138.603 80.1872 138.203 79.7028 137.923C79.3842 137.796 79.042 137.741 78.6997 137.759C78.3575 137.778 78.0234 137.871 77.7206 138.032C77.2052 138.277 76.7712 138.666 76.4707 139.151C76.1993 139.666 76.0475 140.235 76.0265 140.816C75.8837 142.12 75.9782 143.439 76.3055 144.709C76.4028 145.168 76.5711 145.609 76.8042 146.017C77.1873 146.587 77.7762 146.987 78.4475 147.133C79.7363 147.408 81.4531 146.515 81.6313 145.13C81.6303 144.919 81.5459 144.717 81.3964 144.567C81.247 144.418 81.0446 144.333 80.8333 144.332C80.6232 144.337 80.4232 144.423 80.2746 144.572C80.126 144.72 80.0403 144.92 80.0353 145.13C80.0722 144.844 80.0921 144.959 80.0053 145.06C79.9386 145.136 79.8645 145.204 79.7842 145.265C79.6483 145.363 79.5047 145.449 79.3546 145.523C79.1591 145.599 78.9447 145.614 78.7407 145.564C78.5368 145.514 78.3531 145.403 78.2148 145.245C78.1425 145.156 78.0863 145.056 78.0485 144.948C77.9743 144.747 77.9112 144.542 77.857 144.335C77.7306 143.854 77.6452 143.364 77.6019 142.869C77.5467 142.256 77.5461 141.64 77.6003 141.027C77.6256 140.748 77.67 140.471 77.7333 140.198C77.7452 140.155 77.7589 140.113 77.7748 140.072C77.7459 140.14 77.7446 140.148 77.7705 140.095C77.8137 140.01 77.8634 139.929 77.9192 139.852C77.863 139.925 78.0123 139.754 78.0272 139.74C78.2347 139.531 78.5021 139.393 78.792 139.344C78.8491 139.327 78.9099 139.326 78.9677 139.34C79.0256 139.355 79.0784 139.385 79.1205 139.427C79.2648 139.566 79.3928 139.722 79.5022 139.889C79.6134 140.067 79.7884 140.196 79.9914 140.249C80.1944 140.303 80.41 140.276 80.5942 140.176C80.7758 140.068 80.9075 139.893 80.9611 139.688C81.0147 139.484 80.9857 139.267 80.8805 139.084H80.8785Z" fill="#211715"/>
<path d="M84.076 137.365C83.2577 136.443 81.8588 136.432 80.8097 136.93C79.744 137.437 79.2924 138.735 79.4151 139.848C79.5524 141.095 79.7683 142.337 80.0136 143.566C80.1244 144.117 80.1852 144.666 80.5916 145.087C81.0124 145.508 81.5507 145.791 82.1354 145.899C82.5116 145.972 82.8991 145.962 83.2711 145.87C83.643 145.779 83.9905 145.607 84.2894 145.367C84.6343 145.032 84.9148 144.637 85.1171 144.201C85.6311 143.31 84.2525 142.505 83.7391 143.396C83.6474 143.554 83.5686 143.721 83.4731 143.879C83.4572 143.905 83.2932 144.131 83.387 144.02C83.3657 144.045 83.1735 144.221 83.254 144.163C83.0896 144.273 82.8992 144.338 82.7018 144.351C82.5045 144.364 82.3072 144.325 82.1298 144.237C82.0076 144.183 81.8926 144.114 81.7876 144.031C81.8315 144.06 81.8179 144.045 81.7474 143.987C81.6809 143.913 81.6752 143.912 81.7304 143.982C81.6832 143.899 81.6864 143.912 81.7401 144.022C81.7254 143.958 81.711 143.893 81.6968 143.829C81.6665 143.692 81.6371 143.554 81.6087 143.416C81.488 142.836 81.3796 142.252 81.2799 141.669C81.1878 141.131 81.1003 140.591 81.0338 140.049C80.9389 139.618 80.9772 139.168 81.1435 138.759C81.2313 138.607 81.3522 138.478 81.4971 138.379C81.6421 138.281 81.8074 138.217 81.9806 138.191C82.1539 138.165 82.3307 138.179 82.4979 138.232C82.665 138.284 82.8183 138.373 82.9461 138.493C83.6294 139.263 84.755 138.131 84.0746 137.364L84.076 137.365Z" fill="#211715"/>
<path d="M88.7578 144.131C87.9695 143.822 87.0241 143.528 86.3471 143.005C86.0606 142.764 85.8562 142.439 85.7619 142.077C85.697 141.859 85.7012 141.627 85.7739 141.412C85.9943 140.911 86.5892 140.725 87.1937 140.76C88.1643 140.816 89.1835 141.168 90.1122 141.441C90.4534 141.524 90.7679 141.693 91.0266 141.931C91.2853 142.168 91.4797 142.468 91.5919 142.801C91.8829 143.542 91.9497 144.353 91.7841 145.133C91.3909 146.896 90.6689 148.569 89.656 150.065C89.1057 150.892 88.2415 151.489 87.9764 152.481C87.6958 153.534 87.7626 154.669 87.7008 155.744L88.2867 154.975C86.8569 155.469 85.2844 155.628 83.7898 155.814C82.1219 156.021 80.449 156.18 78.7768 156.349L79.5465 156.935C79.0217 155.416 78.3768 153.94 77.618 152.523C77.4979 152.302 77.348 152.099 77.1724 151.919C76.8733 151.593 76.6049 151.239 76.3707 150.863C74.9863 148.646 74.1951 146.11 74.073 143.499C74.0441 142.475 72.4477 142.47 72.477 143.499C72.5761 146.116 73.294 148.673 74.5718 150.959C74.8248 151.422 75.1095 151.867 75.4237 152.291C75.5823 152.503 75.7449 152.713 75.9198 152.911C75.9797 152.978 76.0402 153.048 76.1044 153.111C76.2128 153.219 76.1336 153.221 76.1436 153.136C76.1363 153.199 76.0814 153 76.1103 153.098C76.2099 153.327 76.3253 153.549 76.4558 153.763C76.6384 154.138 76.8133 154.517 76.9855 154.897C77.3684 155.699 77.709 156.521 78.006 157.358C78.0545 157.525 78.1554 157.672 78.294 157.778C78.4325 157.883 78.6013 157.942 78.7754 157.944C80.4866 157.77 82.1987 157.608 83.9048 157.394C85.4982 157.194 87.1827 157.039 88.7096 156.512C88.8753 156.461 89.0209 156.359 89.126 156.221C89.231 156.083 89.2903 155.916 89.2955 155.742C89.3288 155.173 89.3128 154.612 89.371 154.044C89.3702 153.576 89.4453 153.111 89.5935 152.667C89.7807 152.262 90.2209 151.948 90.4966 151.598C90.7986 151.217 91.0762 150.817 91.3278 150.401C91.8691 149.492 92.3332 148.539 92.7151 147.552C93.1707 146.501 93.4305 145.376 93.4819 144.231C93.4874 143.172 93.1699 142.137 92.5718 141.264C91.8994 140.354 91.0016 140.024 89.9496 139.734C88.823 139.424 87.5861 139.028 86.4096 139.217C85.974 139.278 85.5595 139.443 85.2019 139.699C84.8443 139.956 84.5543 140.295 84.3567 140.688C83.8612 141.77 84.2174 143.006 84.9675 143.88C85.3968 144.319 85.9131 144.663 86.4834 144.891C87.0876 145.177 87.7098 145.427 88.3319 145.671C88.536 145.726 88.7535 145.698 88.9372 145.593C89.121 145.489 89.2563 145.316 89.3138 145.113C89.365 144.909 89.3357 144.693 89.2318 144.511C89.1279 144.328 88.9576 144.192 88.7562 144.132L88.7578 144.131Z" fill="#211715"/>
<path d="M104.9 175.962C103.002 171.972 101.413 168.556 100.65 166.754C102.494 165.67 120.386 156.259 123.897 154.717C127.111 160.617 131.635 169.685 135.115 176.805L135.164 176.904C134.727 177.084 134.237 177.285 133.679 177.512C132.257 178.082 125.93 180.601 124.609 181.128C124.542 181.153 124.481 181.191 124.428 181.241C124.376 181.29 124.335 181.35 124.306 181.416C124.277 181.482 124.262 181.552 124.261 181.624C124.26 181.696 124.274 181.767 124.301 181.834C124.418 182.156 124.556 182.54 124.712 182.974L124.096 183.187C123.157 182.218 122.286 181.912 120.682 181.225C119.906 181 119.118 180.819 118.322 180.684C117.291 180.514 116.532 180.344 115.491 180.249C114.115 180.122 113.318 179.981 112.746 180.543C112.585 180.709 112.462 180.909 112.386 181.128C112.309 181.346 112.282 181.579 112.306 181.81C112.385 183.712 115.731 184.869 117.282 186.002C115.818 186.654 114.274 187.11 112.689 187.356C111.759 187.105 110.843 186.802 109.946 186.449C108.249 182.954 106.469 179.262 104.9 175.962Z" fill="#EAD16A"/>
<path d="M128.108 192.648C128.083 192.66 128.059 192.674 128.035 192.688C127.897 192.765 127.787 192.883 127.719 193.025C127.651 193.168 127.628 193.327 127.654 193.483C127.658 193.589 127.691 193.691 127.749 193.78L127.873 193.941C127.971 194.039 128.092 194.11 128.225 194.146L128.438 194.175C128.579 194.175 128.718 194.137 128.84 194.066C128.865 194.052 128.889 194.038 128.913 194.026C129.051 193.949 129.161 193.831 129.229 193.689C129.297 193.546 129.32 193.387 129.294 193.231C129.29 193.125 129.257 193.023 129.2 192.934L129.075 192.773C128.977 192.675 128.856 192.604 128.723 192.567L128.511 192.539C128.369 192.539 128.23 192.576 128.108 192.648Z" fill="#211715"/>
<path d="M110.635 186.047C107.928 180.471 105.215 174.894 102.635 169.259C102.192 168.294 101.753 167.327 101.338 166.349L101.051 167.441C103.558 165.978 106.172 164.679 108.74 163.33C112.56 161.322 116.388 159.327 120.24 157.384C121.582 156.707 122.924 156.013 124.301 155.408L123.209 155.121C126.275 160.756 129.141 166.501 131.986 172.249C132.803 173.9 133.616 175.552 134.425 177.207C134.533 177.388 134.708 177.52 134.912 177.573C135.116 177.627 135.333 177.598 135.516 177.493C135.696 177.383 135.826 177.208 135.879 177.005C135.933 176.801 135.905 176.585 135.803 176.401C132.893 170.451 129.951 164.515 126.887 158.642C126.132 157.194 125.365 155.752 124.587 154.316C124.476 154.137 124.302 154.008 124.098 153.955C123.895 153.901 123.679 153.928 123.495 154.029C120.472 155.359 117.55 156.955 114.617 158.469C110.884 160.397 107.162 162.348 103.451 164.321C102.38 164.893 101.295 165.449 100.246 166.062C100.068 166.173 99.9395 166.348 99.8863 166.551C99.8331 166.754 99.8594 166.969 99.9598 167.154C102.039 172.063 104.43 176.851 106.743 181.653C107.578 183.387 108.417 185.12 109.258 186.852C109.366 187.033 109.541 187.165 109.745 187.218C109.949 187.272 110.166 187.243 110.35 187.138C110.529 187.028 110.659 186.853 110.712 186.65C110.766 186.446 110.738 186.23 110.636 186.046L110.635 186.047Z" fill="#211715"/>
<path d="M114.145 187.08C115.216 186.798 116.265 186.438 117.283 186.002C115.731 184.872 112.386 183.713 112.307 181.81C112.283 181.58 112.31 181.347 112.386 181.128C112.462 180.909 112.586 180.71 112.747 180.544C113.318 179.982 114.116 180.122 115.492 180.249C116.533 180.345 117.291 180.515 118.322 180.685C119.119 180.82 119.907 181 120.683 181.226C122.287 181.911 123.157 182.217 124.097 183.188L124.713 182.974C125.607 185.456 127.083 189.571 128.371 192.964C128.425 193.105 128.478 193.245 128.53 193.383L128.464 193.435C124.842 196.324 120.475 199.254 115.942 200.21C115.414 200.322 113.7 199.842 113.229 199.298C111.942 197.812 111.429 196.682 110.968 194.82C110.262 194.459 109.734 193.601 109.36 192.903C108.949 192.042 108.888 191.055 109.19 190.15C108.815 189.952 108.458 189.721 108.123 189.46C107.806 189.191 107.591 188.819 107.518 188.409C107.444 187.999 107.515 187.576 107.719 187.213C108.031 186.675 109.082 186.096 109.855 186.412L109.949 186.451C110.846 186.804 111.762 187.107 112.692 187.358C113.182 187.296 113.667 187.203 114.145 187.08Z" fill="#EAD16A"/>
<path d="M108.418 189.937C108.07 191.031 108.151 192.216 108.643 193.252C109.078 194.125 109.692 195.027 110.563 195.507L110.197 195.03C110.511 196.444 111.105 197.782 111.944 198.963C112.309 199.545 112.806 200.032 113.396 200.383C113.955 200.666 114.553 200.862 115.171 200.962C115.829 201.033 116.494 200.96 117.121 200.749C117.926 200.536 118.717 200.275 119.491 199.967C120.97 199.376 122.394 198.653 123.743 197.806C125.313 196.803 126.825 195.711 128.27 194.536C128.419 194.385 128.502 194.183 128.502 193.971C128.502 193.76 128.419 193.557 128.27 193.407C128.118 193.262 127.916 193.181 127.706 193.181C127.496 193.181 127.294 193.262 127.142 193.407C124.34 195.637 121.329 197.721 117.901 198.853C117.458 199 117.011 199.131 116.56 199.246C116.354 199.299 116.147 199.348 115.939 199.395C115.867 199.411 115.576 199.433 115.833 199.425C115.764 199.427 115.698 199.425 115.628 199.423C115.525 199.415 115.422 199.399 115.321 199.374C115.171 199.341 115.023 199.304 114.877 199.26C114.569 199.177 114.273 199.054 113.997 198.894C113.781 198.729 113.592 198.53 113.437 198.306C112.72 197.408 112.199 196.369 111.908 195.256C111.857 194.967 111.772 194.685 111.655 194.415C111.534 194.209 111.328 194.132 111.146 193.998C110.818 193.725 110.545 193.391 110.341 193.015C110.081 192.631 109.912 192.192 109.845 191.732C109.779 191.273 109.817 190.804 109.958 190.362C110.257 189.377 108.715 188.956 108.419 189.938L108.418 189.937Z" fill="#211715"/>
<path d="M124.661 182.621C124.16 182.112 123.581 181.687 122.946 181.36C122.209 180.959 121.435 180.63 120.635 180.379C118.977 179.926 117.282 179.618 115.571 179.457C114.809 179.381 113.999 179.242 113.239 179.409C112.867 179.493 112.524 179.673 112.242 179.93C111.961 180.187 111.75 180.513 111.632 180.875C111.153 182.333 112.065 183.569 113.165 184.408C114.326 185.295 115.698 185.84 116.882 186.689L117.073 185.231C115.801 185.787 114.475 186.208 113.116 186.487C113.045 186.5 112.972 186.509 112.902 186.525C112.909 186.525 112.677 186.558 112.793 186.558C112.85 186.558 112.656 186.523 112.605 186.509C112.359 186.442 112.115 186.365 111.873 186.287C111.395 186.131 110.92 185.966 110.449 185.79C109.969 185.571 109.435 185.496 108.913 185.572C108.34 185.679 107.812 185.951 107.391 186.355C106.991 186.777 106.747 187.323 106.7 187.903C106.653 188.483 106.806 189.062 107.133 189.543C107.582 190.104 108.157 190.552 108.81 190.85C109.462 191.19 110.147 191.461 110.855 191.657C111.846 191.938 112.268 190.398 111.28 190.118C110.611 189.937 109.967 189.673 109.363 189.333C108.935 189.086 108.416 188.827 108.309 188.302C108.262 188.121 108.275 187.929 108.346 187.756C108.418 187.583 108.544 187.438 108.706 187.343C109.15 187.055 109.465 187.116 109.93 187.294C110.448 187.494 110.974 187.675 111.503 187.845C111.743 187.921 111.984 187.996 112.226 188.062C112.54 188.142 112.867 188.151 113.184 188.088C114.669 187.824 116.117 187.382 117.497 186.772C117.644 186.725 117.775 186.638 117.874 186.519C117.973 186.401 118.037 186.257 118.057 186.104C118.077 185.95 118.053 185.795 117.987 185.655C117.922 185.515 117.818 185.396 117.687 185.314C116.787 184.667 115.767 184.205 114.828 183.62C114.364 183.351 113.938 183.023 113.558 182.645C113.42 182.51 113.305 182.352 113.217 182.18C113.162 182.08 113.197 182.166 113.143 181.995C113.131 181.957 113.123 181.917 113.114 181.878C113.097 181.798 113.112 181.953 113.107 181.812C113.081 181.596 113.127 181.376 113.238 181.189C113.279 181.116 113.344 181.059 113.422 181.029C113.51 180.981 113.607 180.952 113.707 180.943C114.331 180.919 114.955 180.957 115.571 181.056C117.02 181.206 118.455 181.464 119.865 181.828C121.163 182.16 122.581 182.787 123.534 183.752C124.257 184.484 125.386 183.355 124.665 182.624L124.661 182.621Z" fill="#211715"/>
<path d="M155.822 173.078C155.962 175.405 156.058 177.778 155.542 180C155.339 180.97 155 181.907 154.535 182.782C153.889 183.938 153.089 185.001 152.158 185.941C150.184 187.942 147.558 189.307 145.044 190.501C142.282 191.776 139.452 192.899 136.567 193.863C135.273 194.311 133.971 194.735 132.662 195.136C132.103 195.307 131.542 195.473 130.979 195.635C130.733 195.705 130.487 195.774 130.241 195.842C130.214 195.849 130.117 195.86 130.1 195.88L130.053 195.893C130.086 195.877 130.125 195.874 130.161 195.884C130.197 195.893 130.228 195.915 130.25 195.945C130.403 195.961 130.307 196.061 130.309 195.934C130.288 195.834 130.255 195.738 130.21 195.647C129.232 192.883 128.159 190.152 127.157 187.396C126.71 186.169 126.266 184.941 125.825 183.712C125.65 183.228 125.476 182.743 125.302 182.259C125.261 182.06 125.192 181.869 125.096 181.69C125.083 181.676 125.087 181.614 125.059 181.619C125.007 181.63 125.016 181.983 124.855 181.885C124.872 181.896 124.988 181.831 125.007 181.824C126.632 181.231 128.227 180.541 129.835 179.901C133.422 178.472 136.991 177.002 140.541 175.492C141.107 175.251 141.673 175.012 142.24 174.774C142.441 174.712 142.61 174.576 142.713 174.393C142.817 174.211 142.847 173.996 142.798 173.792C142.74 173.589 142.605 173.416 142.421 173.312C142.238 173.208 142.02 173.18 141.816 173.235C137.929 174.869 134.168 176.465 130.24 178.031C128.439 178.748 126.638 179.466 124.838 180.183C124.399 180.358 123.937 180.499 123.668 180.921C123.3 181.497 123.54 182.072 123.747 182.644C124.157 183.784 124.568 184.923 124.979 186.063C126.025 188.956 127.112 191.834 128.179 194.72C128.308 195.07 128.436 195.42 128.562 195.771C128.662 196.129 128.793 196.477 128.953 196.812C129.371 197.547 130.15 197.525 130.856 197.329C132.085 196.988 133.306 196.619 134.52 196.229C137.604 195.24 140.656 194.129 143.641 192.871C146.404 191.705 149.161 190.358 151.569 188.552C153.745 186.919 155.722 184.613 156.632 182.013C157.319 179.881 157.619 177.643 157.518 175.405C157.502 174.629 157.464 173.855 157.418 173.081C157.357 172.06 155.76 172.053 155.822 173.081L155.822 173.078Z" fill="#211715"/>
</g>
<defs>
<filter id="filter0_i_48_240" x="0" y="0" width="231" height="282" filterUnits="userSpaceOnUse" color-interpolation-filters="sRGB">
<feFlood flood-opacity="0" result="BackgroundImageFix"/>
<feBlend mode="normal" in="SourceGraphic" in2="BackgroundImageFix" result="shape"/>
<feColorMatrix in="SourceAlpha" type="matrix" values="0 0 0 0 0 0 0 0 0 0 0 0 0 0 0 0 0 0 127 0" result="hardAlpha"/>
<feOffset/>
<feGaussianBlur stdDeviation="8.5"/>
<feComposite in2="hardAlpha" operator="arithmetic" k2="-1" k3="1"/>
<feColorMatrix type="matrix" values="0 0 0 0 0 0 0 0 0 0 0 0 0 0 0 0 0 0 0.25 0"/>
<feBlend mode="normal" in2="shape" result="effect1_innerShadow_48_240"/>
</filter>
<filter id="filter1_d_48_240" x="14.4082" y="28.6797" width="202.184" height="230.424" filterUnits="userSpaceOnUse" color-interpolation-filters="sRGB">
<feFlood flood-opacity="0" result="BackgroundImageFix"/>
<feColorMatrix in="SourceAlpha" type="matrix" values="0 0 0 0 0 0 0 0 0 0 0 0 0 0 0 0 0 0 127 0" result="hardAlpha"/>
<feOffset dy="4"/>
<feGaussianBlur stdDeviation="2"/>
<feComposite in2="hardAlpha" operator="out"/>
<feColorMatrix type="matrix" values="0 0 0 0 0 0 0 0 0 0 0 0 0 0 0 0 0 0 0.25 0"/>
<feBlend mode="normal" in2="BackgroundImageFix" result="effect1_dropShadow_48_240"/>
<feBlend mode="normal" in="SourceGraphic" in2="effect1_dropShadow_48_240" result="shape"/>
</filter>
<clipPath id="clip0_48_240">
<rect width="120" height="120" fill="white" transform="translate(55 81)"/>
</clipPath>
</defs>
</svg>
