<svg width="231" height="282" viewBox="0 0 231 282" fill="none" xmlns="http://www.w3.org/2000/svg">
<g filter="url(#filter0_i_48_188)">
<path d="M124.455 3.6419C124.455 3.64142 124.455 3.64145 124.455 3.64193C124.459 3.64566 124.464 3.65027 124.469 3.65589L124.455 3.6419L124.618 3.78745C124.844 3.98717 125.292 4.36966 125.986 4.90977C127.373 5.9896 129.754 7.70415 133.332 9.85124C140.485 14.1439 152.456 20.183 170.891 26.3293C189.751 32.6168 202.062 35.672 209.454 37.1508C213.145 37.8891 215.583 38.2291 216.977 38.3839C217.673 38.4611 218.102 38.4918 218.294 38.503L218.38 38.5077C225.37 38.6217 231 44.3238 231 51.3412V141.188C231 185.424 201.718 220.771 175.284 243.904C161.798 255.706 148.373 264.931 138.343 271.2C133.315 274.343 129.107 276.764 126.127 278.414C123.589 279.82 121.168 280.757 118.545 281.542C116.559 282.138 114.436 282.159 112.448 281.567C109.823 280.786 107.409 279.819 104.873 278.414C101.893 276.764 97.6848 274.343 92.6567 271.2C82.6279 264.931 69.2022 255.706 55.7159 243.904C29.2825 220.771 0 185.424 0 141.188V51.3412C0 44.3239 5.63062 38.6218 12.6197 38.5077L12.7064 38.503C12.8974 38.4918 13.3274 38.4611 14.0229 38.3839C15.4162 38.2291 17.8546 37.8891 21.5456 37.1508C28.9384 35.672 41.2488 32.6168 60.1084 26.3293C78.5444 20.183 90.5148 14.1439 97.6681 9.85124C101.246 7.70415 103.627 5.9896 105.014 4.90977C105.708 4.36966 106.156 3.98717 106.383 3.78745L106.545 3.6419C111.526 -1.21397 119.474 -1.21397 124.455 3.6419Z" fill="#EAD16A"/>
</g>
<g filter="url(#filter1_d_48_188)">
<path fill-rule="evenodd" clip-rule="evenodd" d="M105.819 32.6311C108.401 30.098 111.879 28.6797 115.501 28.6797C119.123 28.6797 122.601 30.098 125.183 32.6313C145.489 52.5349 171.834 56.3766 194.98 57.0864C199.099 57.1966 203.03 58.8299 206.007 61.6705C208.982 64.5088 210.79 68.3492 211.076 72.4442C212.95 95.1978 213.086 118.06 211.484 140.834C211.482 140.862 211.479 140.89 211.476 140.918C206.18 188.98 175.152 227.639 130.72 247.812C121.052 252.202 109.946 252.202 100.278 247.812C55.8453 227.639 24.817 188.98 19.5214 140.918C19.5184 140.89 19.5158 140.862 19.5139 140.834C17.9129 118.06 18.0507 95.1978 19.926 72.4445C20.2124 68.3494 22.0204 64.5089 24.9951 61.6705C27.9721 58.8299 31.9038 57.1966 36.0227 57.0864C59.1658 56.3766 85.5108 52.5327 105.819 32.6311ZM115.501 32.9297C112.989 32.9297 110.58 33.9137 108.795 35.6656L108.794 35.6666C87.2916 56.7382 59.5452 60.6174 36.1483 61.3345L36.1395 61.3348L36.1395 61.3347C33.0698 61.4162 30.1426 62.6332 27.9291 64.7453C25.7158 66.8572 24.3748 69.712 24.1649 72.7518L24.1628 72.78C22.3053 95.3085 22.1675 117.945 23.7505 140.494C28.8758 186.871 58.8124 224.319 102.035 243.942C110.586 247.825 120.411 247.825 128.963 243.942C172.185 224.319 202.122 186.871 207.247 140.494C208.832 117.945 208.695 95.3085 206.84 72.7799L206.838 72.7518C206.628 69.712 205.287 66.8572 203.073 64.7453C200.86 62.6332 197.933 61.4162 194.863 61.3347L194.854 61.3345C171.455 60.6174 143.708 56.7405 122.208 35.6664L122.207 35.6656C120.422 33.9137 118.013 32.9297 115.501 32.9297Z" fill="#171717"/>
</g>
<g clip-path="url(#clip0_48_188)">
<path d="M135.939 168.93V161C135.939 158.24 133.704 156 130.939 156H128.859L129.074 155.91L105.234 81H99.5641C99.0042 81 98.459 81.0949 97.9141 81.1999C99.3342 85.3849 100.469 88.7198 100.704 89.4049L120.684 149.42C121.134 150.77 120.959 152.165 120.339 153.33L119.474 152.465C117.519 150.51 114.359 150.51 112.404 152.465L111.569 153.3C111.444 153.06 111.279 152.845 111.194 152.58L91.2342 92.6149C90.9792 91.8848 90.7643 91.2548 90.5292 90.5648L81.2941 139.98C80.0142 144.34 82.3441 149.07 86.6892 150.7L101.289 156H100.939C98.1742 156 95.9392 158.24 95.9392 161V167.665L91.9392 173C90.5491 174.855 90.6192 177.42 92.0941 179.199L95.939 183.809V190.999C95.939 193.759 98.174 195.999 100.939 195.999H108.869L112.404 199.534C113.379 200.509 114.659 200.999 115.939 200.999C117.219 200.999 118.499 200.509 119.474 199.534L123.009 195.999H130.939C133.704 195.999 135.939 193.759 135.939 190.999V183.069L139.474 179.534C141.429 177.579 141.429 174.419 139.474 172.464L135.939 168.93ZM115.939 181C113.179 181 110.939 178.76 110.939 176C110.939 173.24 113.179 171 115.939 171C118.699 171 120.939 173.24 120.939 176C120.939 178.76 118.699 181 115.939 181Z" fill="black"/>
<path d="M148.683 139.135L137.578 87.4849C137.538 87.285 137.483 87.0848 137.413 86.8898C136.178 83.3651 132.843 81 129.108 81H115.733L138.333 152.025L143.358 149.915C147.683 148.295 150.013 143.515 148.683 139.135Z" fill="black"/>
</g>
<defs>
<filter id="filter0_i_48_188" x="0" y="0" width="231" height="282" filterUnits="userSpaceOnUse" color-interpolation-filters="sRGB">
<feFlood flood-opacity="0" result="BackgroundImageFix"/>
<feBlend mode="normal" in="SourceGraphic" in2="BackgroundImageFix" result="shape"/>
<feColorMatrix in="SourceAlpha" type="matrix" values="0 0 0 0 0 0 0 0 0 0 0 0 0 0 0 0 0 0 127 0" result="hardAlpha"/>
<feOffset/>
<feGaussianBlur stdDeviation="8.5"/>
<feComposite in2="hardAlpha" operator="arithmetic" k2="-1" k3="1"/>
<feColorMatrix type="matrix" values="0 0 0 0 0 0 0 0 0 0 0 0 0 0 0 0 0 0 0.25 0"/>
<feBlend mode="normal" in2="shape" result="effect1_innerShadow_48_188"/>
</filter>
<filter id="filter1_d_48_188" x="14.4082" y="28.6797" width="202.184" height="230.424" filterUnits="userSpaceOnUse" color-interpolation-filters="sRGB">
<feFlood flood-opacity="0" result="BackgroundImageFix"/>
<feColorMatrix in="SourceAlpha" type="matrix" values="0 0 0 0 0 0 0 0 0 0 0 0 0 0 0 0 0 0 127 0" result="hardAlpha"/>
<feOffset dy="4"/>
<feGaussianBlur stdDeviation="2"/>
<feComposite in2="hardAlpha" operator="out"/>
<feColorMatrix type="matrix" values="0 0 0 0 0 0 0 0 0 0 0 0 0 0 0 0 0 0 0.25 0"/>
<feBlend mode="normal" in2="BackgroundImageFix" result="effect1_dropShadow_48_188"/>
<feBlend mode="normal" in="SourceGraphic" in2="effect1_dropShadow_48_188" result="shape"/>
</filter>
<clipPath id="clip0_48_188">
<rect width="120" height="120" fill="white" transform="translate(55 81)"/>
</clipPath>
</defs>
</svg>
