<svg width="231" height="282" viewBox="0 0 231 282" fill="none" xmlns="http://www.w3.org/2000/svg">
<g filter="url(#filter0_i_48_139)">
<path d="M124.455 3.6419C124.455 3.64142 124.455 3.64145 124.455 3.64193C124.459 3.64566 124.464 3.65027 124.469 3.65589L124.455 3.6419L124.618 3.78745C124.844 3.98717 125.292 4.36966 125.986 4.90977C127.373 5.9896 129.754 7.70415 133.332 9.85124C140.485 14.1439 152.456 20.183 170.891 26.3293C189.751 32.6168 202.062 35.672 209.454 37.1508C213.145 37.8891 215.583 38.2291 216.977 38.3839C217.673 38.4611 218.102 38.4918 218.294 38.503L218.38 38.5077C225.37 38.6217 231 44.3238 231 51.3412V141.188C231 185.424 201.718 220.771 175.284 243.904C161.798 255.706 148.373 264.931 138.343 271.2C133.315 274.343 129.107 276.764 126.127 278.414C123.589 279.82 121.168 280.757 118.545 281.542C116.559 282.138 114.436 282.159 112.448 281.567C109.823 280.786 107.409 279.819 104.873 278.414C101.893 276.764 97.6848 274.343 92.6567 271.2C82.6279 264.931 69.2022 255.706 55.7159 243.904C29.2825 220.771 0 185.424 0 141.188V51.3412C0 44.3239 5.63062 38.6218 12.6197 38.5077L12.7064 38.503C12.8974 38.4918 13.3274 38.4611 14.0229 38.3839C15.4162 38.2291 17.8546 37.8891 21.5456 37.1508C28.9384 35.672 41.2488 32.6168 60.1084 26.3293C78.5444 20.183 90.5148 14.1439 97.6681 9.85124C101.246 7.70415 103.627 5.9896 105.014 4.90977C105.708 4.36966 106.156 3.98717 106.383 3.78745L106.545 3.6419C111.526 -1.21397 119.474 -1.21397 124.455 3.6419Z" fill="#EAD16A"/>
</g>
<g filter="url(#filter1_d_48_139)">
<path fill-rule="evenodd" clip-rule="evenodd" d="M105.819 32.6311C108.401 30.098 111.879 28.6797 115.501 28.6797C119.123 28.6797 122.601 30.098 125.183 32.6313C145.489 52.5349 171.834 56.3766 194.98 57.0864C199.099 57.1966 203.03 58.8299 206.007 61.6705C208.982 64.5088 210.79 68.3492 211.076 72.4442C212.95 95.1978 213.086 118.06 211.484 140.834C211.482 140.862 211.479 140.89 211.476 140.918C206.18 188.98 175.152 227.639 130.72 247.812C121.052 252.202 109.946 252.202 100.278 247.812C55.8453 227.639 24.817 188.98 19.5214 140.918C19.5184 140.89 19.5158 140.862 19.5139 140.834C17.9129 118.06 18.0507 95.1978 19.926 72.4445C20.2124 68.3494 22.0204 64.5089 24.9951 61.6705C27.9721 58.8299 31.9038 57.1966 36.0227 57.0864C59.1658 56.3766 85.5108 52.5327 105.819 32.6311ZM115.501 32.9297C112.989 32.9297 110.58 33.9137 108.795 35.6656L108.794 35.6666C87.2916 56.7382 59.5452 60.6174 36.1483 61.3345L36.1395 61.3348L36.1395 61.3347C33.0698 61.4162 30.1426 62.6332 27.9291 64.7453C25.7158 66.8572 24.3748 69.712 24.1649 72.7518L24.1628 72.78C22.3053 95.3085 22.1675 117.945 23.7505 140.494C28.8758 186.871 58.8124 224.319 102.035 243.942C110.586 247.825 120.411 247.825 128.963 243.942C172.185 224.319 202.122 186.871 207.247 140.494C208.832 117.945 208.695 95.3085 206.84 72.7799L206.838 72.7518C206.628 69.712 205.287 66.8572 203.073 64.7453C200.86 62.6332 197.933 61.4162 194.863 61.3347L194.854 61.3345C171.455 60.6174 143.708 56.7405 122.208 35.6664L122.207 35.6656C120.422 33.9137 118.013 32.9297 115.501 32.9297Z" fill="#171717"/>
</g>
<g clip-path="url(#clip0_48_139)">
<path d="M160.485 81.5925C160.09 81.1126 159.455 80.9 158.851 81.0448C147.36 83.7987 136.837 89.3978 127.573 97.6863C120.194 104.288 113.599 112.598 107.97 122.386C99.0241 137.943 95.4581 152.017 94.9223 154.271C93.3943 156.581 91.9032 158.886 90.4739 161.142H82.5651C78.8648 161.142 75.8542 164.152 75.8542 167.853C75.8542 171.278 78.4334 174.112 81.7516 174.514V177.004H81.1418C74.526 177.004 69.1436 182.386 69.1436 189.002C69.1436 195.618 74.526 201 81.1418 201H101.478C108.093 201 113.476 195.618 113.476 189.002C113.476 182.386 108.093 177.004 101.478 177.004H100.867V174.514C104.186 174.112 106.765 171.277 106.765 167.853C106.765 164.152 103.754 161.142 100.054 161.142H94.3317C95.3795 159.507 96.4554 157.853 97.5509 156.195C99.5702 155.215 108.233 150.719 119.46 140.732C131.023 130.446 147.566 112.133 160.71 83.3022C160.968 82.736 160.881 82.0725 160.485 81.5925ZM101.478 180.258C106.299 180.258 110.222 184.18 110.222 189.002C110.222 193.823 106.299 197.746 101.478 197.746H81.142C76.3206 197.746 72.3977 193.823 72.3977 189.002C72.3977 184.18 76.3206 180.258 81.142 180.258H101.478ZM85.0058 174.563H97.6138V177.004H85.0058V174.563ZM103.511 167.853C103.511 169.759 101.96 171.31 100.054 171.31H82.5653C80.6591 171.31 79.1083 169.759 79.1083 167.853C79.1083 165.946 80.6591 164.396 82.5653 164.396H100.054C101.96 164.396 103.511 165.946 103.511 167.853ZM117.417 138.195C111.055 143.868 105.484 147.749 101.587 150.176C112.636 133.973 131.071 109.059 150.963 91.1579C151.631 90.5567 151.685 89.528 151.084 88.8601C150.483 88.1922 149.454 88.1377 148.786 88.7392C129.939 105.7 112.428 128.815 101.126 145.105C103.155 139.393 106.281 131.851 110.791 124.008C116.247 114.521 122.623 106.481 129.742 100.111C137.696 92.995 146.609 87.955 156.281 85.0986C143.664 111.533 128.285 128.505 117.417 138.195Z" fill="black"/>
<path d="M98.499 182.947C98.499 183.846 99.2276 184.574 100.126 184.574C103.158 184.574 105.625 187.041 105.625 190.073C105.625 190.971 106.353 191.7 107.252 191.7C108.15 191.7 108.879 190.971 108.879 190.073C108.879 185.247 104.952 181.32 100.126 181.32C99.2274 181.32 98.499 182.049 98.499 182.947Z" fill="black"/>
</g>
<defs>
<filter id="filter0_i_48_139" x="0" y="0" width="231" height="282" filterUnits="userSpaceOnUse" color-interpolation-filters="sRGB">
<feFlood flood-opacity="0" result="BackgroundImageFix"/>
<feBlend mode="normal" in="SourceGraphic" in2="BackgroundImageFix" result="shape"/>
<feColorMatrix in="SourceAlpha" type="matrix" values="0 0 0 0 0 0 0 0 0 0 0 0 0 0 0 0 0 0 127 0" result="hardAlpha"/>
<feOffset/>
<feGaussianBlur stdDeviation="8.5"/>
<feComposite in2="hardAlpha" operator="arithmetic" k2="-1" k3="1"/>
<feColorMatrix type="matrix" values="0 0 0 0 0 0 0 0 0 0 0 0 0 0 0 0 0 0 0.25 0"/>
<feBlend mode="normal" in2="shape" result="effect1_innerShadow_48_139"/>
</filter>
<filter id="filter1_d_48_139" x="14.4082" y="28.6797" width="202.184" height="230.424" filterUnits="userSpaceOnUse" color-interpolation-filters="sRGB">
<feFlood flood-opacity="0" result="BackgroundImageFix"/>
<feColorMatrix in="SourceAlpha" type="matrix" values="0 0 0 0 0 0 0 0 0 0 0 0 0 0 0 0 0 0 127 0" result="hardAlpha"/>
<feOffset dy="4"/>
<feGaussianBlur stdDeviation="2"/>
<feComposite in2="hardAlpha" operator="out"/>
<feColorMatrix type="matrix" values="0 0 0 0 0 0 0 0 0 0 0 0 0 0 0 0 0 0 0.25 0"/>
<feBlend mode="normal" in2="BackgroundImageFix" result="effect1_dropShadow_48_139"/>
<feBlend mode="normal" in="SourceGraphic" in2="effect1_dropShadow_48_139" result="shape"/>
</filter>
<clipPath id="clip0_48_139">
<rect width="120" height="120" fill="white" transform="translate(55 81)"/>
</clipPath>
</defs>
</svg>
