<svg width="231" height="282" viewBox="0 0 231 282" fill="none" xmlns="http://www.w3.org/2000/svg">
<g filter="url(#filter0_i_48_414)">
<path d="M124.455 3.6419C124.455 3.64142 124.455 3.64145 124.455 3.64193C124.459 3.64566 124.464 3.65027 124.469 3.65589L124.455 3.6419L124.618 3.78745C124.844 3.98717 125.292 4.36966 125.986 4.90977C127.373 5.9896 129.754 7.70415 133.332 9.85124C140.485 14.1439 152.456 20.183 170.891 26.3293C189.751 32.6168 202.062 35.672 209.454 37.1508C213.145 37.8891 215.583 38.2291 216.977 38.3839C217.673 38.4611 218.102 38.4918 218.294 38.503L218.38 38.5077C225.37 38.6217 231 44.3238 231 51.3412V141.188C231 185.424 201.718 220.771 175.284 243.904C161.798 255.706 148.373 264.931 138.343 271.2C133.315 274.343 129.107 276.764 126.127 278.414C123.589 279.82 121.168 280.757 118.545 281.542C116.559 282.138 114.436 282.159 112.448 281.567C109.823 280.786 107.409 279.819 104.873 278.414C101.893 276.764 97.6848 274.343 92.6567 271.2C82.6279 264.931 69.2022 255.706 55.7159 243.904C29.2825 220.771 0 185.424 0 141.188V51.3412C0 44.3239 5.63062 38.6218 12.6197 38.5077L12.7064 38.503C12.8974 38.4918 13.3274 38.4611 14.0229 38.3839C15.4162 38.2291 17.8546 37.8891 21.5456 37.1508C28.9384 35.672 41.2488 32.6168 60.1084 26.3293C78.5444 20.183 90.5148 14.1439 97.6681 9.85124C101.246 7.70415 103.627 5.9896 105.014 4.90977C105.708 4.36966 106.156 3.98717 106.383 3.78745L106.545 3.6419C111.526 -1.21397 119.474 -1.21397 124.455 3.6419Z" fill="#EAD16A"/>
</g>
<g filter="url(#filter1_d_48_414)">
<path fill-rule="evenodd" clip-rule="evenodd" d="M105.819 32.6311C108.401 30.098 111.879 28.6797 115.501 28.6797C119.123 28.6797 122.601 30.098 125.183 32.6313C145.489 52.5349 171.834 56.3766 194.98 57.0864C199.099 57.1966 203.03 58.8299 206.007 61.6705C208.982 64.5088 210.79 68.3492 211.076 72.4442C212.95 95.1978 213.086 118.06 211.484 140.834C211.482 140.862 211.479 140.89 211.476 140.918C206.18 188.98 175.152 227.639 130.72 247.812C121.052 252.202 109.946 252.202 100.278 247.812C55.8453 227.639 24.817 188.98 19.5214 140.918C19.5184 140.89 19.5158 140.862 19.5139 140.834C17.9129 118.06 18.0507 95.1978 19.926 72.4445C20.2124 68.3494 22.0204 64.5089 24.9951 61.6705C27.9721 58.8299 31.9038 57.1966 36.0227 57.0864C59.1658 56.3766 85.5108 52.5327 105.819 32.6311ZM115.501 32.9297C112.989 32.9297 110.58 33.9137 108.795 35.6656L108.794 35.6666C87.2916 56.7382 59.5452 60.6174 36.1483 61.3345L36.1395 61.3348L36.1395 61.3347C33.0698 61.4162 30.1426 62.6332 27.9291 64.7453C25.7158 66.8572 24.3748 69.712 24.1649 72.7518L24.1628 72.78C22.3053 95.3085 22.1675 117.945 23.7505 140.494C28.8758 186.871 58.8124 224.319 102.035 243.942C110.586 247.825 120.411 247.825 128.963 243.942C172.185 224.319 202.122 186.871 207.247 140.494C208.832 117.945 208.695 95.3085 206.84 72.7799L206.838 72.7518C206.628 69.712 205.287 66.8572 203.073 64.7453C200.86 62.6332 197.933 61.4162 194.863 61.3347L194.854 61.3345C171.455 60.6174 143.708 56.7405 122.208 35.6664L122.207 35.6656C120.422 33.9137 118.013 32.9297 115.501 32.9297Z" fill="#171717"/>
</g>
<g clip-path="url(#clip0_48_414)">
<path d="M168.145 183.088C166.522 181.189 162.725 173.597 162.725 173.597C162.725 173.597 163.352 172.789 162.725 170.07C161.909 166.546 158.386 166.815 157.574 166.004C156.758 165.19 149.711 152.31 149.168 150.818C148.626 149.325 142.659 132.382 142.659 132.382C140.656 123.568 136.962 119.908 132.084 118.823C127.247 117.749 124.627 118.009 122.457 116.111C121.103 114.926 121.151 114.046 121.151 110.473C121.151 110.473 122.612 109.084 123.679 107.163C124.896 104.966 125.494 101.794 125.494 101.794C126.715 101.305 126.73 100.696 127.258 98.7555C127.988 96.0694 127.937 94.2281 125.985 94.2281C126.446 85.4686 122.052 81 115 81C107.953 81 103.558 85.4686 104.019 94.2284C102.067 94.2284 102.012 96.0696 102.746 98.7558C103.274 100.697 103.288 101.306 104.506 101.794C104.506 101.794 105.104 104.966 106.325 107.163C107.392 109.084 108.853 110.473 108.853 110.473C108.853 114.047 108.897 114.927 107.543 116.111C105.377 118.01 102.754 117.75 97.9198 118.823C93.0382 119.908 89.3482 123.568 87.3448 132.382C87.3448 132.382 81.3783 149.326 80.836 150.818C80.2936 152.311 73.242 165.19 72.4304 166.004C71.6185 166.815 68.0911 166.546 67.2793 170.07C66.6521 172.789 67.2793 173.598 67.2793 173.598C67.2793 173.598 63.4824 181.189 61.8551 183.088C60.2281 184.984 63.2131 186.341 65.1097 183.9C65.3309 184.23 66.0837 184.468 66.9361 184.582C60.3202 191.907 64.0913 201.449 74.3307 200.984C82.7248 200.602 115 194.746 115 194.746C115 194.746 147.275 200.602 155.674 200.984C165.913 201.449 169.684 191.906 163.065 184.582C163.921 184.468 164.673 184.23 164.895 183.9C166.791 186.34 169.773 184.984 168.145 183.088ZM97.9198 170.965C97.9198 170.965 84.0275 175.096 75.3748 178.988C77.157 175.671 79.2085 171.155 79.2085 171.155L87.8872 158.683L94.8022 143.632C94.8022 143.632 96.9718 151.768 97.647 152.988C98.3257 154.207 97.9198 170.965 97.9198 170.965ZM132.084 170.965C132.084 170.965 131.678 154.207 132.353 152.988C133.032 151.768 135.202 143.632 135.202 143.632L142.117 158.683L150.792 171.155C150.792 171.155 152.847 175.671 154.629 178.988C145.977 175.095 132.084 170.965 132.084 170.965Z" fill="black"/>
</g>
<defs>
<filter id="filter0_i_48_414" x="0" y="0" width="231" height="282" filterUnits="userSpaceOnUse" color-interpolation-filters="sRGB">
<feFlood flood-opacity="0" result="BackgroundImageFix"/>
<feBlend mode="normal" in="SourceGraphic" in2="BackgroundImageFix" result="shape"/>
<feColorMatrix in="SourceAlpha" type="matrix" values="0 0 0 0 0 0 0 0 0 0 0 0 0 0 0 0 0 0 127 0" result="hardAlpha"/>
<feOffset/>
<feGaussianBlur stdDeviation="8.5"/>
<feComposite in2="hardAlpha" operator="arithmetic" k2="-1" k3="1"/>
<feColorMatrix type="matrix" values="0 0 0 0 0 0 0 0 0 0 0 0 0 0 0 0 0 0 0.25 0"/>
<feBlend mode="normal" in2="shape" result="effect1_innerShadow_48_414"/>
</filter>
<filter id="filter1_d_48_414" x="14.4082" y="28.6797" width="202.184" height="230.424" filterUnits="userSpaceOnUse" color-interpolation-filters="sRGB">
<feFlood flood-opacity="0" result="BackgroundImageFix"/>
<feColorMatrix in="SourceAlpha" type="matrix" values="0 0 0 0 0 0 0 0 0 0 0 0 0 0 0 0 0 0 127 0" result="hardAlpha"/>
<feOffset dy="4"/>
<feGaussianBlur stdDeviation="2"/>
<feComposite in2="hardAlpha" operator="out"/>
<feColorMatrix type="matrix" values="0 0 0 0 0 0 0 0 0 0 0 0 0 0 0 0 0 0 0.25 0"/>
<feBlend mode="normal" in2="BackgroundImageFix" result="effect1_dropShadow_48_414"/>
<feBlend mode="normal" in="SourceGraphic" in2="effect1_dropShadow_48_414" result="shape"/>
</filter>
<clipPath id="clip0_48_414">
<rect width="120" height="120" fill="white" transform="translate(55 81)"/>
</clipPath>
</defs>
</svg>
